SplineFontDB: 3.2
FontName: Untitled1
FullName: Untitled1
FamilyName: Untitled1
Weight: Regular
Copyright: Copyright (c) 2021, Una Ada
UComments: "2021-5-31: Created with FontForge (http://fontforge.org)"
Version: 001.000
ItalicAngle: 0
UnderlinePosition: -100
UnderlineWidth: 50
Ascent: 760
Descent: 240
InvalidEm: 0
LayerCount: 2
Layer: 0 0 "Back" 1
Layer: 1 0 "Fore" 0
XUID: [1021 374 -1678095732 4566278]
OS2Version: 0
OS2_WeightWidthSlopeOnly: 0
OS2_UseTypoMetrics: 1
CreationTime: 1622498915
ModificationTime: 1622500129
OS2TypoAscent: 0
OS2TypoAOffset: 1
OS2TypoDescent: 0
OS2TypoDOffset: 1
OS2TypoLinegap: 0
OS2WinAscent: 0
OS2WinAOffset: 1
OS2WinDescent: 0
OS2WinDOffset: 1
HheadAscent: 0
HheadAOffset: 1
HheadDescent: 0
HheadDOffset: 1
OS2Vendor: 'PfEd'
MarkAttachClasses: 1
DEI: 91125
Encoding: ISO8859-1
UnicodeInterp: none
NameList: AGL For New Fonts
DisplaySize: -48
AntiAlias: 1
FitToEm: 0
WinInfo: 0 39 16
BeginPrivate: 0
EndPrivate
BeginChars: 256 94

StartChar: exclam
Encoding: 33 33 0
Width: 1000
Flags: H
LayerCount: 2
Fore
SplineSet
507 81.19921875 m 0
 486.2890625 81.1982421875 466.456054688 92.9521484375 457.123046875 112.958007812 c 0
 450.924804688 126.2421875 436.411132812 157.3515625 421.041992188 406.797851562 c 0
 413.276367188 532.846679688 408.669921875 663.133789062 409.240234375 705.736328125 c 0
 409.646484375 736.109375 434.618164062 760.380859375 464.970703125 759.995117188 c 0
 495.34375 759.588867188 519.635742188 734.63671875 519.23046875 704.263671875 c 0
 518.712890625 665.6953125 523.19140625 539.451171875 530.442382812 419.96484375 c 0
 543.522460938 204.412109375 555.411132812 163.673828125 557.149414062 158.71875 c 0
 569.43359375 131.348632812 557.49609375 99.09765625 530.217773438 86.37109375 c 0
 522.697265625 82.8623046875 514.78515625 81.2001953125 507 81.19921875 c 0
581.364257812 45.3369140625 m 0
 598.384765625 20.177734375 591.787109375 -14.015625 566.627929688 -31.037109375 c 2
 545.166992188 -45.5556640625 l 2
 535.721679688 -51.9453125 525.001953125 -55.0068359375 514.3984375 -55.0068359375 c 0
 496.752929688 -55.0068359375 479.424804688 -46.5341796875 468.793945312 -30.8193359375 c 0
 451.7734375 -5.66015625 458.37109375 28.533203125 483.530273438 45.5537109375 c 2
 504.991210938 60.0732421875 l 2
 530.150390625 77.0927734375 564.342773438 70.49609375 581.364257812 45.3369140625 c 0
EndSplineSet
EndChar

StartChar: quotedbl
Encoding: 34 34 1
Width: 1000
Flags: H
LayerCount: 2
Fore
SplineSet
475.639648438 630.272460938 m 0
 487.7890625 598.415039062 497.845703125 563.981445312 504.724609375 530.692382812 c 0
 510.873046875 500.9453125 491.7421875 471.845703125 461.995117188 465.69921875 c 0
 458.2421875 464.923828125 454.495117188 464.549804688 450.806640625 464.549804688 c 0
 425.265625 464.549804688 402.374023438 482.434570312 397.001953125 508.428710938 c 0
 385.404296875 564.547851562 362.600585938 624.326171875 341.547851562 653.799804688 c 0
 323.892578125 678.517578125 329.6171875 712.868164062 354.334960938 730.524414062 c 0
 379.052734375 748.1796875 413.403320312 742.455078125 431.05859375 717.737304688 c 0
 447.041015625 695.362304688 462.040039062 665.93359375 475.639648438 630.272460938 c 0
663.188476562 591.630859375 m 0
 676.439453125 564.297851562 665.0234375 531.3984375 637.688476562 518.147460938 c 0
 629.958984375 514.400390625 621.784179688 512.625 613.735351562 512.625 c 0
 593.319335938 512.625 573.708007812 524.041015625 564.204101562 543.64453125 c 0
 557.444335938 557.590820312 550.91796875 572.721679688 544.008789062 588.7421875 c 0
 530.810546875 619.341796875 515.852539062 654.025390625 502.525390625 670.85546875 c 0
 483.666992188 694.66796875 487.684570312 729.259765625 511.498046875 748.118164062 c 0
 535.310546875 766.974609375 569.90234375 762.958984375 588.759765625 739.14453125 c 0
 611.107421875 710.926757812 628.344726562 670.958007812 645.015625 632.3046875 c 0
 651.4296875 617.43359375 657.48828125 603.387695312 663.188476562 591.630859375 c 0
EndSplineSet
EndChar

StartChar: numbersign
Encoding: 35 35 2
Width: 1000
Flags: H
LayerCount: 2
Fore
SplineSet
660.061523438 314.032226562 m 0
 650.948242188 313.189453125 641.778320312 312.404296875 632.5546875 311.670898438 c 1
 631.028320312 294.333007812 629.056640625 276.690429688 626.700195312 258.682617188 c 1
 650.840820312 254.9296875 670.36328125 235.3046875 672.93359375 209.865234375 c 0
 675.990234375 179.642578125 653.967773438 152.666992188 623.74609375 149.612304688 c 0
 618.69140625 149.100585938 613.646484375 148.662109375 608.60546875 148.2734375 c 1
 602.95703125 118.676757812 596.5859375 87.9052734375 589.584960938 55.6396484375 c 0
 583.997070312 29.88671875 561.208984375 12.291015625 535.889648438 12.291015625 c 0
 532.025390625 12.291015625 528.10546875 12.7001953125 524.172851562 13.5537109375 c 0
 494.48828125 19.9951171875 475.646484375 49.28125 482.086914062 78.9658203125 c 0
 487.032226562 101.751953125 491.642578125 123.713867188 495.888671875 144.974609375 c 1
 485.694335938 144.81640625 475.418945312 144.602539062 465.045898438 144.265625 c 1
 462.76171875 126.056640625 460.858398438 107.793945312 459.553710938 89.5439453125 c 0
 457.485351562 60.5810546875 433.340820312 38.4609375 404.750976562 38.4609375 c 0
 403.432617188 38.4609375 402.110351562 38.5068359375 400.775390625 38.6025390625 c 0
 370.4765625 40.7666015625 347.669921875 67.0830078125 349.833984375 97.3818359375 c 0
 350.697265625 109.473632812 351.788085938 121.463867188 353.044921875 133.36328125 c 1
 350.322265625 132.958007812 347.610351562 132.749023438 344.932617188 132.749023438 c 0
 318.80859375 132.749023438 295.635742188 151.431640625 290.861328125 178.046875 c 0
 285.497070312 207.946289062 305.38671875 236.532226562 335.28515625 241.89453125 c 0
 346.809570312 243.962890625 358.155273438 245.689453125 369.323242188 247.14453125 c 1
 370.823242188 256.084960938 372.334960938 264.983398438 373.841796875 273.827148438 c 0
 375.630859375 284.328125 377.404296875 294.739257812 379.125976562 305.071289062 c 1
 374.577148438 305.178710938 370.029296875 305.284179688 365.467773438 305.415039062 c 0
 335.10546875 306.288085938 311.19921875 331.610351562 312.072265625 361.97265625 c 0
 312.9453125 392.3359375 338.286132812 416.243164062 368.629882812 415.369140625 c 0
 377.147460938 415.125 385.6328125 414.938476562 394.103515625 414.778320312 c 1
 395.829101562 434.313476562 396.838867188 453.647460938 396.838867188 472.838867188 c 0
 396.838867188 503.213867188 421.463867188 527.838867188 451.838867188 527.838867188 c 0
 482.213867188 527.838867188 506.838867188 503.213867188 506.838867188 472.838867188 c 0
 506.838867188 453.584960938 505.971679688 434.333007812 504.483398438 415.125 c 1
 511.71484375 415.310546875 518.926757812 415.525390625 526.110351562 415.77734375 c 1
 525.744140625 428.76953125 525.026367188 441.622070312 523.907226562 454.366210938 c 0
 521.25 484.625 543.625976562 511.30859375 573.885742188 513.965820312 c 0
 604.15234375 516.629882812 630.829101562 494.247070312 633.486328125 463.98828125 c 0
 634.700195312 450.153320312 635.506835938 436.282226562 635.965820312 422.333007812 c 1
 640.634765625 422.732421875 645.297851562 423.13671875 649.936523438 423.56640625 c 0
 680.190429688 426.360351562 706.969726562 404.108398438 709.765625 373.861328125 c 0
 712.561523438 343.614257812 690.307617188 316.828125 660.061523438 314.032226562 c 0
515.193359375 255.239257812 m 1
 517.663085938 272.421875 519.772460938 289.181640625 521.458007812 305.557617188 c 1
 511.200195312 305.235351562 500.893554688 304.975585938 490.546875 304.779296875 c 1
 487.875976562 288.196289062 485.0703125 271.7109375 482.284179688 255.35546875 c 0
 482.249023438 255.15234375 482.21484375 254.948242188 482.1796875 254.745117188 c 1
 493.4609375 254.9765625 504.466796875 255.11328125 515.193359375 255.239257812 c 1
EndSplineSet
EndChar

StartChar: dollar
Encoding: 36 36 3
Width: 1000
Flags: H
LayerCount: 2
Fore
SplineSet
700.7734375 158.888671875 m 0
 724.30078125 77.3740234375 698.30078125 28.693359375 672.345703125 2.212890625 c 0
 654.703125 -15.791015625 631.43359375 -29.2724609375 602.907226562 -38.0673828125 c 1
 598.025390625 -84.3896484375 588.815429688 -158.028320312 576.04296875 -200.751953125 c 0
 568.9140625 -224.600585938 547.046875 -240.012695312 523.369140625 -240.012695312 c 0
 518.154296875 -240.012695312 512.848632812 -239.264648438 507.59375 -237.694335938 c 0
 478.491210938 -228.994140625 461.952148438 -198.348632812 470.65234375 -169.245117188 c 0
 478.709960938 -142.29296875 485.86328125 -92.5244140625 490.8359375 -50.197265625 c 1
 480.1640625 -49.8564453125 469.137695312 -49.1982421875 457.76171875 -48.2099609375 c 0
 390.571289062 -42.3779296875 333.225585938 -27.212890625 330.818359375 -26.5693359375 c 0
 301.46875 -18.7373046875 284.02734375 11.404296875 291.860351562 40.7529296875 c 0
 299.692382812 70.1005859375 329.833007812 87.5439453125 359.181640625 79.7099609375 c 0
 359.650390625 79.5859375 410.87109375 66.125 468.715820312 61.25390625 c 0
 541.946289062 55.0888671875 581.344726562 66.4912109375 593.796875 79.2177734375 c 0
 603.678710938 89.3173828125 599.953125 111.530273438 595.087890625 128.385742188 c 0
 582.803710938 170.94140625 561.748046875 201.576171875 528.818359375 224.794921875 c 0
 498.146484375 246.420898438 461.797851562 258.549804688 426.646484375 270.279296875 c 0
 396.043945312 280.489257812 367.139648438 290.133789062 343.223632812 305.89453125 c 0
 298.591796875 335.307617188 289.651367188 374.821289062 290.009765625 402.788085938 c 0
 290.389648438 432.390625 301.935546875 475.696289062 354.782226562 513.890625 c 0
 376.295898438 529.44140625 403.676757812 543.384765625 436.3828125 555.489257812 c 1
 431.116210938 615.600585938 425.454101562 661.4453125 419.184570312 694.860351562 c 0
 413.583984375 724.71484375 433.24609375 753.45703125 463.100585938 759.057617188 c 0
 492.956054688 764.66015625 521.698242188 744.997070312 527.298828125 715.141601562 c 0
 533.578125 681.672851562 539.064453125 639.471679688 544.168945312 584.975585938 c 1
 577.989257812 591.669921875 602.180664062 594.444335938 603.875976562 594.633789062 c 0
 634.05078125 598.017578125 661.280273438 576.299804688 664.668945312 546.114257812 c 0
 668.057617188 515.94140625 646.35546875 488.733398438 616.190429688 485.325195312 c 1
 616.190429688 485.325195312 l 1
 615.631835938 485.26171875 565.073242188 479.391601562 510.948242188 464.087890625 c 0
 510.2421875 463.87109375 509.530273438 463.66796875 508.810546875 463.478515625 c 0
 503.67578125 462.004882812 498.514648438 460.44921875 493.3671875 458.802734375 c 0
 425.125976562 436.98046875 400.143554688 412.50390625 400.000976562 401.375976562 c 0
 399.99609375 401.0703125 400.000976562 400.810546875 400.009765625 400.596679688 c 0
 401.309570312 399.353515625 405.125 396.280273438 414.650390625 391.859375 c 0
 427.02734375 386.11328125 443.75390625 380.532226562 461.462890625 374.623046875 c 0
 500.157226562 361.711914062 548.311523438 345.643554688 592.20703125 314.693359375 c 0
 617.185546875 297.081054688 638.66015625 276.051757812 656.032226562 252.19140625 c 0
 675.614257812 225.293945312 690.66796875 193.904296875 700.7734375 158.888671875 c 0
EndSplineSet
EndChar

StartChar: percent
Encoding: 37 37 4
Width: 1000
Flags: H
LayerCount: 2
Fore
SplineSet
690.765625 719.0703125 m 0
 708.420898438 701.12109375 711.633789062 673.473632812 698.565429688 651.953125 c 0
 561.294921875 425.91796875 468.184570312 222.87890625 421.822265625 48.4755859375 c 0
 415.27734375 23.8564453125 393.028320312 7.5947265625 368.703125 7.5927734375 c 0
 364.024414062 7.5927734375 359.272460938 8.193359375 354.537109375 9.4521484375 c 0
 325.180664062 17.2568359375 307.709960938 47.380859375 315.513671875 76.736328125 c 0
 357.901367188 236.185546875 436.241210938 416.651367188 548.813476562 614.36328125 c 1
 531.790039062 616.521484375 514.859375 619.771484375 498.4765625 623.48046875 c 1
 498.564453125 621.129882812 498.59765625 618.790039062 498.578125 616.465820312 c 0
 498.361328125 590.657226562 491.625 567.208984375 479.098632812 548.659179688 c 0
 461.262695312 522.244140625 432.513671875 507.094726562 400.224609375 507.094726562 c 0
 367.528320312 507.094726562 336.96875 522.400390625 316.383789062 549.086914062 c 0
 299.370117188 571.143554688 290 599.448242188 290 628.784179688 c 0
 290 657.11328125 296.775390625 685.09765625 309.077148438 707.58203125 c 0
 327.302734375 740.89453125 356.623046875 760 389.517578125 760 c 0
 411.877929688 760 438.333007812 752.84375 471.827148438 743.783203125 c 0
 501.540039062 735.74609375 535.217773438 726.635742188 565.739257812 723.051757812 c 0
 601.696289062 718.831054688 617.543945312 724.325195312 623.786132812 727.9765625 c 0
 645.51953125 740.688476562 673.109375 737.01953125 690.765625 719.0703125 c 0
663.96484375 185.686523438 m 1
 666.198242188 181.365234375 668.33203125 176.75 670.346679688 171.817382812 c 0
 679.610351562 149.146484375 685.139648438 122.056640625 685.139648438 99.353515625 c 0
 685.139648438 66.6298828125 675.77734375 32.3818359375 659.450195312 5.3896484375 c 0
 636.23828125 -32.9892578125 599.673828125 -55 559.137695312 -55 c 0
 522.955078125 -55 491.208984375 -37.0263671875 472.041992188 -5.6865234375 c 0
 457.40625 18.240234375 449.985351562 49.71875 449.985351562 87.875 c 0
 449.985351562 128.852539062 462.297851562 168.315429688 484.655273438 198.9921875 c 0
 504.635742188 226.408203125 542.680664062 260.693359375 610.45703125 268.33203125 c 0
 640.641601562 271.736328125 667.869140625 250.0234375 671.271484375 219.837890625 c 0
 672.663085938 207.482421875 669.846679688 195.622070312 663.96484375 185.686523438 c 1
568.16796875 67.712890625 m 0
 572.534179688 77.201171875 575.140625 89.029296875 575.139648438 99.35546875 c 0
 575.139648438 103.103515625 574.213867188 113.108398438 570.708984375 124.138671875 c 0
 570.299804688 125.422851562 569.887695312 126.625976562 569.474609375 127.75 c 1
 563.387695312 116.608398438 559.983398438 102.4921875 559.983398438 87.875 c 0
 559.983398438 74.267578125 561.483398438 64.8818359375 563.069335938 58.98046875 c 1
 564.592773438 60.984375 566.377929688 63.822265625 568.16796875 67.712890625 c 0
EndSplineSet
EndChar

StartChar: ampersand
Encoding: 38 38 5
Width: 1000
Flags: H
LayerCount: 2
Fore
SplineSet
685.793945312 169.374023438 m 0
 710.961914062 152.3671875 717.578125 118.176757812 700.5703125 93.009765625 c 0
 687.505859375 73.677734375 667.807617188 55.642578125 642.0234375 39.408203125 c 0
 619.875976562 25.462890625 593.616210938 13.2099609375 566.080078125 3.9716796875 c 0
 551.5234375 -0.9111328125 536.662109375 -4.9208984375 521.926757812 -7.978515625 c 1
 539.494140625 -14.4658203125 553.306640625 -29.755859375 556.991210938 -49.5029296875 c 0
 566.001953125 -97.8037109375 566.001953125 -146.78515625 556.991210938 -195.0859375 c 0
 552.055664062 -221.536132812 528.952148438 -240.008789062 502.986328125 -240.008789062 c 0
 499.638671875 -240.008789062 496.247070312 -239.703125 492.836914062 -239.067382812 c 0
 462.9765625 -233.49609375 443.286132812 -204.7734375 448.857421875 -174.913085938 c 0
 455.37109375 -139.999023438 455.37109375 -104.592773438 448.857421875 -69.677734375 c 0
 444.786132812 -47.857421875 454.21484375 -26.65625 471.234375 -14.640625 c 1
 466.39453125 -14.8857421875 461.615234375 -15.0244140625 456.916015625 -15.0244140625 c 0
 433.764648438 -15.0244140625 412.348632812 -12.048828125 393.013671875 -6.1279296875 c 0
 327.546875 13.9169921875 290 66.1904296875 290 137.288085938 c 0
 290 191.36328125 320.200195312 242.07421875 375.360351562 281.157226562 c 1
 372.579101562 282.588867188 369.887695312 284.056640625 367.290039062 285.557617188 c 0
 349.74609375 295.696289062 335.622070312 307.802734375 325.309570312 321.541992188 c 0
 311.776367188 339.57421875 304.623046875 360.7265625 304.623046875 382.713867188 c 0
 304.623046875 408.815429688 314.6953125 436.33984375 334.557617188 464.522460938 c 0
 350.55859375 487.223632812 372.203125 509.147460938 397.149414062 527.918945312 c 0
 421.326171875 546.112304688 447.592773438 560.516601562 473.799804688 570.03515625 c 1
 447.858398438 574.858398438 428.431640625 597.828125 428.923828125 625.084960938 c 0
 429.1796875 639.244140625 422.91796875 654.344726562 409.779296875 671.251953125 c 0
 391.139648438 695.236328125 395.47265625 729.790039062 419.458007812 748.428710938 c 0
 443.443359375 767.068359375 477.997070312 762.734375 496.634765625 738.75 c 0
 525.401367188 701.733398438 539.624023438 662.823242188 538.90625 623.09765625 c 0
 538.602539062 606.309570312 530.802734375 591.419921875 518.76171875 581.546875 c 1
 544.625976562 585.33203125 569.401367188 583.875976562 592.73046875 577.153320312 c 0
 621.916992188 568.741210938 638.759765625 538.260742188 630.348632812 509.073242188 c 0
 621.936523438 479.884765625 591.455078125 463.041992188 562.268554688 471.454101562 c 0
 539.73828125 477.947265625 506.936523438 469.1484375 474.5234375 447.918945312 c 0
 438.677734375 424.444335938 419.8203125 396.932617188 415.50390625 385.314453125 c 1
 422.956054688 379.04296875 446.731445312 366.551757812 499.850585938 357.911132812 c 0
 544.251953125 350.688476562 585.102539062 350.060546875 585.509765625 350.055664062 c 0
 614.864257812 349.66015625 638.75390625 326.280273438 639.7578125 296.940429688 c 0
 640.760742188 267.599609375 618.56640625 242.643554688 589.306640625 240.245117188 c 0
 534.603515625 235.7578125 482.1640625 219.552734375 445.432617188 195.78515625 c 0
 416.559570312 177.1015625 400 155.78125 400 137.288085938 c 0
 400 111.766601562 409.247070312 103.942382812 425.21875 99.0517578125 c 0
 450.513671875 91.3046875 491.08203125 94.833984375 531.09375 108.258789062 c 0
 571.015625 121.653320312 600.719726562 141.708007812 609.428710938 154.596679688 c 0
 626.435546875 179.765625 660.625 186.381835938 685.793945312 169.374023438 c 0
EndSplineSet
EndChar

StartChar: quotesingle
Encoding: 39 39 6
Width: 1000
Flags: H
LayerCount: 2
Fore
SplineSet
572.7734375 558.305664062 m 0
 574.447265625 527.975585938 551.217773438 502.032226562 520.88671875 500.358398438 c 0
 519.856445312 500.30078125 518.829101562 500.2734375 517.807617188 500.2734375 c 0
 488.819335938 500.2734375 464.556640625 522.946289062 462.940429688 552.244140625 c 0
 459.833984375 608.530273438 450.500976562 649.559570312 434.407226562 677.6796875 c 0
 419.319335938 704.043945312 428.458984375 737.647460938 454.822265625 752.735351562 c 0
 481.18359375 767.825195312 514.787109375 758.68359375 529.876953125 732.3203125 c 0
 554.669921875 688.999023438 568.702148438 632.079101562 572.7734375 558.305664062 c 0
EndSplineSet
EndChar

StartChar: parenleft
Encoding: 40 40 7
Width: 1000
Flags: H
LayerCount: 2
Fore
SplineSet
701.30078125 734.684570312 m 0
 717.6953125 709.114257812 710.256835938 675.09375 684.682617188 658.698242188 c 0
 576.809570312 589.538085938 490.219726562 478.25390625 440.862304688 345.346679688 c 0
 418.541015625 285.243164062 404.775390625 222.142578125 401.051757812 162.869140625 c 0
 397.423828125 105.10546875 403.311523438 50.9326171875 418.081054688 6.2080078125 c 0
 433.2578125 -39.75390625 456.959960938 -74.701171875 488.52734375 -97.662109375 c 0
 522.227539062 -122.171875 565.326171875 -132.838867188 616.625976562 -129.353515625 c 0
 646.919921875 -127.301757812 673.166992188 -150.198242188 675.223632812 -180.50390625 c 0
 677.28125 -210.809570312 654.380859375 -237.044921875 624.07421875 -239.1015625 c 0
 615.125 -239.708984375 606.301757812 -240.01171875 597.629882812 -240.012695312 c 0
 530.969726562 -240.013671875 472.610351562 -222.1015625 423.82421875 -186.618164062 c 0
 398.0078125 -167.83984375 375.350585938 -144.265625 356.483398438 -116.549804688 c 0
 338.821289062 -90.6064453125 324.404296875 -60.9091796875 313.629882812 -28.2822265625 c 0
 275.0859375 88.4453125 283.875 238.586914062 337.745117188 383.642578125 c 0
 395.356445312 538.775390625 497.484375 669.344726562 625.314453125 751.30078125 c 0
 650.88671875 767.696289062 684.905273438 760.256835938 701.30078125 734.684570312 c 0
EndSplineSet
EndChar

StartChar: parenright
Encoding: 41 41 8
Width: 1000
Flags: H
LayerCount: 2
Fore
SplineSet
709.958984375 266.171875 m 0
 711.216796875 168.634765625 682.84765625 70.7431640625 627.91796875 -16.9189453125 c 0
 573.0859375 -104.426757812 493.232421875 -179.14453125 396.98828125 -232.99609375 c 0
 388.490234375 -237.750976562 379.2734375 -240.008789062 370.181640625 -240.008789062 c 0
 350.913085938 -240.008789062 332.211914062 -229.8671875 322.133789062 -211.85546875 c 0
 307.301757812 -185.346679688 316.767578125 -151.833984375 343.276367188 -137.001953125 c 0
 423.454101562 -92.1396484375 489.6484375 -30.419921875 534.705078125 41.4873046875 c 0
 578.384765625 111.197265625 600.952148438 188.40234375 599.967773438 264.754882812 c 0
 599.012695312 338.791015625 576.640625 409.02734375 533.469726562 473.512695312 c 0
 485.344726562 545.3984375 413.318359375 606.90625 319.389648438 656.326171875 c 0
 292.5078125 670.469726562 282.181640625 703.727539062 296.326171875 730.610351562 c 0
 310.469726562 757.491210938 343.728515625 767.817382812 370.610351562 753.673828125 c 0
 480.912109375 695.637695312 566.459960938 621.966796875 624.877929688 534.706054688 c 0
 652.565429688 493.349609375 673.850585938 449.143554688 688.14453125 403.31640625 c 0
 702.021484375 358.831054688 709.360351562 312.690429688 709.958984375 266.171875 c 0
EndSplineSet
EndChar

StartChar: asterisk
Encoding: 42 42 9
Width: 1000
Flags: H
LayerCount: 2
Fore
SplineSet
664.5390625 374.439453125 m 0
 694.454101562 369.170898438 714.434570312 340.649414062 709.166992188 310.733398438 c 0
 704.465820312 284.045898438 681.255859375 265.262695312 655.064453125 265.262695312 c 0
 651.896484375 265.262695312 648.689453125 265.538085938 645.459960938 266.106445312 c 0
 638.048828125 267.411132812 627.67578125 268.543945312 614.995117188 269.53515625 c 1
 621.547851562 259.487304688 628.103515625 249.438476562 634.64453125 239.467773438 c 0
 651.305664062 214.0703125 644.22265625 179.97265625 618.825195312 163.311523438 c 0
 609.525390625 157.2109375 599.057617188 154.293945312 588.708984375 154.293945312 c 0
 570.79296875 154.293945312 553.23046875 163.033203125 542.668945312 179.131835938 c 0
 535.118164062 190.643554688 527.541992188 202.258789062 519.977539062 213.861328125 c 0
 513.631835938 223.591796875 507.182617188 233.482421875 500.684570312 243.399414062 c 1
 488.061523438 225.313476562 475.85546875 208.413085938 464.482421875 193.72265625 c 0
 453.643554688 179.724609375 437.384765625 172.389648438 420.953125 172.389648438 c 0
 409.192382812 172.389648438 397.342773438 176.146484375 387.323242188 183.903320312 c 0
 363.303710938 202.499023438 358.908203125 237.043945312 377.502929688 261.063476562 c 0
 381.279296875 265.94140625 385.196289062 271.1484375 389.224609375 276.6171875 c 1
 381.927734375 276.736328125 374.665039062 276.8515625 367.46484375 276.966796875 c 2
 344.107421875 277.341796875 l 2
 313.735351562 277.834960938 289.513671875 302.856445312 290.006835938 333.227539062 c 0
 290.49609375 363.29296875 315.025390625 387.334960938 344.982421875 387.334960938 c 0
 345.287109375 387.334960938 345.586914062 387.333007812 345.892578125 387.328125 c 2
 369.223632812 386.953125 l 2
 379.220703125 386.79296875 389.174804688 386.633789062 399.053710938 386.471679688 c 1
 389.641601562 397.442382812 380.981445312 406.329101562 373.365234375 412.421875 c 0
 349.646484375 431.397460938 345.799804688 466.0078125 364.776367188 489.727539062 c 0
 383.750976562 513.447265625 418.36328125 517.29296875 442.08203125 498.317382812 c 0
 460.028320312 483.959960938 479.138671875 463.05078125 499.157226562 437.71484375 c 1
 525.393554688 476.3828125 549.868164062 510.982421875 570.930664062 535.684570312 c 0
 590.639648438 558.798828125 625.35546875 561.55859375 648.467773438 541.850585938 c 0
 671.58203125 522.141601562 674.341796875 487.427734375 654.633789062 464.314453125 c 0
 637.845703125 444.625 616.41015625 414.443359375 593.680664062 381.0859375 c 1
 623.725585938 379.452148438 648.166015625 377.322265625 664.5390625 374.439453125 c 0
EndSplineSet
EndChar

StartChar: plus
Encoding: 43 43 10
Width: 1000
Flags: H
LayerCount: 2
Fore
SplineSet
655.961914062 418.099609375 m 0
 686.333007812 417.569335938 710.522460938 392.517578125 709.9921875 362.147460938 c 0
 709.465820312 332.103515625 684.947265625 308.109375 655.018554688 308.108398438 c 0
 654.693359375 308.108398438 654.3671875 308.111328125 654.0390625 308.1171875 c 0
 617.359375 308.758789062 576.856445312 307.1640625 536.067382812 304.305664062 c 1
 538.40234375 274.19921875 543.19140625 247.454101562 553.61328125 229.241210938 c 0
 568.700195312 202.875976562 559.557617188 169.274414062 533.194335938 154.186523438 c 0
 524.579101562 149.2578125 515.188476562 146.9140625 505.926757812 146.9140625 c 0
 486.84375 146.9140625 468.296875 156.856445312 458.139648438 174.606445312 c 0
 438.08984375 209.643554688 430.0078125 250.935546875 426.52734375 294.067382812 c 1
 400.045898438 291.052734375 374.947265625 287.856445312 352.419921875 284.7890625 c 0
 349.904296875 284.446289062 347.40234375 284.279296875 344.930664062 284.279296875 c 0
 317.849609375 284.279296875 294.2578125 304.28515625 290.502929688 331.866210938 c 0
 286.405273438 361.963867188 307.482421875 389.684570312 337.580078125 393.783203125 c 0
 363.361328125 397.29296875 392.407226562 400.965820312 423.13671875 404.369140625 c 1
 422.487304688 434.430664062 421.068359375 464.234375 416.455078125 490.477539062 c 0
 411.196289062 520.39453125 431.185546875 548.911132812 461.102539062 554.168945312 c 0
 491.018554688 559.427734375 519.536132812 539.438476562 524.793945312 509.521484375 c 0
 530.26953125 478.366210938 532.108398438 446.209960938 532.932617188 414.330078125 c 1
 575.211914062 417.200195312 617.353515625 418.775390625 655.961914062 418.099609375 c 0
EndSplineSet
EndChar

StartChar: comma
Encoding: 44 44 11
Width: 1000
Flags: H
LayerCount: 2
Fore
SplineSet
456.030273438 61.947265625 m 2
 434.052734375 -38.3271484375 l 2
 433.21875 -42.1318359375 432.779296875 -46.083984375 432.779296875 -50.1376953125 c 0
 432.779296875 -80.4931640625 457.423828125 -105.137695312 487.779296875 -105.137695312 c 0
 504.737304688 -105.137695312 519.913085938 -97.4462890625 530.005859375 -85.3642578125 c 0
 558.23046875 -51.5771484375 567.220703125 -12.1533203125 567.220703125 21.841796875 c 0
 567.220703125 35.0634765625 565.954101562 47.5498046875 564.006835938 59.2314453125 c 0
 559.66796875 85.265625 537.014648438 105.13671875 509.756835938 105.13671875 c 0
 483.455078125 105.13671875 461.44140625 86.634765625 456.030273438 61.947265625 c 2
EndSplineSet
EndChar

StartChar: hyphen
Encoding: 45 45 12
Width: 1000
Flags: H
LayerCount: 2
Fore
SplineSet
657.000976562 407.896484375 m 0
 687.356445312 406.791015625 711.069335938 381.287109375 709.963867188 350.930664062 c 0
 708.8828125 321.2578125 684.487304688 297.931640625 655.036132812 297.931640625 c 0
 654.359375 297.931640625 653.680664062 297.944335938 652.999023438 297.96875 c 0
 643.198242188 298.326171875 632.09375 298.765625 619.864257812 299.25 c 0
 552.671875 301.912109375 451.1328125 305.934570312 345.588867188 304.803710938 c 0
 315.221679688 304.4609375 290.328125 328.837890625 290.002929688 359.211914062 c 0
 289.677734375 389.5859375 314.037109375 414.47265625 344.411132812 414.797851562 c 0
 452.711914062 415.954101562 555.923828125 411.869140625 624.21875 409.1640625 c 0
 636.318359375 408.684570312 647.3046875 408.249023438 657.000976562 407.896484375 c 0
EndSplineSet
EndChar

StartChar: period
Encoding: 46 46 13
Width: 1000
Flags: H
LayerCount: 2
Fore
SplineSet
498.84375 56.94140625 m 2
 494.74609375 57.9169921875 490.471679688 58.43359375 486.077148438 58.43359375 c 0
 455.721679688 58.43359375 431.077148438 33.7890625 431.077148438 3.43359375 c 0
 431.077148438 -22.52734375 449.102539062 -44.3115234375 473.310546875 -50.07421875 c 2
 502.15625 -56.94140625 l 2
 506.25390625 -57.9169921875 510.528320312 -58.43359375 514.922851562 -58.43359375 c 0
 545.278320312 -58.43359375 569.922851562 -33.7890625 569.922851562 -3.43359375 c 0
 569.922851562 22.52734375 551.897460938 44.3115234375 527.689453125 50.07421875 c 2
 498.84375 56.94140625 l 2
EndSplineSet
EndChar

StartChar: slash
Encoding: 47 47 14
Width: 1000
Flags: H
LayerCount: 2
Fore
SplineSet
668.688476562 758.26953125 m 0
 698.107421875 750.709960938 715.829101562 720.733398438 708.268554688 691.310546875 c 0
 681.069335938 585.446289062 613.412109375 453.244140625 547.982421875 325.393554688 c 0
 485.736328125 203.764648438 421.37109375 77.9951171875 398.333007812 -13.439453125 c 0
 392.048828125 -38.3828125 369.64453125 -55.013671875 345.041015625 -55.013671875 c 0
 340.591796875 -55.013671875 336.073242188 -54.470703125 331.563476562 -53.333984375 c 0
 302.107421875 -45.9130859375 284.24609375 -16.017578125 291.666992188 13.4365234375 c 0
 317.756835938 116.987304688 382.022460938 242.560546875 450.060546875 375.508789062 c 0
 512.750976562 498.004882812 577.575195312 624.670898438 601.731445312 718.686523438 c 0
 609.290039062 748.107421875 639.265625 765.83203125 668.688476562 758.26953125 c 0
EndSplineSet
EndChar

StartChar: zero
Encoding: 48 48 15
Width: 1000
Flags: H
LayerCount: 2
Fore
SplineSet
683.642578125 533.41796875 m 0
 701.908203125 484.650390625 711.22265625 426.450195312 709.872070312 369.541992188 c 0
 707.953125 288.661132812 680.647460938 200.649414062 634.958984375 128.075195312 c 0
 612.637695312 92.62109375 586.640625 62.5546875 559.780273438 41.12890625 c 0
 526.5078125 14.5888671875 492.2578125 0.859375 457.982421875 0.3212890625 c 0
 457.325195312 0.3095703125 456.66796875 0.3046875 456.012695312 0.3046875 c 0
 423.764648438 0.3046875 393.890625 12.79296875 369.5 36.4970703125 c 0
 340.086914062 65.0810546875 318.276367188 110.59375 304.671875 171.774414062 c 0
 292.204101562 227.846679688 290.271484375 279.548828125 290.018554688 299.174804688 c 0
 289.305664062 354.701171875 309.84765625 441.682617188 342.353515625 520.772460938 c 0
 359.209960938 561.784179688 378.416992188 598.389648438 397.897460938 626.6328125 c 0
 424.220703125 664.795898438 451.19140625 688.744140625 480.350585938 699.845703125 c 0
 508.7421875 710.65234375 540.512695312 696.401367188 551.321289062 668.013671875 c 0
 552.421875 665.122070312 553.26171875 662.197265625 553.85546875 659.260742188 c 0
 565.989257812 657.83984375 576.377929688 654.725585938 584.599609375 651.4140625 c 0
 626.860351562 634.38671875 661.108398438 593.584960938 683.642578125 533.41796875 c 0
599.903320312 372.149414062 m 0
 600.9140625 414.71875 593.888671875 459.436523438 580.630859375 494.834960938 c 0
 567.7421875 529.245117188 552.569335938 545.725585938 543.491210938 549.3828125 c 0
 535.20703125 552.715820312 518.1640625 542.138671875 500.076171875 522.419921875 c 0
 489.231445312 510.595703125 474.403320312 504.598632812 459.53125 504.59765625 c 0
 458.133789062 504.59765625 456.739257812 504.651367188 455.34375 504.756835938 c 0
 451.65625 496.794921875 447.897460938 488.203125 444.094726562 478.953125 c 0
 417.6171875 414.529296875 399.48828125 341.180664062 400.009765625 300.5859375 c 0
 400.172851562 287.940429688 401.521484375 243 412.049804688 195.6484375 c 0
 424.112304688 141.399414062 439.924804688 121.44140625 446.163085938 115.377929688 c 0
 451.461914062 110.228515625 454.345703125 110.283203125 456.252929688 110.303710938 c 0
 474.512695312 110.590820312 509.09375 134.61328125 541.870117188 186.67578125 c 0
 576.766601562 242.110351562 598.462890625 311.4453125 599.903320312 372.149414062 c 0
EndSplineSet
EndChar

StartChar: one
Encoding: 49 49 16
Width: 1000
Flags: H
LayerCount: 2
Fore
SplineSet
657.001953125 106.859375 m 0
 687.357421875 105.752929688 711.069335938 80.2490234375 709.963867188 49.8935546875 c 0
 708.858398438 19.537109375 683.329101562 -4.169921875 652.998046875 -3.068359375 c 0
 599.177734375 -1.107421875 473.756835938 -1.91015625 347.326171875 -7.26171875 c 0
 346.53515625 -7.294921875 345.744140625 -7.3115234375 344.959960938 -7.3115234375 c 0
 315.654296875 -7.3115234375 291.30078125 15.8056640625 290.049804688 45.3642578125 c 0
 288.764648438 75.7109375 312.326171875 101.35546875 342.674804688 102.639648438 c 0
 381.981445312 104.302734375 420.899414062 105.536132812 457.669921875 106.389648438 c 1
 467.747070312 274.650390625 483.388671875 443.2734375 500.510742188 570.806640625 c 1
 473.921875 561.921875 449.155273438 555.374023438 425.84765625 551.040039062 c 0
 395.98046875 545.485351562 367.2734375 565.1953125 361.719726562 595.057617188 c 0
 356.166015625 624.920898438 375.874023438 653.6328125 405.737304688 659.185546875 c 0
 444.9921875 666.486328125 491.04296875 682.258789062 546.522460938 707.405273438 c 0
 565.0859375 715.819335938 586.774414062 713.278320312 602.887695312 700.807617188 c 0
 619.00390625 688.336914062 626.903320312 667.9765625 623.416015625 647.900390625 c 0
 601.8046875 523.46484375 580.65625 316.3359375 567.9609375 107.901367188 c 1
 604.94140625 108.01171875 635.73046875 107.6328125 657.001953125 106.859375 c 0
EndSplineSet
EndChar

StartChar: two
Encoding: 50 50 17
Width: 1000
Flags: H
LayerCount: 2
Fore
SplineSet
709.301757812 80.59375 m 0
 714.127929688 50.603515625 693.728515625 22.3798828125 663.739257812 17.552734375 c 0
 595.640625 6.59375 536.37109375 1.0517578125 487.352539062 1.0517578125 c 0
 483.682617188 1.0517578125 480.078125 1.0830078125 476.524414062 1.14453125 c 0
 414.01171875 2.23828125 371.72265625 12.5927734375 343.438476562 33.7353515625 c 0
 324.795898438 47.6689453125 312.798828125 66.0390625 308.455078125 87.1728515625 c 0
 297.00390625 125.60546875 315.4765625 167.263671875 335.44921875 203.323242188 c 0
 355.443359375 239.420898438 384.053710938 281.455078125 417.181640625 330.124023438 c 0
 462.704101562 397.000976562 517.504882812 477.508789062 560.19140625 559.958007812 c 1
 544.357421875 564.291015625 523.241210938 568.5234375 495.404296875 571.575195312 c 0
 449.405273438 576.618164062 395.124023438 577.081054688 350.203125 572.810546875 c 0
 319.96484375 569.93359375 293.12109375 592.12109375 290.24609375 622.361328125 c 0
 287.373046875 652.600585938 309.556640625 679.444335938 339.795898438 682.318359375 c 0
 392.510742188 687.327148438 453.595703125 686.817382812 507.391601562 680.919921875 c 0
 579.1640625 673.05078125 632.837890625 656.337890625 666.921875 631.245117188 c 0
 687.755859375 615.90625 695.084960938 588.12109375 684.5234375 564.502929688 c 0
 636.15625 456.333007812 565.161132812 352.034179688 508.115234375 268.2265625 c 0
 480.66796875 227.904296875 456.963867188 193.080078125 439.510742188 163.661132812 c 0
 425.405273438 139.883789062 419.381835938 126.055664062 416.811523438 118.678710938 c 1
 426.006835938 115.690429688 444.845703125 111.610351562 479.927734375 111.10546875 c 0
 523.651367188 110.475585938 581.166015625 115.678710938 646.260742188 126.15625 c 0
 676.255859375 130.990234375 704.475585938 110.58203125 709.301757812 80.59375 c 0
EndSplineSet
EndChar

StartChar: three
Encoding: 51 51 18
Width: 1000
Flags: H
LayerCount: 2
Fore
SplineSet
698.682617188 244.44921875 m 0
 709.20703125 202.498046875 712.525390625 157.026367188 708.025390625 116.411132812 c 0
 702.786132812 69.119140625 676.254882812 32.638671875 633.318359375 13.6943359375 c 0
 609.591796875 3.2236328125 583.83984375 -0.572265625 558.974609375 -0.572265625 c 0
 531.33984375 -0.572265625 504.798828125 4.115234375 483.338867188 9.5400390625 c 0
 431.881835938 22.5458984375 379.328125 47.33984375 335.361328125 79.3525390625 c 0
 310.8046875 97.2333984375 305.392578125 131.6328125 323.272460938 156.190429688 c 0
 341.151367188 180.745117188 375.551757812 186.158203125 400.108398438 168.279296875 c 0
 432.517578125 144.680664062 472.6796875 125.693359375 510.295898438 116.184570312 c 0
 543.264648438 107.8515625 572.654296875 107.157226562 588.91015625 114.330078125 c 0
 594.998046875 117.015625 597.703125 119.58203125 598.692382812 128.521484375 c 0
 601.786132812 156.44921875 599.405273438 188.114257812 591.986328125 217.682617188 c 0
 584.056640625 249.2890625 571.02734375 276.1015625 554.303710938 295.223632812 c 0
 535.30859375 316.9453125 512.427734375 327.822265625 484.3515625 328.477539062 c 0
 462.639648438 328.985351562 443.259765625 342.220703125 434.887695312 362.259765625 c 0
 426.514648438 382.297851562 430.71875 405.387695312 445.6171875 421.19140625 c 0
 466.415039062 443.252929688 493.01953125 460.96484375 518.748046875 478.092773438 c 0
 543.975585938 494.887695312 570.063476562 512.254882812 582.508789062 528.9921875 c 0
 588.780273438 537.424804688 592.5390625 544.8359375 583.73046875 563.48828125 c 0
 574.333007812 583.388671875 562.727539062 588.985351562 553.666992188 591.63671875 c 0
 535.577148438 596.930664062 509.397460938 594.362304688 477.95703125 584.208007812 c 0
 446.813476562 574.150390625 410.943359375 556.66015625 374.22265625 533.627929688 c 0
 348.491210938 517.487304688 314.546875 525.262695312 298.40625 550.99609375 c 0
 282.265625 576.727539062 290.041992188 610.672851562 315.774414062 626.813476562 c 0
 360.719726562 655.004882812 403.912109375 675.887695312 444.15234375 688.883789062 c 0
 497.416015625 706.0859375 544.658203125 708.887695312 584.565429688 697.208007812 c 0
 628.342773438 684.396484375 662.450195312 654.3984375 683.200195312 610.45703125 c 0
 707.838867188 558.280273438 703.544921875 507.412109375 670.78125 463.3515625 c 0
 652.014648438 438.116210938 626.858398438 418.65234375 600.884765625 400.782226562 c 1
 613.8828125 391.408203125 626.002929688 380.337890625 637.111328125 367.635742188 c 0
 665.244140625 335.465820312 686.536132812 292.869140625 698.682617188 244.44921875 c 0
EndSplineSet
EndChar

StartChar: four
Encoding: 52 52 19
Width: 1000
Flags: H
LayerCount: 2
Fore
SplineSet
709.36328125 63.64453125 m 0
 713.970703125 33.6201171875 693.366210938 5.5458984375 663.33984375 0.94140625 c 0
 660.513671875 0.5068359375 657.703125 0.2958984375 654.9296875 0.2958984375 c 0
 628.237304688 0.2958984375 604.807617188 19.763671875 600.633789062 46.9619140625 c 0
 586.90625 136.431640625 588.513671875 244.7890625 591.896484375 346.053710938 c 1
 565.251953125 338.607421875 538.727539062 333.267578125 519.560546875 330.2734375 c 0
 492.71875 326.078125 468.133789062 323.984375 445.8671875 323.984375 c 0
 389.473632812 323.982421875 347.89453125 337.40625 321.791992188 364.138671875 c 0
 287.8515625 398.899414062 280.842773438 459.024414062 302.056640625 533.44140625 c 0
 319.286132812 593.876953125 351.763671875 651.83203125 388.934570312 688.470703125 c 0
 410.569335938 709.793945312 445.391601562 709.54296875 466.71484375 687.91015625 c 0
 488.038085938 666.276367188 487.787109375 631.453125 466.154296875 610.129882812 c 0
 444.54296875 588.828125 423.306640625 551.518554688 410.733398438 512.76171875 c 0
 398.173828125 474.051757812 398.897460938 448.83984375 401.497070312 440.524414062 c 1
 409.6484375 436.294921875 439.888671875 429.227539062 502.047851562 438.870117188 c 0
 541.848632812 445.044921875 576.57421875 455.411132812 595.96484375 463.08203125 c 1
 598.034179688 533.596679688 598.21484375 596.919921875 590.884765625 640.096679688 c 0
 585.801757812 670.043945312 605.958007812 698.443359375 635.905273438 703.526367188 c 0
 665.857421875 708.612304688 694.25 688.454101562 699.334960938 658.506835938 c 0
 710.874023438 590.530273438 707.313476562 493.322265625 703.541992188 390.405273438 c 0
 699.538085938 281.122070312 694.999023438 157.2578125 709.36328125 63.64453125 c 0
EndSplineSet
EndChar

StartChar: five
Encoding: 53 53 20
Width: 1000
Flags: H
LayerCount: 2
Fore
SplineSet
702.670898438 243.653320312 m 0
 702.84375 242.258789062 702.962890625 240.859375 703.032226562 239.456054688 c 0
 705.20703125 193.159179688 700.546875 152.791992188 689.181640625 119.4765625 c 0
 676.498046875 82.2978515625 655.493164062 53.0341796875 626.75 32.4990234375 c 0
 596.260742188 10.7177734375 558.325195312 -0.2822265625 513.8203125 -0.283203125 c 0
 508.708007812 -0.283203125 503.514648438 -0.1376953125 498.231445312 0.15234375 c 0
 454.66015625 2.546875 404.005859375 15.072265625 347.674804688 37.380859375 c 0
 335.33203125 42.267578125 325.173828125 51.4560546875 319.07421875 63.2470703125 c 0
 305.916015625 88.68359375 304.021484375 116.311523438 304.748046875 135.010742188 c 0
 305.734375 160.375976562 312.225585938 185.0078125 323.030273438 204.3671875 c 0
 337.833007812 230.892578125 371.333984375 240.397460938 397.860351562 225.592773438 c 0
 424.384765625 210.791015625 433.887695312 177.2890625 419.0859375 150.763671875 c 0
 416.163085938 145.526367188 414.791992188 137.34765625 414.610351562 129.841796875 c 1
 448.81640625 118.047851562 478.88671875 111.381835938 504.266601562 109.987304688 c 0
 529.978515625 108.569335938 549.6640625 112.618164062 562.803710938 122.004882812 c 0
 578.360351562 133.119140625 596.171875 161.236328125 593.251953125 232.00390625 c 1
 579.7265625 324.748046875 426.381835938 364.465820312 335.752929688 379.922851562 c 0
 321.173828125 382.41015625 308.2109375 390.662109375 299.7890625 402.819335938 c 0
 291.3671875 414.975585938 288.196289062 430.012695312 290.991210938 444.53515625 c 0
 298.819335938 485.20703125 315.369140625 529.708007812 340.388671875 577.552734375 c 1
 318.517578125 582.341796875 300.909179688 600.286132812 297.666015625 623.7578125 c 0
 293.508789062 653.84765625 314.53125 681.611328125 344.62109375 685.767578125 c 0
 447.59375 699.995117188 540.37109375 715.056640625 633.034179688 755.422851562 c 0
 660.885742188 767.556640625 693.291992188 754.813476562 705.423828125 726.96484375 c 0
 717.555664062 699.1171875 704.815429688 666.70703125 676.966796875 654.576171875 c 0
 610.327148438 625.545898438 545.633789062 608.29296875 478.999023438 595.647460938 c 1
 450.482421875 552.557617188 428.799804688 512.220703125 414.712890625 476.197265625 c 1
 482.276367188 460.357421875 538.603515625 438.876953125 582.698242188 412.092773438 c 0
 615.919921875 391.912109375 642.790039062 368.333007812 662.559570312 342.008789062 c 0
 684.737304688 312.481445312 698.233398438 279.388671875 702.670898438 243.653320312 c 0
EndSplineSet
EndChar

StartChar: six
Encoding: 54 54 21
Width: 1000
Flags: H
LayerCount: 2
Fore
SplineSet
708.502929688 303.314453125 m 0
 712.630859375 261.48828125 708.223632812 216.426757812 695.756835938 173.000976562 c 0
 683.12890625 129.010742188 663.125976562 89.853515625 637.913085938 59.7646484375 c 0
 605.790039062 21.4296875 566.61328125 -0.556640625 524.616210938 -3.818359375 c 0
 523.200195312 -3.927734375 521.779296875 -3.9833984375 520.359375 -3.9833984375 c 0
 520.09765625 -3.9833984375 519.837890625 -3.9814453125 519.577148438 -3.9765625 c 0
 484.309570312 -3.4765625 451.709960938 6.162109375 422.685546875 24.671875 c 0
 394.11328125 42.8935546875 369.694335938 69.427734375 350.109375 103.536132812 c 0
 312.936523438 168.268554688 292.71875 261.388671875 290.013671875 380.311523438 c 0
 290.001953125 380.841796875 289.998046875 381.372070312 290.000976562 381.90234375 c 0
 290.5 462.686523438 305.069335938 538.697265625 332.133789062 601.715820312 c 0
 360.407226562 667.547851562 402.240234375 719.33984375 453.108398438 751.4921875 c 0
 478.784179688 767.720703125 512.756835938 760.063476562 528.985351562 734.384765625 c 0
 545.21484375 708.708007812 537.555664062 674.737304688 511.87890625 658.5078125 c 0
 479.876953125 638.28125 452.671875 603.631835938 433.20703125 558.307617188 c 0
 411.974609375 508.87109375 400.498046875 447.922851562 400.00390625 382.0078125 c 0
 400.791015625 348.565429688 403.370117188 309.11328125 409.774414062 270.465820312 c 1
 420.301757812 300.079101562 434.306640625 327.609375 451.315429688 351.694335938 c 0
 488.3359375 404.118164062 536.319335938 435.196289062 582.961914062 436.958984375 c 0
 616.077148438 438.217773438 646.659179688 424.830078125 669.115234375 399.28515625 c 0
 688.776367188 376.920898438 701.889648438 345.706054688 708.092773438 306.5078125 c 0
 708.260742188 305.448242188 708.3984375 304.3828125 708.502929688 303.314453125 c 0
553.600585938 130.4140625 m 0
 585.140625 168.0546875 604.186523438 235.2890625 599.186523438 290.90234375 c 0
 595.393554688 313.55078125 589.087890625 324.008789062 586.256835938 326.965820312 c 0
 581.073242188 326.176757812 563.598632812 318.9609375 542.904296875 290.65625 c 0
 528.530273438 270.99609375 503.612304688 228.166992188 498.231445312 162.206054688 c 0
 496.860351562 145.399414062 488.06640625 130.973632812 475.3359375 121.889648438 c 1
 486.498046875 113.254882812 500.493164062 106.9609375 518.2109375 106.1015625 c 0
 525.513671875 107.259765625 538.319335938 112.176757812 553.600585938 130.4140625 c 0
EndSplineSet
EndChar

StartChar: seven
Encoding: 55 55 22
Width: 1000
Flags: H
LayerCount: 2
Fore
SplineSet
659.674804688 385.745117188 m 0
 689.940429688 383.163085938 712.3828125 356.53515625 709.802734375 326.267578125 c 0
 707.220703125 296.000976562 680.58203125 273.555664062 650.327148438 276.141601562 c 0
 619.708984375 278.75390625 577.80078125 278.970703125 533.771484375 277.552734375 c 1
 487.114257812 178.865234375 452.696289062 91.7783203125 441.375976562 42.8935546875 c 0
 435.489257812 17.4775390625 412.860351562 0.29296875 387.841796875 0.2900390625 c 0
 383.731445312 0.2900390625 379.560546875 0.75390625 375.384765625 1.720703125 c 0
 345.79296875 8.57421875 327.359375 38.119140625 334.211914062 67.7109375 c 0
 347.595703125 125.5078125 377.798828125 200.821289062 408.772460938 269.5703125 c 1
 388.018554688 267.541015625 369.100585938 265.264648438 353.348632812 262.845703125 c 0
 350.521484375 262.412109375 347.708007812 262.201171875 344.932617188 262.201171875 c 0
 318.2421875 262.201171875 294.814453125 281.665039062 290.637695312 308.861328125 c 0
 286.028320312 338.883789062 306.62890625 366.9609375 336.653320312 371.571289062 c 0
 370.1015625 376.70703125 415.592773438 381.200195312 463.517578125 384.243164062 c 1
 494.173828125 445.293945312 527.421875 506.974609375 559.396484375 562.245117188 c 1
 478.928710938 566.393554688 379.90234375 575.790039062 325.139648438 596.995117188 c 0
 296.814453125 607.962890625 282.7421875 639.818359375 293.7109375 668.143554688 c 0
 304.678710938 696.469726562 336.534179688 710.540039062 364.860351562 699.573242188 c 0
 407.888671875 682.911132812 522.06640625 670.98046875 655.741210938 669.177734375 c 0
 675.670898438 668.909179688 693.896484375 657.87890625 703.377929688 640.34765625 c 0
 712.860351562 622.817382812 712.116210938 601.52734375 701.431640625 584.701171875 c 0
 662.405273438 523.237304688 623.922851562 455.389648438 588.912109375 388.359375 c 1
 615.215820312 388.28515625 639.456054688 387.469726562 659.674804688 385.745117188 c 0
EndSplineSet
EndChar

StartChar: eight
Encoding: 56 56 23
Width: 1000
Flags: H
LayerCount: 2
Fore
SplineSet
640.131835938 349.936523438 m 0
 688.577148438 293.72265625 710.125976562 246.418945312 710 196.557617188 c 0
 709.999023438 196.31640625 709.997070312 196.076171875 709.993164062 195.834960938 c 0
 709.163085938 142.865234375 687.30078125 92.453125 648.432617188 53.8896484375 c 0
 610.98828125 16.73828125 560.993164062 -5.1337890625 511.266601562 -6.115234375 c 0
 510.90625 -6.1220703125 510.54296875 -6.1259765625 510.181640625 -6.1259765625 c 0
 509.736328125 -6.1259765625 509.290039062 -6.1201171875 508.844726562 -6.109375 c 0
 430.666015625 -4.208984375 363.366210938 23.5166015625 324.201171875 69.95703125 c 0
 297.6640625 101.424804688 285.984375 139.77734375 291.241210938 178.07421875 c 0
 295.663085938 218.12890625 311.890625 253.829101562 340.829101562 287.174804688 c 0
 364.067382812 313.953125 392.673828125 336.303710938 422.959960938 359.966796875 c 0
 431.62109375 366.734375 440.465820312 373.64453125 449.3515625 380.793945312 c 1
 412.522460938 412.00390625 368.619140625 446.845703125 317.263671875 485.651367188 c 0
 293.029296875 503.962890625 288.227539062 538.455078125 306.540039062 562.690429688 c 0
 308.243164062 564.944335938 310.087890625 567.03125 312.049804688 568.946289062 c 0
 309.610351562 571.743164062 307.416992188 574.83203125 305.526367188 578.194335938 c 0
 290.634765625 604.668945312 300.025390625 638.203125 326.5 653.09375 c 0
 420.162109375 705.77734375 516.131835938 719.575195312 589.799804688 690.951171875 c 0
 639.344726562 671.700195312 675.463867188 634.190429688 691.50390625 585.33203125 c 0
 701.533203125 554.786132812 703.810546875 524.959960938 698.276367188 496.685546875 c 0
 693.130859375 470.405273438 681.584960938 445.733398438 662.977539062 421.260742188 c 0
 650.548828125 404.915039062 635.538085938 389.451171875 618.251953125 374.0390625 c 1
 626.13671875 365.75 633.41796875 357.727539062 640.131835938 349.936523438 c 0
394.80859375 564.903320312 m 1
 451.217773438 522.016601562 498.451171875 484.059570312 537.697265625 449.995117188 c 1
 589.12109375 493.836914062 597.95703125 517.619140625 586.991210938 551.018554688 c 0
 581.165039062 568.765625 569.051757812 580.999023438 549.958984375 588.41796875 c 0
 531.20703125 595.705078125 507.17578125 597.481445312 480.467773438 593.55078125 c 0
 453.48046875 589.581054688 424.134765625 579.744140625 394.80859375 564.903320312 c 1
570.958007812 131.9765625 m 0
 589.231445312 150.106445312 599.537109375 173.26953125 600.000976562 197.233398438 c 0
 600.013671875 206.030273438 599.41796875 228.680664062 556.805664062 278.125976562 c 0
 549.3046875 286.830078125 540.817382812 296.013671875 531.310546875 305.704101562 c 1
 517.31640625 294.095703125 503.799804688 283.53515625 490.685546875 273.2890625 c 0
 434.248046875 229.192382812 404.607421875 204.373046875 400.526367188 165.532226562 c 0
 400.448242188 164.791992188 400.35546875 164.052734375 400.248046875 163.317382812 c 0
 399.849609375 160.59765625 398.638671875 152.319335938 408.291015625 140.873046875 c 0
 422.53515625 123.982421875 456.750976562 105.481445312 510.197265625 103.893554688 c 0
 531.594726562 104.639648438 553.6796875 114.833007812 570.958007812 131.9765625 c 0
EndSplineSet
EndChar

StartChar: nine
Encoding: 57 57 24
Width: 1000
Flags: H
LayerCount: 2
Fore
SplineSet
705.333984375 548.579101562 m 0
 724.912109375 443.392578125 676.014648438 84.4560546875 670.373046875 43.8740234375 c 0
 666.548828125 16.3564453125 642.981445312 -3.5595703125 615.965820312 -3.5615234375 c 0
 613.443359375 -3.5615234375 610.893554688 -3.388671875 608.325195312 -3.0322265625 c 0
 578.239257812 1.150390625 557.239257812 28.9287109375 561.419921875 59.015625 c 0
 576.250976562 165.720703125 587.506835938 268.985351562 593.94140625 352.380859375 c 1
 511.8046875 332.801757812 449.163085938 331.93359375 393.180664062 349.251953125 c 0
 392.318359375 349.518554688 391.461914062 349.807617188 390.61328125 350.1171875 c 0
 347.916992188 365.66796875 318.37890625 392.486328125 302.8203125 429.82421875 c 0
 290.384765625 459.665039062 289.713867188 489.219726562 290.060546875 514.580078125 c 0
 290.60546875 557.872070312 312.322265625 603.584960938 349.642578125 639.936523438 c 0
 370.403320312 660.159179688 394.499023438 676.146484375 421.259765625 687.456054688 c 0
 450.739257812 699.9140625 481.9765625 706.013671875 514.110351562 705.565429688 c 0
 515.240234375 705.549804688 516.369140625 705.499023438 517.49609375 705.4140625 c 0
 577.995117188 700.845703125 623.0859375 682.373046875 655.344726562 648.939453125 c 0
 683.943359375 619.297851562 696.203125 583.61328125 704.424804688 552.615234375 c 0
 704.778320312 551.282226562 705.08203125 549.934570312 705.333984375 548.579101562 c 0
599.928710938 466.392578125 m 0
 600.36328125 493.256835938 599.600585938 513.88671875 597.513671875 526.608398438 c 0
 592.1015625 546.596679688 586.288085938 562.090820312 576.18359375 572.563476562 c 0
 563.91015625 585.284179688 541.9765625 593.02734375 510.971679688 595.588867188 c 0
 510.9296875 595.588867188 510.888671875 595.588867188 510.846679688 595.588867188 c 0
 468.190429688 595.588867188 439.682617188 574.083007812 426.396484375 561.140625 c 0
 408.39453125 543.607421875 400.1953125 524.3984375 400.052734375 513.138671875 c 0
 399.497070312 472.506835938 403.813476562 462.661132812 427.016601562 453.935546875 c 0
 454.170898438 445.764648438 497.299804688 439.96484375 588.9609375 464.59765625 c 0
 592.6171875 465.580078125 596.291015625 466.169921875 599.928710938 466.392578125 c 0
EndSplineSet
EndChar

StartChar: colon
Encoding: 58 58 25
Width: 1000
Flags: H
LayerCount: 2
Fore
SplineSet
475.305664062 383.23046875 m 0
 451.6015625 383.23046875 429.721679688 398.674804688 422.614257812 422.5546875 c 0
 413.94921875 451.66796875 430.525390625 482.293945312 459.638671875 490.958984375 c 2
 480.46875 497.159179688 l 2
 509.580078125 505.823242188 540.208007812 489.248046875 548.873046875 460.133789062 c 0
 557.538085938 431.021484375 540.961914062 400.396484375 511.848632812 391.73046875 c 2
 491.017578125 385.530273438 l 2
 485.78515625 383.971679688 480.500976562 383.23046875 475.305664062 383.23046875 c 0
577.564453125 24.7392578125 m 0
 585.889648438 -4.4736328125 568.95703125 -34.904296875 539.745117188 -43.228515625 c 2
 505.830078125 -52.8935546875 l 2
 500.791992188 -54.3291015625 495.717773438 -55.013671875 490.727539062 -55.013671875 c 0
 466.779296875 -55.013671875 444.751953125 -39.25 437.862304688 -15.0751953125 c 0
 429.536132812 14.1376953125 446.46875 44.5693359375 475.681640625 52.892578125 c 2
 509.595703125 62.5576171875 l 2
 538.809570312 70.8857421875 569.240234375 53.9501953125 577.564453125 24.7392578125 c 0
EndSplineSet
EndChar

StartChar: semicolon
Encoding: 59 59 26
Width: 1000
Flags: H
LayerCount: 2
Fore
SplineSet
497.078125 81.900390625 m 0
 526.899414062 87.6787109375 555.760742188 68.203125 561.547851562 38.3837890625 c 0
 574.568359375 -28.7138671875 548.864257812 -72.0419921875 525.008789062 -96.5751953125 c 0
 514.225585938 -107.663085938 499.905273438 -113.232421875 485.572265625 -113.232421875 c 0
 471.75390625 -113.232421875 457.922851562 -108.057617188 447.234375 -97.6640625 c 0
 425.45703125 -76.4892578125 424.96875 -41.6669921875 446.14453125 -19.8896484375 c 0
 450.112304688 -15.810546875 458.365234375 -7.32421875 453.561523438 17.4296875 c 0
 447.776367188 47.25 467.258789062 76.1142578125 497.078125 81.900390625 c 0
485.509765625 384.715820312 m 0
 459.041992188 384.715820312 435.711914062 403.872070312 431.298828125 430.840820312 c 0
 426.392578125 460.818359375 446.717773438 489.095703125 476.6953125 494.000976562 c 2
 505.541015625 498.721679688 l 2
 535.513671875 503.627929688 563.794921875 483.302734375 568.701171875 453.326171875 c 0
 573.607421875 423.348632812 553.282226562 395.072265625 523.3046875 390.166015625 c 2
 494.458984375 385.446289062 l 2
 491.453125 384.954101562 488.459960938 384.715820312 485.509765625 384.715820312 c 0
EndSplineSet
EndChar

StartChar: less
Encoding: 60 60 27
Width: 1000
Flags: H
LayerCount: 2
Fore
SplineSet
674.403320312 51.4638671875 m 0
 702.826171875 40.7470703125 717.1796875 9.0185546875 706.46484375 -19.404296875 c 0
 698.158203125 -41.435546875 677.221679688 -55.013671875 654.9921875 -55.0146484375 c 0
 648.541992188 -55.015625 641.98828125 -53.873046875 635.596679688 -51.4638671875 c 0
 559.056640625 -22.6064453125 453.732421875 68.1943359375 304.1328125 234.287109375 c 0
 285.848632812 254.586914062 285.23828125 285.231445312 302.697265625 306.245117188 c 0
 384.3515625 404.521484375 458.0234375 475.619140625 549.033203125 543.9765625 c 0
 573.3203125 562.21875 607.798828125 557.319335938 626.041015625 533.03125 c 0
 644.284179688 508.744140625 639.3828125 474.265625 615.095703125 456.024414062 c 0
 541.794921875 400.966796875 482.592773438 345.92578125 418.298828125 272.356445312 c 1
 563.182617188 115.68359375 637.313476562 65.4482421875 674.403320312 51.4638671875 c 0
EndSplineSet
EndChar

StartChar: equal
Encoding: 61 61 28
Width: 1000
Flags: H
LayerCount: 2
Fore
SplineSet
350.666992188 387.458007812 m 0
 320.291992188 387.474609375 295.680664062 412.114257812 295.69921875 442.489257812 c 0
 295.715820312 472.853515625 320.337890625 497.458007812 350.698242188 497.458007812 c 0
 350.862304688 497.4609375 351.04296875 497.458007812 351.212890625 497.458007812 c 0
 417.541992188 497.458007812 616.618164062 505.094726562 642.731445312 510.212890625 c 0
 672.212890625 516.961914062 701.6484375 498.623046875 708.551757812 469.13671875 c 0
 715.475585938 439.560546875 697.114257812 409.971679688 667.538085938 403.046875 c 0
 660.552734375 401.412109375 641.998046875 397.068359375 514.30859375 391.893554688 c 0
 451.75 389.359375 381.748046875 387.458007812 351.080078125 387.458007812 c 0
 350.94140625 387.458007812 350.8046875 387.458007812 350.666992188 387.458007812 c 0
625.803710938 321.067382812 m 0
 655.063476562 329.220703125 685.39453125 312.107421875 693.545898438 282.84375 c 0
 701.697265625 253.58203125 684.584960938 223.252929688 655.323242188 215.1015625 c 0
 638.768554688 210.491210938 602.087890625 203.901367188 475.205078125 199.928710938 c 0
 407.809570312 197.8203125 345.905273438 197.474609375 345.288085938 197.471679688 c 0
 345.192382812 197.470703125 345.08984375 197.470703125 344.994140625 197.470703125 c 0
 314.750976562 197.470703125 290.16015625 221.904296875 290.000976562 252.181640625 c 0
 289.840820312 282.556640625 314.3359375 307.309570312 344.7109375 307.469726562 c 0
 345.31640625 307.473632812 405.989257812 307.813476562 471.981445312 309.881835938 c 0
 593.892578125 313.704101562 621.505859375 319.870117188 625.803710938 321.067382812 c 0
EndSplineSet
EndChar

StartChar: greater
Encoding: 62 62 29
Width: 1000
Flags: H
LayerCount: 2
Fore
SplineSet
686.676757812 355.287109375 m 0
 710.516601562 338.491210938 717.102539062 306.008789062 701.69140625 281.254882812 c 0
 672.857421875 234.947265625 639.23046875 195.666015625 603.627929688 154.077148438 c 0
 558.500976562 101.362304688 511.836914062 46.8525390625 473.068359375 -25.87109375 c 0
 463.171875 -44.43359375 444.149414062 -55.0068359375 424.486328125 -55.0087890625 c 0
 415.754882812 -55.009765625 406.90234375 -52.92578125 398.66015625 -48.5322265625 c 0
 371.85546875 -34.2431640625 361.708984375 -0.9296875 375.999023438 25.875 c 0
 420.435546875 109.233398438 473.365234375 171.060546875 520.064453125 225.612304688 c 0
 540.311523438 249.265625 559.869140625 272.111328125 577.618164062 295.357421875 c 1
 547.784179688 313.682617188 517.413085938 330.26953125 485.889648438 347.486328125 c 0
 428.073242188 379.061523438 368.288085938 411.713867188 310.999023438 456.76953125 c 0
 287.123046875 475.547851562 282.991210938 510.125976562 301.768554688 534.001953125 c 0
 320.546875 557.877929688 355.124023438 562.010742188 379.000976562 543.232421875 c 0
 429.071289062 503.8515625 482.28125 474.791992188 538.615234375 444.026367188 c 0
 586.961914062 417.62109375 636.955078125 390.318359375 686.676757812 355.287109375 c 0
EndSplineSet
EndChar

StartChar: question
Encoding: 63 63 30
Width: 1000
Flags: H
LayerCount: 2
Fore
SplineSet
709.725585938 221.340820312 m 0
 712.754882812 191.116210938 690.708984375 164.159179688 660.487304688 161.126953125 c 0
 628.381835938 157.909179688 584.572265625 154.591796875 540.466796875 154.590820312 c 0
 527.103515625 154.590820312 513.71875 154.896484375 500.6171875 155.599609375 c 0
 430.181640625 159.384765625 385.1171875 173.735351562 358.791992188 200.760742188 c 0
 339.883789062 220.171875 331.336914062 245.5703125 334.724609375 272.2734375 c 0
 334.747070312 272.447265625 334.76953125 272.622070312 334.793945312 272.795898438 c 0
 342.133789062 326.521484375 394.372070312 392.630859375 473.227539062 487.358398438 c 0
 494.3828125 512.771484375 514.365234375 536.774414062 530.001953125 557.315429688 c 0
 533.616210938 562.061523438 536.720703125 566.264648438 539.38671875 569.978515625 c 1
 528.33203125 573.985351562 511.704101562 578.590820312 487.150390625 582.650390625 c 0
 448.80078125 588.989257812 399.494140625 592.573242188 344.559570312 593.014648438 c 0
 314.184570312 593.258789062 289.759765625 618.080078125 290.00390625 648.455078125 c 0
 290.247070312 678.677734375 314.826171875 703.012695312 344.993164062 703.012695312 c 0
 345.143554688 703.012695312 345.291992188 703.01171875 345.444335938 703.010742188 c 0
 394.033203125 702.620117188 464.422851562 699.659179688 523.819335938 687.765625 c 0
 555.298828125 681.462890625 580.52734375 673.407226562 600.946289062 663.137695312 c 0
 631.663085938 647.69140625 651.778320312 626.739257812 660.732421875 600.864257812 c 0
 663.87890625 591.774414062 664.584960938 582.015625 662.782226562 572.567382812 c 0
 655.817382812 536.073242188 621.984375 494.12109375 557.768554688 416.983398438 c 0
 529.754882812 383.331054688 500.787109375 348.533203125 478.298828125 317.432617188 c 0
 463.337890625 296.743164062 454.844726562 282.563476562 450.029296875 273.233398438 c 1
 461.272460938 270.095703125 480.828125 266.459960938 513.2421875 265.125 c 0
 561.181640625 263.149414062 613.807617188 267.001953125 649.514648438 270.581054688 c 0
 679.737304688 273.610351562 706.698242188 251.56640625 709.725585938 221.340820312 c 0
480.267578125 63.26953125 m 2
 509.826171875 70.2666015625 539.459960938 51.97265625 546.455078125 22.4140625 c 0
 553.451171875 -7.146484375 535.159179688 -36.779296875 505.599609375 -43.7744140625 c 2
 464.407226562 -53.5224609375 l 2
 460.149414062 -54.5302734375 455.887695312 -55.0126953125 451.6953125 -55.0126953125 c 0
 426.778320312 -55.0126953125 404.20703125 -37.966796875 398.21875 -12.666015625 c 0
 391.223632812 16.8935546875 409.514648438 46.52734375 439.075195312 53.5224609375 c 2
 480.267578125 63.26953125 l 2
EndSplineSet
EndChar

StartChar: at
Encoding: 64 64 31
Width: 1000
Flags: H
LayerCount: 2
Fore
SplineSet
485.01171875 160.916015625 m 0
 456.4609375 164.44921875 431.291015625 178.90234375 412.711914062 202.118164062 c 1
 418.837890625 175.321289062 427.018554688 149.75390625 436.904296875 127.172851562 c 0
 458.017578125 78.947265625 481.94921875 56.158203125 495.25 55.392578125 c 0
 512.733398438 54.3876953125 535.845703125 54.8447265625 546.658203125 62.7236328125 c 0
 554.338867188 68.32421875 561.193359375 81.427734375 569.35546875 97.9775390625 c 0
 582.791015625 125.219726562 615.76953125 136.412109375 643.008789062 122.977539062 c 0
 670.250976562 109.543945312 681.4453125 76.5673828125 668.008789062 49.32421875 c 0
 656.875 26.748046875 641.626953125 -4.1708984375 611.453125 -26.1650390625 c 0
 584.6796875 -45.681640625 551.551757812 -55 508.259765625 -55.0009765625 c 0
 502.03125 -55.0009765625 495.59765625 -54.8076171875 488.935546875 -54.4248046875 c 0
 454.712890625 -52.45703125 421.7265625 -36.01171875 393.54296875 -6.8671875 c 0
 371.674804688 15.748046875 352.361328125 46.0029296875 336.13671875 83.0595703125 c 0
 306.81640625 150.03515625 290 233.493164062 290 312.036132812 c 0
 290 391.657226562 307.65625 482.297851562 337.227539062 554.5 c 0
 354.096679688 595.684570312 374.065429688 629.033203125 396.579101562 653.618164062 c 0
 434.940429688 695.508789062 474.055664062 704.301757812 500.115234375 704.301757812 c 0
 559.856445312 704.301757812 610.865234375 685.084960938 647.62890625 648.73046875 c 0
 681.489257812 615.245117188 702.420898438 567.893554688 708.162109375 511.794921875 c 0
 708.1953125 511.463867188 708.2265625 511.131835938 708.25390625 510.799804688 c 0
 712.596679688 459.091796875 708.86328125 404.990234375 697.740234375 358.461914062 c 0
 683.46484375 298.745117188 659.130859375 260.389648438 625.416015625 244.461914062 c 0
 619.852539062 241.833984375 614.172851562 239.875 608.43359375 238.573242188 c 1
 600.991210938 219.462890625 589.493164062 200.963867188 571.952148438 186.227539062 c 0
 547.8203125 165.954101562 516.9453125 156.965820312 485.01171875 160.916015625 c 0
511.154296875 306.670898438 m 0
 511.518554688 313.934570312 513.302734375 320.8984375 516.27734375 327.245117188 c 0
 515.48046875 329.794921875 514.860351562 332.431640625 514.4296875 335.150390625 c 0
 512.26953125 348.840820312 505.813476562 358.784179688 499.190429688 363.171875 c 1
 494.771484375 354.40234375 489.126953125 336.924804688 489.147460938 312.080078125 c 0
 489.16796875 285.029296875 496.668945312 272.639648438 499.322265625 270.015625 c 0
 500.616210938 269.959960938 500.995117188 270.283203125 501.193359375 270.450195312 c 0
 504.349609375 273.1015625 510.000976562 283.715820312 511.154296875 306.670898438 c 0
439.021484375 512.805664062 m 0
 429.299804688 489.073242188 421.06640625 462.375976562 414.705078125 434.694335938 c 1
 418.178710938 439.288085938 421.87890625 443.53515625 425.7890625 447.389648438 c 0
 444.568359375 465.907226562 467.541015625 475.666015625 492.302734375 475.666015625 c 0
 492.771484375 475.666015625 493.236328125 475.663085938 493.706054688 475.65625 c 0
 525.982421875 475.17578125 556.91796875 461.73046875 580.814453125 437.79296875 c 0
 586.739257812 431.859375 592.119140625 425.421875 596.926757812 418.541015625 c 1
 600.297851562 445.2421875 600.936523438 473.794921875 598.68359375 501.075195312 c 0
 596.462890625 522.243164062 589.719726562 551.293945312 570.283203125 570.514648438 c 0
 554.323242188 586.297851562 530.71484375 594.30078125 500.116210938 594.30078125 c 0
 489.400390625 594.30078125 463.337890625 572.17578125 439.021484375 512.805664062 c 0
EndSplineSet
EndChar

StartChar: A
Encoding: 65 65 32
Width: 1000
Flags: H
LayerCount: 2
Fore
SplineSet
709.844726562 58.5791015625 m 0
 712.127929688 28.2890625 689.423828125 1.8837890625 659.133789062 -0.400390625 c 0
 657.728515625 -0.5048828125 656.329101562 -0.556640625 654.942382812 -0.5576171875 c 0
 626.442382812 -0.5595703125 602.333984375 21.42578125 600.15625 50.310546875 c 0
 595.174804688 116.392578125 586.688476562 180.196289062 574.846679688 241.116210938 c 1
 462.93359375 230.348632812 l 1
 451.888671875 190.485351562 440.586914062 152.549804688 429.9765625 119.85546875 c 0
 404.438476562 41.1552734375 394.33984375 26.4091796875 384.651367188 16.330078125 c 0
 363.599609375 -5.568359375 328.782226562 -6.2548828125 306.883789062 14.7939453125 c 0
 286.595703125 34.296875 284.515625 65.6171875 301.057617188 87.5322265625 c 0
 310.802734375 106.48046875 342.982421875 200.931640625 376.486328125 333.590820312 c 0
 412.1015625 474.612304688 431.6796875 591.579101562 428.858398438 646.477539062 c 0
 427.553710938 671.849609375 443.796875 694.814453125 468.155273438 702.034179688 c 0
 492.512695312 709.25390625 518.6484375 698.850585938 531.379882812 676.866210938 c 0
 582.698242188 588.256835938 623.799804688 490.20703125 653.54296875 385.440429688 c 0
 660.14453125 362.18359375 666.225585938 338.432617188 671.791992188 314.234375 c 0
 671.961914062 313.567382812 672.109375 312.889648438 672.254882812 312.212890625 c 0
 690.555664062 232.15234375 703.16796875 147.159179688 709.844726562 58.5791015625 c 0
492.260742188 343.678710938 m 1
 549.442382812 349.1796875 l 1
 548.866210938 351.249023438 548.30859375 353.337890625 547.723632812 355.3984375 c 0
 538.368164062 388.3515625 527.803710938 420.546875 516.071289062 451.893554688 c 1
 508.6015625 413.9765625 500.196289062 376.698242188 492.260742188 343.678710938 c 1
EndSplineSet
EndChar

StartChar: B
Encoding: 66 66 33
Width: 1000
Flags: H
LayerCount: 2
Fore
SplineSet
670.294921875 342.733398438 m 0
 710.107421875 271.393554688 711.059570312 200.784179688 709.622070312 173.739257812 c 0
 709.6171875 173.61328125 709.609375 173.486328125 709.600585938 173.360351562 c 0
 703.499023438 71.8359375 648.91796875 30.8701171875 616.92578125 15.486328125 c 0
 594.512695312 4.70703125 569.440429688 -0.568359375 543.225585938 -0.5693359375 c 0
 508.639648438 -0.5703125 472.061523438 8.61328125 436.956054688 26.4541015625 c 1
 430.807617188 24.2724609375 424.1640625 23.15625 417.258789062 23.3193359375 c 0
 386.891601562 24.041015625 362.860351562 49.244140625 363.58203125 79.611328125 c 0
 364.3359375 111.311523438 357.044921875 208.920898438 342.046875 327.376953125 c 0
 326.39453125 451.001953125 308.040039062 551.204101562 292.94921875 595.416992188 c 0
 288.201171875 609.327148438 289.217773438 624.557617188 295.7734375 637.712890625 c 0
 302.327148438 650.868164062 313.875 660.8515625 327.837890625 665.438476562 c 0
 330.359375 666.264648438 390.329101562 685.83984375 456.006835938 696.846679688 c 0
 496.870117188 703.694335938 531.998046875 705.830078125 560.415039062 703.196289062 c 0
 580.901367188 701.296875 598.203125 697.034179688 613.30859375 690.165039062 c 0
 634.499023438 680.529296875 650.99609375 665.5 661.016601562 646.702148438 c 0
 680.357421875 610.419921875 693.6171875 553.815429688 646.965820312 490.184570312 c 0
 633.046875 471.200195312 614.396484375 452.247070312 589.477539062 432.059570312 c 1
 622.4609375 409.595703125 649.73046875 379.584960938 670.294921875 342.733398438 c 0
434.8515625 456.221679688 m 1
 438.333007812 460.1953125 442.422851562 463.706054688 447.055664062 466.602539062 c 0
 504.494140625 502.521484375 540.8671875 531.509765625 558.254882812 555.224609375 c 0
 570.77734375 572.3046875 570.206054688 581.489257812 566.067382812 590.694335938 c 1
 558.547851562 593.307617188 530.834960938 599.486328125 458.483398438 585.5234375 c 0
 442.052734375 582.350585938 426.26953125 578.690429688 412.400390625 575.17578125 c 1
 420.7734375 538.984375 428.372070312 496.891601562 434.8515625 456.221679688 c 1
599.786132812 179.76171875 m 0
 601.249023438 207.921875 595.306640625 251.37890625 574.240234375 289.12890625 c 0
 551.053710938 330.678710938 514.55859375 356.533203125 465.768554688 365.971679688 c 0
 458.963867188 367.2890625 452.6171875 369.841796875 446.969726562 373.388671875 c 1
 448.52734375 361.829101562 449.931640625 351.009765625 451.174804688 341.194335938 c 0
 461.047851562 263.215820312 468.50390625 186.948242188 471.787109375 133.127929688 c 1
 506.634765625 110.994140625 545.801757812 103.340820312 569.254882812 114.619140625 c 0
 576.884765625 118.288085938 582.911132812 124.036132812 587.678710938 132.192382812 c 0
 594.400390625 143.692382812 598.584960938 160.138671875 599.786132812 179.76171875 c 0
EndSplineSet
EndChar

StartChar: C
Encoding: 67 67 34
Width: 1000
Flags: H
LayerCount: 2
Fore
SplineSet
696.723632812 120.069335938 m 0
 716.514648438 97.0263671875 713.877929688 62.3017578125 690.8359375 42.5078125 c 0
 660.059570312 16.0751953125 621.232421875 1.23828125 578.547851562 -0.404296875 c 0
 575.911132812 -0.50390625 573.260742188 -0.5546875 570.602539062 -0.5546875 c 0
 535.508789062 -0.5546875 498.6796875 8.248046875 463.568359375 25.087890625 c 0
 414.407226562 48.6669921875 370.421875 87.2646484375 339.713867188 133.774414062 c 0
 305.244140625 185.982421875 288.111328125 246.295898438 290.16796875 308.192382812 c 0
 292.451171875 376.87109375 311.204101562 447.682617188 344.40234375 512.971679688 c 0
 374.6484375 572.456054688 415.4921875 624.135742188 459.409179688 658.4921875 c 0
 507.428710938 696.056640625 556.009765625 710.970703125 599.904296875 701.622070312 c 0
 629.61328125 695.29296875 648.567382812 666.079101562 642.23828125 636.370117188 c 0
 635.909179688 606.661132812 606.6953125 587.70703125 576.986328125 594.036132812 c 0
 570.720703125 595.372070312 553.19140625 592.198242188 527.184570312 571.852539062 c 0
 466.881835938 524.678710938 403.868164062 417.709960938 400.107421875 304.5390625 c 0
 398.810546875 265.552734375 409.669921875 227.4609375 431.509765625 194.3828125 c 0
 451.399414062 164.2578125 479.676757812 139.359375 511.134765625 124.272460938 c 0
 553.752929688 103.833984375 594.137695312 104.462890625 619.165039062 125.958007812 c 0
 642.209960938 145.749023438 676.93359375 143.110351562 696.723632812 120.069335938 c 0
EndSplineSet
EndChar

StartChar: D
Encoding: 68 68 35
Width: 1000
Flags: H
LayerCount: 2
Fore
SplineSet
701.9453125 415.723632812 m 0
 712.427734375 345.907226562 712.649414062 283.051757812 702.602539062 228.905273438 c 0
 692.21484375 172.920898438 670.891601562 125.786132812 639.224609375 88.806640625 c 0
 589.576171875 30.8310546875 516.00390625 -0.0703125 426.462890625 -0.552734375 c 0
 426.364257812 -0.5537109375 426.259765625 -0.5537109375 426.161132812 -0.5537109375 c 0
 397.26171875 -0.5537109375 373.271484375 21.82421875 371.294921875 50.689453125 c 0
 348.125976562 389.1171875 304.4921875 581.3046875 291.669921875 632.147460938 c 0
 287.799804688 647.494140625 290.728515625 663.763671875 299.708007812 676.797851562 c 0
 308.685546875 689.831054688 322.844726562 698.365234375 338.563476562 700.217773438 c 0
 433.111328125 711.362304688 512.189453125 693.430664062 573.58984375 646.92578125 c 0
 605.397460938 622.8359375 632.383789062 590.967773438 653.802734375 552.20703125 c 0
 674.434570312 514.869140625 690.428710938 470.072265625 701.338867188 419.059570312 c 0
 701.575195312 417.954101562 701.77734375 416.841796875 701.9453125 415.723632812 c 0
555.673828125 160.356445312 m 0
 596.307617188 207.8046875 609.34765625 289.853515625 593.416015625 397.703125 c 1
 576.828125 474.112304688 547.817382812 528.45703125 507.17578125 559.23828125 c 0
 481.6796875 578.548828125 450.728515625 589.625 413.490234375 592.638671875 c 1
 439.92578125 465.508789062 462.602539062 294.958007812 476.8515625 114.9140625 c 1
 509.799804688 122.41796875 536.200195312 137.616210938 555.673828125 160.356445312 c 0
EndSplineSet
EndChar

StartChar: E
Encoding: 69 69 36
Width: 1000
Flags: H
LayerCount: 2
Fore
SplineSet
702.89453125 130.775390625 m 0
 717.828125 104.32421875 708.491210938 70.775390625 682.040039062 55.83984375 c 0
 615.124023438 18.060546875 556.436523438 -0.576171875 503.916992188 -0.5771484375 c 0
 490.735351562 -0.578125 477.946289062 0.595703125 465.508789062 2.935546875 c 0
 405.408203125 14.2421875 355.946289062 52.6806640625 318.499023438 117.185546875 c 0
 316.338867188 120.908203125 314.622070312 124.87109375 313.384765625 128.994140625 c 0
 299.05859375 176.740234375 301.274414062 231.71875 319.620117188 283.801757812 c 0
 330.782226562 315.490234375 347.553710938 345.419921875 369.205078125 372.596679688 c 1
 348.452148438 388.705078125 331.345703125 407.999023438 318.44921875 430.04296875 c 0
 293.1796875 473.233398438 284.53515625 526.302734375 293.44921875 583.514648438 c 0
 294.537109375 590.5 296.961914062 597.208984375 300.58984375 603.276367188 c 0
 334.814453125 660.5078125 392.977539062 698 456.176757812 703.5703125 c 0
 490.919921875 706.629882812 525.63671875 700.201171875 559.370117188 684.45703125 c 0
 594.080078125 668.256835938 627.067382812 642.310546875 657.415039062 607.33984375 c 0
 677.32421875 584.399414062 674.865234375 549.662109375 651.923828125 529.752929688 c 0
 628.983398438 509.842773438 594.245117188 512.303710938 574.336914062 535.244140625 c 0
 538.309570312 576.758789062 500.794921875 597.071289062 465.833007812 593.994140625 c 0
 437.124023438 591.462890625 414.412109375 573.62890625 400.721679688 555.336914062 c 1
 398.112304688 527.870117188 402.360351562 504.448242188 413.393554688 485.588867188 c 0
 425.893554688 464.223632812 447.602539062 448.276367188 477.91796875 438.189453125 c 0
 497.140625 431.79296875 511.290039062 415.34765625 514.747070312 395.38671875 c 0
 518.204101562 375.42578125 510.408203125 355.180664062 494.455078125 342.694335938 c 0
 460.61328125 316.202148438 436.032226562 283.200195312 423.37109375 247.255859375 c 0
 413.516601562 219.28125 411.365234375 190.8828125 417.155273438 166.53125 c 1
 443.779296875 123.499023438 468.958007812 114.216796875 485.844726562 111.040039062 c 0
 520.796875 104.46875 568.610351562 118.122070312 627.959960938 151.62890625 c 0
 654.413085938 166.563476562 687.959960938 157.225585938 702.89453125 130.775390625 c 0
EndSplineSet
EndChar

StartChar: F
Encoding: 70 70 37
Width: 1000
Flags: H
LayerCount: 2
Fore
SplineSet
709.58984375 327.813476562 m 0
 713.291015625 297.6640625 691.850585938 270.22265625 661.701171875 266.51953125 c 2
 478.034179688 243.973632812 l 1
 480.029296875 185.173828125 480.090820312 121.342773438 478.198242188 52.923828125 c 0
 477.373046875 23.0791015625 452.916992188 -0.5537109375 423.248046875 -0.5546875 c 0
 422.732421875 -0.5546875 422.216796875 -0.548828125 421.698242188 -0.5341796875 c 0
 391.333984375 0.3056640625 367.400390625 25.6015625 368.240234375 55.96484375 c 0
 371.701171875 181.080078125 368.453125 289.560546875 358.5859375 378.39453125 c 0
 346.995117188 482.756835938 326.462890625 560.651367188 297.560546875 609.915039062 c 0
 288.599609375 625.19140625 287.541992188 643.84765625 294.719726562 660.038085938 c 0
 301.8984375 676.228515625 316.432617188 687.971679688 333.76953125 691.587890625 c 0
 387.184570312 702.728515625 443.916015625 706.588867188 502.388671875 703.051757812 c 0
 556.654296875 699.772460938 610.521484375 689.969726562 658.165039062 674.704101562 c 0
 687.092773438 665.435546875 703.030273438 634.471679688 693.760742188 605.544921875 c 0
 684.494140625 576.618164062 653.53125 560.678710938 624.602539062 569.94921875 c 0
 563.442382812 589.544921875 492.6953125 597.509765625 425.532226562 593.162109375 c 1
 444.921875 538.64453125 458.91015625 471.614257812 467.915039062 390.538085938 c 0
 469.232421875 378.672851562 470.438476562 366.491210938 471.533203125 354.001953125 c 1
 648.298828125 375.702148438 l 2
 678.447265625 379.401367188 705.888671875 357.961914062 709.58984375 327.813476562 c 0
EndSplineSet
EndChar

StartChar: G
Encoding: 71 71 38
Width: 1000
Flags: H
LayerCount: 2
Fore
SplineSet
692.286132812 92.92578125 m 0
 701.396484375 49.849609375 710 9.1630859375 710 -30.4111328125 c 0
 710 -60.787109375 685.375976562 -85.4111328125 655 -85.4111328125 c 0
 624.624023438 -85.4111328125 600 -60.787109375 600 -30.4111328125 c 0
 600 -2.3408203125 592.89453125 31.2607421875 584.666992188 70.1689453125 c 0
 584.30859375 71.86328125 583.947265625 73.5693359375 583.583984375 75.2919921875 c 1
 537.232421875 19.8291015625 483.233398438 -6.9462890625 431.421875 -0.119140625 c 0
 403.224609375 3.5966796875 377.219726562 16.7509765625 356.215820312 37.921875 c 0
 339.552734375 54.716796875 325.743164062 76.708984375 315.169921875 103.286132812 c 0
 298.939453125 144.084960938 290 197.499023438 290 253.688476562 c 0
 290 306.692382812 298.189453125 364.615234375 313.682617188 421.196289062 c 0
 331.475585938 486.171875 357.865234375 546.590820312 392.118164062 600.776367188 c 0
 409.575195312 628.389648438 426.671875 649.6796875 444.385742188 665.861328125 c 0
 468.776367188 688.139648438 495.017578125 701.087890625 522.3828125 704.345703125 c 0
 562.056640625 709.0703125 600.3359375 693.850585938 636.154296875 659.11328125 c 0
 657.958007812 637.96484375 658.491210938 603.146484375 637.344726562 581.33984375 c 0
 616.196289062 559.534179688 581.377929688 559.002929688 559.572265625 580.149414062 c 0
 547.47265625 591.881835938 538.982421875 595.552734375 535.38671875 595.118164062 c 0
 533.537109375 594.897460938 516.413085938 591.536132812 485.09765625 541.998046875 c 0
 456.668945312 497.026367188 434.692382812 446.607421875 419.77734375 392.142578125 c 0
 406.838867188 344.89453125 400 297.017578125 400 253.688476562 c 0
 400 211.708007812 406.333984375 171.708984375 417.37890625 143.948242188 c 0
 421.326171875 134.02734375 431.99609375 110.754882812 445.793945312 108.936523438 c 0
 454.05859375 107.84765625 475.250976562 116.955078125 499.745117188 146.510742188 c 0
 527.526367188 180.034179688 549.455078125 227.000976562 559.908203125 275.368164062 c 0
 565.8046875 302.655273438 591.213867188 321.198242188 618.9921875 318.4921875 c 0
 646.776367188 315.790039062 668.129882812 292.701171875 668.657226562 264.790039062 c 0
 669.905273438 198.763671875 681.795898438 142.53515625 692.286132812 92.92578125 c 0
EndSplineSet
EndChar

StartChar: H
Encoding: 72 72 39
Width: 1000
Flags: H
LayerCount: 2
Fore
SplineSet
707.147460938 85.6484375 m 0
 714.060546875 65.0576171875 708.331054688 41.4287109375 690.841796875 26.404296875 c 0
 680.463867188 17.48828125 667.712890625 13.12109375 655.026367188 13.12109375 c 0
 639.546875 13.12109375 624.162109375 19.6181640625 613.283203125 32.2802734375 c 0
 599.026367188 48.8740234375 597.424804688 68.0703125 595.41015625 106.470703125 c 0
 594.125 130.950195312 593.043945312 164.05859375 591.791992188 202.396484375 c 0
 590.484375 242.463867188 588.903320312 290.833984375 586.603515625 341.012695312 c 1
 572.5546875 338.689453125 559.590820312 333.853515625 547.458984375 326.403320312 c 0
 527.6015625 314.208007812 509.485351562 294.676757812 493.611328125 268.352539062 c 0
 462.452148438 216.680664062 440.834960938 140.998046875 431.09765625 49.484375 c 0
 428.10546875 21.35546875 404.344726562 0.30078125 376.456054688 0.30078125 c 0
 375.211914062 0.30078125 373.959960938 0.3427734375 372.700195312 0.427734375 c 0
 343.216796875 2.4189453125 320.576171875 27.353515625 321.4296875 56.8916015625 c 0
 327.094726562 252.872070312 327.967773438 473.9140625 291.491210938 627.42578125 c 0
 284.46875 656.978515625 302.733398438 686.62890625 332.286132812 693.651367188 c 0
 361.834960938 700.672851562 391.489257812 682.409179688 398.510742188 652.856445312 c 0
 418.043945312 570.65234375 427.732421875 472.735351562 431.822265625 370.133789062 c 1
 449.40625 390.465820312 468.825195312 407.19921875 489.891601562 420.13671875 c 0
 517.62890625 437.170898438 547.88671875 447.544921875 580.252929688 451.171875 c 1
 574.787109375 526.393554688 566.891601562 594.844726562 554.981445312 633.586914062 c 0
 546.053710938 662.62109375 562.35546875 693.393554688 591.388671875 702.321289062 c 0
 620.426757812 711.247070312 651.196289062 694.947265625 660.123046875 665.913085938 c 0
 689.873046875 569.150390625 696.7265625 359.248046875 701.732421875 205.984375 c 0
 703.330078125 157.0859375 705.125976562 102.046875 707.147460938 85.6484375 c 0
EndSplineSet
EndChar

StartChar: I
Encoding: 73 73 40
Width: 1000
Flags: H
LayerCount: 2
Fore
SplineSet
655.008789062 110.984375 m 0
 685.193359375 110.984375 709.774414062 86.62890625 709.999023438 56.3935546875 c 0
 710.223632812 26.0185546875 685.783203125 1.2138671875 655.408203125 0.98828125 c 0
 572.788085938 0.373046875 479.143554688 -0.322265625 351.172851562 -14.77734375 c 0
 349.077148438 -15.0146484375 346.993164062 -15.1298828125 344.931640625 -15.1298828125 c 0
 317.3203125 -15.1298828125 293.51953125 5.6142578125 290.34765625 33.7021484375 c 0
 286.938476562 63.884765625 308.642578125 91.1181640625 338.827148438 94.52734375 c 0
 376.66015625 98.80078125 411.52734375 101.920898438 444.016601562 104.21484375 c 1
 447.944335938 294.41015625 448.040039062 446.600585938 444.307617188 576.458984375 c 1
 425.603515625 575.505859375 408.276367188 574.963867188 392.591796875 574.963867188 c 0
 379.057617188 574.963867188 366.740234375 575.365234375 355.787109375 576.24609375 c 0
 325.508789062 578.681640625 302.938476562 605.201171875 305.374023438 635.478515625 c 0
 307.809570312 665.756835938 334.336914062 688.32421875 364.607421875 685.891601562 c 0
 414.245117188 681.8984375 513.465820312 691.172851562 618.512695312 700.991210938 c 2
 637.666015625 702.779296875 l 2
 667.908203125 705.595703125 694.713867188 683.364257812 697.53125 653.119140625 c 0
 700.349609375 622.874023438 678.116210938 596.071289062 647.872070312 593.252929688 c 2
 628.749023438 591.466796875 l 2
 602.990234375 589.05859375 578.025390625 586.7265625 554.118164062 584.609375 c 1
 557.999023438 453.536132812 558.0078125 300.446289062 554.149414062 109.524414062 c 1
 590.037109375 110.5 623.094726562 110.748046875 654.591796875 110.982421875 c 0
 654.731445312 110.983398438 654.870117188 110.984375 655.008789062 110.984375 c 0
EndSplineSet
EndChar

StartChar: J
Encoding: 74 74 41
Width: 1000
Flags: H
LayerCount: 2
Fore
SplineSet
708.62109375 717.237304688 m 0
 715.379882812 687.623046875 696.8515625 658.13671875 667.236328125 651.376953125 c 0
 652.93359375 648.114257812 638.203125 644.694335938 623.95703125 641.387695312 c 0
 599.939453125 635.813476562 575.556640625 630.15625 551.595703125 624.858398438 c 1
 598.305664062 503.654296875 624.174804688 331.240234375 633.965820312 254.72265625 c 0
 648.380859375 142.078125 633.850585938 68.3095703125 589.545898438 29.203125 c 0
 574.025390625 15.5009765625 549.55859375 1.5576171875 514.3046875 1.556640625 c 0
 502.95703125 1.556640625 490.49609375 3.001953125 476.849609375 6.36328125 c 2
 383.291992188 24.0869140625 l 2
 353.447265625 29.7412109375 333.8359375 58.517578125 339.490234375 88.36328125 c 0
 345.142578125 118.208007812 373.915039062 137.819335938 403.765625 132.165039062 c 2
 498.921875 114.138671875 l 2
 500.083984375 113.918945312 501.23828125 113.662109375 502.383789062 113.3671875 c 0
 511.689453125 110.974609375 515.95703125 111.615234375 516.931640625 111.83203125 c 0
 519.03515625 113.845703125 524.811523438 123.739257812 527.638671875 146.975585938 c 0
 530.579101562 171.1328125 529.6171875 203.564453125 524.856445312 240.760742188 c 0
 509.307617188 362.266601562 479.82421875 515.26171875 441.442382812 603.786132812 c 1
 414.860351562 599.939453125 392.525390625 598.037109375 373.342773438 598.037109375 c 0
 358.921875 598.037109375 346.280273438 599.107421875 334.921875 601.223632812 c 0
 305.059570312 606.790039062 285.365234375 635.508789062 290.930664062 665.37109375 c 0
 296.497070312 695.233398438 325.213867188 714.928710938 355.078125 709.362304688 c 0
 366.775390625 707.181640625 392.5234375 706.62109375 448.755859375 716.329101562 c 0
 493.868164062 724.118164062 547.359375 736.533203125 599.087890625 748.540039062 c 0
 613.430664062 751.870117188 628.26171875 755.311523438 642.762695312 758.62109375 c 0
 672.383789062 765.381835938 701.86328125 746.850585938 708.62109375 717.237304688 c 0
EndSplineSet
EndChar

StartChar: K
Encoding: 75 75 42
Width: 1000
Flags: H
LayerCount: 2
Fore
SplineSet
705.52734375 75.7412109375 m 0
 717.525390625 47.8349609375 704.629882812 15.4873046875 676.725585938 3.4892578125 c 0
 669.646484375 0.4443359375 662.275390625 -0.9970703125 655.028320312 -0.9970703125 c 0
 633.7109375 -0.9990234375 613.426757812 11.466796875 604.473632812 32.2919921875 c 0
 568.702148438 115.490234375 525.759765625 177.333007812 469.495117188 225.251953125 c 1
 478.708007812 169.244140625 486.5 117.961914062 490.828125 79.74609375 c 0
 494.24609375 49.5634765625 472.549804688 22.32421875 442.3671875 18.90625 c 0
 440.264648438 18.66796875 438.174804688 18.5517578125 436.109375 18.5517578125 c 0
 408.50390625 18.5517578125 384.70703125 39.287109375 381.526367188 67.3671875 c 0
 373.162109375 141.221679688 350.60546875 269.918945312 330.703125 383.46484375 c 0
 304.708007812 531.775390625 290 617.247070312 290 649.30078125 c 0
 290 679.67578125 314.625 704.30078125 345 704.30078125 c 0
 375.375 704.30078125 400 679.67578125 400 649.30078125 c 0
 400 626.493164062 419.4765625 514.194335938 436.329101562 417.98828125 c 1
 493.0546875 506.340820312 546.505859375 593.356445312 570.588867188 658.498046875 c 0
 581.122070312 686.989257812 612.754882812 701.544921875 641.249023438 691.012695312 c 0
 669.741210938 680.478515625 684.296875 648.84375 673.763671875 620.352539062 c 0
 643.288085938 537.918945312 577.831054688 434.239257812 511.796875 332.01953125 c 1
 595.176757812 270.20703125 657.475585938 187.500976562 705.52734375 75.7412109375 c 0
EndSplineSet
EndChar

StartChar: L
Encoding: 76 76 43
Width: 1000
Flags: H
LayerCount: 2
Fore
SplineSet
670.853515625 208.127929688 m 0
 699.940429688 199.373046875 716.420898438 168.6953125 707.666015625 139.609375 c 0
 699.615234375 112.866210938 690.213867188 91.8896484375 678.080078125 73.5966796875 c 0
 660.995117188 47.83984375 638.786132812 28.5419921875 612.069335938 16.234375 c 0
 589.086914062 5.6474609375 562.76953125 0.3271484375 533.547851562 0.326171875 c 0
 523.431640625 0.326171875 512.97265625 0.9638671875 502.176757812 2.240234375 c 0
 460.25 7.2001953125 413.025390625 21.439453125 357.8046875 45.76953125 c 0
 339.9921875 53.619140625 327.655273438 70.298828125 325.365234375 89.62890625 c 0
 302.153320312 285.5234375 282.166992188 489.34765625 293.004882812 652.936523438 c 0
 295.012695312 683.24609375 321.212890625 706.190429688 351.521484375 704.180664062 c 0
 381.830078125 702.171875 404.7734375 675.973632812 402.764648438 645.665039062 c 0
 393.087890625 499.609375 409.926757812 315.162109375 430.852539062 134.541992188 c 1
 492.549804688 110.693359375 539.958007812 104.127929688 566.045898438 116.142578125 c 0
 582.061523438 123.521484375 592.9140625 140.021484375 602.334960938 171.31640625 c 0
 611.090820312 200.403320312 641.766601562 216.884765625 670.853515625 208.127929688 c 0
EndSplineSet
EndChar

StartChar: M
Encoding: 77 77 44
Width: 1000
Flags: H
LayerCount: 2
Fore
SplineSet
708.422851562 78.39453125 m 0
 715.64453125 48.8896484375 697.580078125 19.1171875 668.075195312 11.896484375 c 0
 663.684570312 10.8212890625 659.283203125 10.3056640625 654.956054688 10.3056640625 c 0
 630.204101562 10.3046875 607.72265625 27.1298828125 601.577148438 52.244140625 c 0
 592.446289062 89.5498046875 585.3828125 163.942382812 576.443359375 258.125976562 c 0
 572.70703125 297.475585938 568.70703125 339.611328125 564.317382812 380.875 c 1
 556.384765625 350.336914062 547.833984375 322.501953125 538.29296875 299.618164062 c 0
 529.578125 278.71875 508.940429688 265.301757812 486.30859375 265.798828125 c 0
 463.670898438 266.30078125 443.655273438 280.625 435.875976562 301.889648438 c 0
 434.6953125 305.118164062 433.544921875 308.392578125 432.424804688 311.706054688 c 1
 425.408203125 199.083007812 415.993164062 95.490234375 397.388671875 37.2744140625 c 0
 389.921875 13.908203125 368.295898438 -0.998046875 345.012695312 -0.998046875 c 0
 339.463867188 -0.998046875 333.825195312 -0.15234375 328.256835938 1.626953125 c 0
 299.323242188 10.873046875 283.36328125 41.8251953125 292.610351562 70.7587890625 c 0
 313.044921875 134.702148438 321.881835938 298.771484375 328.984375 430.602539062 c 0
 333.85546875 521.02734375 338.061523438 599.12109375 345.276367188 646.025390625 c 0
 348.501953125 667 363.5078125 684.248046875 383.834960938 690.344726562 c 0
 404.1640625 696.443359375 426.182617188 690.30078125 440.420898438 674.565429688 c 0
 464.87890625 647.533203125 479.086914062 606.2421875 490.532226562 556.803710938 c 1
 498.564453125 595.723632812 506.276367188 632.18359375 514.262695312 662.171875 c 0
 519.713867188 682.637695312 536.432617188 698.155273438 557.247070312 702.069335938 c 0
 578.061523438 705.982421875 599.274414062 697.596679688 611.786132812 680.5078125 c 0
 632.280273438 652.51953125 646.25 601.741210938 660.008789062 505.241210938 c 0
 670.389648438 432.420898438 678.657226562 345.346679688 685.950195312 268.522460938 c 0
 693.791015625 185.930664062 701.197265625 107.919921875 708.422851562 78.39453125 c 0
EndSplineSet
EndChar

StartChar: N
Encoding: 78 78 45
Width: 1000
Flags: H
LayerCount: 2
Fore
SplineSet
709.953125 416.211914062 m 0
 709.997070312 415.13671875 710.010742188 414.05859375 709.993164062 412.982421875 c 0
 708.756835938 342.008789062 706.161132812 260.774414062 696.274414062 196.389648438 c 0
 691.00390625 162.068359375 684.028320312 134.447265625 674.950195312 111.948242188 c 0
 662.356445312 80.734375 645.545898438 58.806640625 623.559570312 44.912109375 c 0
 602.186523438 31.4052734375 566.624023438 19.8798828125 518.583007812 41.69140625 c 0
 515.631835938 43.0302734375 512.8046875 44.6279296875 510.134765625 46.4658203125 c 0
 473.921875 71.3916015625 456.176757812 122.024414062 436.952148438 214.442382812 c 1
 427.892578125 159.314453125 415.419921875 101.435546875 397.958007812 39.1650390625 c 0
 391.149414062 14.884765625 369.068359375 -0.9970703125 345.030273438 -0.9970703125 c 0
 340.114257812 -0.9970703125 335.116210938 -0.3330078125 330.150390625 1.0595703125 c 0
 300.903320312 9.2626953125 283.841796875 39.62109375 292.043945312 68.8681640625 c 0
 343.888671875 253.740234375 348.798828125 400.55859375 353.998046875 555.998046875 c 0
 354.453125 569.624023438 354.911132812 583.319335938 355.40234375 597.1171875 c 0
 356.35546875 623.879882812 376.446289062 646.068359375 402.984375 649.663085938 c 0
 429.524414062 653.262695312 454.79296875 637.215820312 462.83203125 611.669921875 c 0
 491.89453125 519.313476562 510.403320312 418.809570312 526.731445312 330.137695312 c 0
 536.006835938 279.763671875 544.768554688 232.18359375 553.936523438 195.41796875 c 0
 560.375976562 169.591796875 565.7890625 154.348632812 569.58984375 145.564453125 c 1
 574.688476562 155.518554688 582.450195312 176.744140625 588.56640625 219.989257812 c 0
 596.586914062 276.711914062 598.8515625 349.376953125 599.981445312 413.265625 c 0
 597.357421875 474.784179688 590.857421875 517.04296875 579.547851562 546.176757812 c 0
 569.796875 571.297851562 556.267578125 587.813476562 535.7890625 612.810546875 c 2
 535.501953125 613.162109375 l 2
 516.251953125 636.659179688 519.696289062 671.311523438 543.193359375 690.561523438 c 0
 566.692382812 709.811523438 601.344726562 706.3671875 620.592773438 682.870117188 c 2
 620.879882812 682.51953125 l 2
 644.08203125 654.197265625 665.997070312 627.446289062 682.092773438 585.982421875 c 0
 698.223632812 544.423828125 706.81640625 492.06640625 709.953125 416.211914062 c 0
EndSplineSet
EndChar

StartChar: O
Encoding: 79 79 46
Width: 1000
Flags: H
LayerCount: 2
Fore
SplineSet
709.840820312 379.7734375 m 0
 709.974609375 378.016601562 710.024414062 376.254882812 709.98828125 374.494140625 c 0
 707.701171875 259.46484375 693.841796875 182.565429688 665.049804688 125.150390625 c 0
 632.563476562 60.3662109375 584.139648438 27.08203125 536.653320312 0.765625 c 0
 528.483398438 -3.76171875 519.305664062 -6.126953125 509.994140625 -6.126953125 c 0
 509.124023438 -6.126953125 508.25390625 -6.1064453125 507.381835938 -6.0654296875 c 0
 438.692382812 -2.798828125 385.1171875 24.267578125 348.146484375 74.3818359375 c 0
 309.286132812 127.056640625 290.266601562 203.53125 290 308.172851562 c 0
 289.99609375 310.022460938 290.083984375 311.870117188 290.265625 313.709960938 c 0
 313.737304688 551.76953125 371.455078125 649.735351562 415.741210938 689.997070312 c 0
 438.217773438 710.430664062 473.001953125 708.775390625 493.434570312 686.298828125 c 0
 503.764648438 674.935546875 508.450195312 660.427734375 507.653320312 646.217773438 c 1
 533.416992188 647.836914062 558.478515625 643.47265625 581.313476562 633.258789062 c 0
 632.880859375 610.190429688 697.0390625 547.487304688 709.840820312 379.7734375 c 0
497.719726562 105.173828125 m 1
 558.5859375 141.116210938 595.840820312 184.001953125 599.954101562 374.006835938 c 1
 595.990234375 423.186523438 586.788085938 462.791992188 572.591796875 491.756835938 c 0
 565.4609375 506.306640625 553.391601562 525.24609375 536.393554688 532.849609375 c 0
 507.193359375 545.9140625 469.599609375 520.959960938 454.79296875 509.625976562 c 0
 448.870117188 505.091796875 442.31640625 501.948242188 435.53125 500.140625 c 1
 421.030273438 451.775390625 408.225585938 387.5703125 400.010742188 305.704101562 c 1
 400.489257812 227.858398438 412.817382812 172.010742188 436.6640625 139.685546875 c 0
 451.21484375 119.962890625 470.390625 109.013671875 497.719726562 105.173828125 c 1
EndSplineSet
EndChar

StartChar: P
Encoding: 80 80 47
Width: 1000
Flags: H
LayerCount: 2
Fore
SplineSet
698.86328125 574.208007812 m 0
 709.015625 543.948242188 712.3203125 511.88671875 708.419921875 481.493164062 c 0
 708.12109375 479.1640625 707.673828125 476.857421875 707.080078125 474.584960938 c 0
 683.591796875 384.70703125 643.170898438 330.77734375 583.509765625 309.71484375 c 0
 532.192382812 291.598632812 480.165039062 302.999023438 434.260742188 313.056640625 c 0
 425.993164062 314.868164062 417.990234375 316.622070312 410.274414062 318.14453125 c 1
 419.140625 239.237304688 433.41796875 148.174804688 451.829101562 67.5478515625 c 0
 458.591796875 37.9345703125 440.067382812 8.447265625 410.454101562 1.68359375 c 0
 406.334960938 0.7431640625 402.213867188 0.2919921875 398.161132812 0.2919921875 c 0
 373.073242188 0.2919921875 350.412109375 17.56640625 344.590820312 43.0595703125 c 0
 314.474609375 174.947265625 290.497070312 359.3203125 290.000976562 462.805664062 c 0
 289.98828125 465.325195312 290.150390625 467.841796875 290.483398438 470.33984375 c 0
 291.435546875 477.4921875 292.22265625 485.178710938 293.055664062 493.317382812 c 0
 296.56640625 527.60546875 300.932617188 570.278320312 322.889648438 609.13671875 c 0
 349.223632812 655.7421875 395.030273438 686.493164062 459.037109375 700.537109375 c 0
 496.25390625 708.765625 531.545898438 708.985351562 563.84765625 701.1640625 c 0
 594.642578125 693.708984375 621.934570312 679.256835938 644.966796875 658.2109375 c 0
 669.225585938 636.04296875 687.86328125 606.99609375 698.86328125 574.208007812 c 0
599.65625 498.647460938 m 1
 601.817382812 523.079101562 593.872070312 555.891601562 570.764648438 577.006835938 c 0
 549.963867188 596.014648438 520.334960938 601.432617188 482.701171875 593.111328125 c 0
 439.186523438 583.564453125 425.317382812 566.801757812 418.661132812 555.0234375 c 0
 408.021484375 536.192382812 405.33203125 509.924804688 402.486328125 482.116210938 c 0
 401.736328125 474.796875 400.965820312 467.265625 400.028320312 459.750976562 c 0
 400.123046875 450.833007812 400.41796875 441.030273438 400.904296875 430.4609375 c 0
 401.19140625 430.465820312 401.4765625 430.467773438 401.764648438 430.467773438 c 0
 404.475585938 430.467773438 407.21484375 430.267578125 409.975585938 429.85546875 c 0
 426.271484375 427.416015625 442.301757812 423.903320312 457.805664062 420.505859375 c 0
 492.42578125 412.919921875 525.127929688 405.75390625 546.890625 413.439453125 c 0
 568.6484375 421.119140625 586.390625 449.776367188 599.65625 498.647460938 c 1
EndSplineSet
EndChar

StartChar: Q
Encoding: 81 81 48
Width: 1000
Flags: H
LayerCount: 2
Fore
SplineSet
610.522460938 -124.189453125 m 0
 632.053710938 -108.2578125 662.578125 -110.048828125 682.087890625 -129.561523438 c 0
 703.563476562 -151.043945312 703.556640625 -185.8671875 682.07421875 -207.342773438 c 0
 656.024414062 -233.384765625 630.022460938 -239.997070312 610.33984375 -239.997070312 c 0
 606.818359375 -239.997070312 603.499023438 -239.786132812 600.41796875 -239.434570312 c 0
 545.776367188 -233.227539062 513.090820312 -181.018554688 481.482421875 -130.530273438 c 2
 479.873046875 -127.959960938 l 2
 476.166015625 -122.041992188 472.998046875 -118.717773438 471.102539062 -117.126953125 c 0
 464.741210938 -120.211914062 441.103515625 -135.635742188 407.834960938 -203.93359375 c 0
 394.532226562 -231.2421875 361.612304688 -242.59765625 334.302734375 -229.29296875 c 0
 306.995117188 -215.991210938 295.640625 -183.071289062 308.943359375 -155.76171875 c 0
 331.114257812 -110.248046875 353.633789062 -76.189453125 377.7890625 -51.638671875 c 0
 393.306640625 -35.8671875 409.477539062 -24.18359375 426.157226562 -16.6552734375 c 1
 421.45703125 -15.0576171875 416.888671875 -13.3134765625 412.456054688 -11.400390625 c 0
 383.709960938 1.0029296875 359.68359375 20.3779296875 341.044921875 46.1845703125 c 0
 321.470703125 73.287109375 307.913085938 106.836914062 299.595703125 148.751953125 c 0
 291.263671875 190.744140625 288.393554688 240.091796875 290.8203125 299.616210938 c 0
 290.82421875 299.688476562 290.827148438 299.760742188 290.830078125 299.833007812 c 0
 294.2578125 376.513671875 304.96875 447.822265625 322.6640625 511.77734375 c 0
 341.9921875 581.634765625 368.82421875 639.190429688 402.415039062 682.84375 c 0
 420.939453125 706.916992188 455.470703125 711.415039062 479.544921875 692.890625 c 0
 489.557617188 685.184570312 496.18359375 674.712890625 499.17578125 663.373046875 c 1
 528.260742188 679.823242188 559.396484375 687.286132812 591.749023438 678.1484375 c 0
 625.59375 668.587890625 652.705078125 642.62109375 672.331054688 600.969726562 c 0
 688.532226562 566.5859375 700.51953125 520.198242188 708.983398438 459.155273438 c 0
 709.25390625 457.1953125 709.418945312 455.220703125 709.478515625 453.243164062 c 0
 712.977539062 335.94921875 698.805664062 230.763671875 668.494140625 149.059570312 c 0
 636.334960938 62.3759765625 586.665039062 4.1953125 524.142578125 -20.453125 c 1
 540.633789062 -29.8203125 557.758789062 -45.0849609375 573.095703125 -69.5732421875 c 2
 574.716796875 -72.162109375 l 2
 584.609375 -87.9638671875 593.954101562 -102.889648438 602.868164062 -114.744140625 c 0
 605.864257812 -118.7265625 608.41015625 -121.811523438 610.522460938 -124.189453125 c 0
400.72265625 294.994140625 m 0
 398.203125 232.951171875 401.283203125 150.654296875 430.21875 110.588867188 c 0
 442.182617188 94.0244140625 458.006835938 85.7138671875 485.013671875 82.3857421875 c 1
 498.465820312 88.0009765625 511.232421875 97.6962890625 523.063476562 111.299804688 c 0
 539.375 130.0546875 553.607421875 155.6328125 565.36328125 187.321289062 c 0
 590.549804688 255.2109375 602.379882812 344.948242188 599.61328125 446.985351562 c 1
 586.287109375 540.81640625 567.176757812 566.169921875 561.829101562 571.6015625 c 1
 555.123046875 569.678710938 530.887695312 558.801757812 480.494140625 497.534179688 c 0
 467.240234375 481.419921875 446.735351562 474.779296875 427.592773438 478.458984375 c 1
 412.952148438 424.146484375 403.670898438 360.819335938 400.72265625 294.994140625 c 0
EndSplineSet
EndChar

StartChar: R
Encoding: 82 82 49
Width: 1000
Flags: H
LayerCount: 2
Fore
SplineSet
702.616210938 81.5439453125 m 0
 717.818359375 55.24609375 708.82421875 21.603515625 682.528320312 6.40234375 c 0
 673.860351562 1.3916015625 664.391601562 -0.9912109375 655.051757812 -0.9912109375 c 0
 636.052734375 -0.9921875 617.576171875 8.8603515625 607.383789062 26.490234375 c 0
 604.272460938 31.8720703125 601.143554688 37.3203125 597.9921875 42.80859375 c 0
 560.409179688 108.260742188 518.39453125 181.43359375 467.749023438 202.165039062 c 1
 471.952148438 156.623046875 475.690429688 109.420898438 478.997070312 60.3134765625 c 0
 481.038085938 30.0068359375 458.124023438 3.783203125 427.817382812 1.7421875 c 0
 397.504882812 -0.283203125 371.287109375 22.6162109375 369.24609375 52.9228515625 c 0
 353.874023438 281.177734375 329.111328125 466.470703125 291.317382812 636.05078125 c 0
 287.6015625 652.71875 291.840820312 670.16796875 302.7890625 683.274414062 c 0
 313.737304688 696.379882812 330.159179688 703.653320312 347.21484375 702.970703125 c 0
 362.026367188 702.374023438 376.836914062 702.051757812 391.16015625 701.741210938 c 0
 447.282226562 700.521484375 500.291015625 699.369140625 547.297851562 682.24609375 c 0
 575.62890625 671.923828125 599.747070312 656.30859375 618.978515625 635.833007812 c 0
 639.401367188 614.08984375 654.986328125 586.130859375 665.30078125 552.732421875 c 0
 676.98828125 514.887695312 678.528320312 475.903320312 669.876953125 436.861328125 c 0
 662.455078125 403.37109375 647.634765625 370.442382812 625.826171875 338.990234375 c 0
 608.926757812 314.618164062 588.038085938 291.529296875 564.595703125 270.947265625 c 1
 578.627929688 259.579101562 592.3046875 246.114257812 605.706054688 230.502929688 c 0
 639.99609375 190.560546875 668.361328125 141.165039062 693.384765625 97.583984375 c 0
 696.482421875 92.189453125 699.556640625 86.833984375 702.616210938 81.5439453125 c 0
454.724609375 325.69921875 m 1
 486.4296875 345.7421875 515.47265625 372.885742188 535.430664062 401.668945312 c 0
 563.618164062 442.3203125 571.951171875 482.223632812 560.200195312 520.272460938 c 0
 547.904296875 560.08203125 528.635742188 571.971679688 509.646484375 578.889648438 c 0
 484.833984375 587.928710938 451.611328125 590.102539062 413.16015625 591.185546875 c 1
 429.704101562 507.728515625 443.432617188 420.177734375 454.724609375 325.69921875 c 1
EndSplineSet
EndChar

StartChar: S
Encoding: 83 83 50
Width: 1000
Flags: H
LayerCount: 2
Fore
SplineSet
636.6171875 344.817382812 m 0
 685.310546875 300.505859375 710 243.150390625 710.000976562 174.341796875 c 0
 710.000976562 141.157226562 702.212890625 111.401367188 686.85546875 85.9013671875 c 0
 672.762695312 62.501953125 652.650390625 43.265625 627.078125 28.7265625 c 0
 582.321289062 3.279296875 528.048828125 -3.5546875 482.6796875 -3.5546875 c 0
 471.171875 -3.5546875 460.240234375 -3.1162109375 450.177734375 -2.4287109375 c 0
 405.150390625 0.646484375 346.467773438 11.6318359375 316.874023438 29.244140625 c 0
 290.771484375 44.779296875 282.203125 78.5322265625 297.737304688 104.634765625 c 0
 313.216796875 130.6484375 346.788085938 139.247070312 372.852539062 123.93359375 c 0
 379.594726562 120.461914062 414.049804688 109.766601562 462.08203125 107.040039062 c 0
 509.7109375 104.33203125 550.672851562 111.021484375 574.467773438 125.381835938 c 0
 592.364257812 136.182617188 600 150.825195312 600 174.342773438 c 0
 600 212.426757812 588.459960938 239.912109375 562.583007812 263.459960938 c 0
 536.059570312 287.595703125 496.94140625 305.430664062 459.110351562 322.6796875 c 0
 421.581054688 339.791015625 382.7734375 357.485351562 351.833007812 383.001953125 c 0
 310.803710938 416.83984375 290 459.551757812 290 509.952148438 c 0
 290 591.62109375 329.250976562 637.642578125 362.177734375 661.870117188 c 0
 399.352539062 689.220703125 450.2890625 704.708984375 509.478515625 706.661132812 c 0
 553.841796875 708.122070312 601.89453125 701.913085938 641.323242188 689.622070312 c 0
 670.322265625 680.58203125 686.502929688 649.74609375 677.462890625 620.74609375 c 0
 668.422851562 591.747070312 637.586914062 575.567382812 608.586914062 584.606445312 c 0
 580.86328125 593.248046875 545.17578125 597.782226562 513.103515625 596.719726562 c 0
 476.743164062 595.521484375 446.294921875 587.19140625 427.3671875 573.265625 c 0
 415.619140625 564.622070312 400 548.655273438 400 509.952148438 c 0
 400 474.08984375 430.314453125 456.704101562 504.744140625 422.767578125 c 0
 548.15625 402.973632812 597.360351562 380.540039062 636.6171875 344.817382812 c 0
EndSplineSet
EndChar

StartChar: T
Encoding: 84 84 51
Width: 1000
Flags: H
LayerCount: 2
Fore
SplineSet
709.041992188 680.096679688 m 0
 714.688476562 650.25 695.0703125 621.477539062 665.22265625 615.833007812 c 0
 641.899414062 611.419921875 619.108398438 607.630859375 596.7734375 604.419921875 c 1
 613.3203125 400.233398438 615.458984375 218.974609375 603.3203125 51.3310546875 c 0
 601.223632812 22.38671875 577.088867188 0.3017578125 548.521484375 0.3017578125 c 0
 547.185546875 0.3017578125 545.842773438 0.349609375 544.491210938 0.4482421875 c 0
 514.1953125 2.640625 491.413085938 28.98046875 493.607421875 59.27734375 c 0
 505.291992188 220.647460938 503.240234375 395.666015625 487.319335938 593.26171875 c 1
 466.381835938 592.06640625 445.833007812 591.448242188 425.657226562 591.448242188 c 0
 396.135742188 591.448242188 367.392578125 592.723632812 339.259765625 595.267578125 c 0
 309.0078125 598.002929688 286.701171875 624.745117188 289.436523438 654.997070312 c 0
 292.171875 685.249023438 318.915039062 707.567382812 349.166015625 704.8203125 c 0
 437.795898438 696.806640625 534.491210938 703.051757812 644.776367188 723.915039062 c 0
 674.625976562 729.560546875 703.396484375 709.942382812 709.041992188 680.096679688 c 0
EndSplineSet
EndChar

StartChar: U
Encoding: 85 85 52
Width: 1000
Flags: H
LayerCount: 2
Fore
SplineSet
709.943359375 346.708984375 m 0
 711.434570312 244.1640625 683.318359375 168.057617188 659.469726562 122.26953125 c 0
 620.635742188 47.7119140625 566.235351562 -0.076171875 513.94921875 -5.564453125 c 0
 510.627929688 -5.9130859375 507.043945312 -6.125 503.237304688 -6.125 c 0
 482.115234375 -6.125 454.11328125 0.375 425.71484375 25.9482421875 c 0
 383.065429688 64.353515625 349.564453125 137.647460938 326.140625 243.791015625 c 0
 302.16015625 352.46484375 290 488.465820312 290 648.015625 c 0
 290 678.390625 314.625 703.015625 345 703.015625 c 0
 375.375976562 703.015625 400 678.390625 400 648.015625 c 0
 400 480.643554688 414.323242188 337.786132812 441.41796875 234.885742188 c 0
 452.76171875 191.806640625 466.3828125 156.193359375 480.807617188 131.89453125 c 0
 492.114257812 112.850585938 500.5078125 106.323242188 503.6484375 104.377929688 c 0
 514.814453125 109.0546875 545.509765625 134.240234375 570.333984375 190.66796875 c 0
 585.651367188 225.482421875 603.146484375 282.977539062 599.515625 359.181640625 c 0
 595.916015625 434.780273438 572.452148438 512.176757812 529.778320312 589.223632812 c 0
 515.059570312 615.795898438 524.669921875 649.266601562 551.2421875 663.985351562 c 0
 577.811523438 678.703125 611.284179688 669.092773438 626.00390625 642.521484375 c 0
 680.272460938 544.541992188 708.512695312 445.015625 709.943359375 346.708984375 c 0
EndSplineSet
EndChar

StartChar: V
Encoding: 86 86 53
Width: 1000
Flags: H
LayerCount: 2
Fore
SplineSet
655 704.30078125 m 0
 685.375976562 704.30078125 710 679.676757812 710 649.30078125 c 0
 710 582.095703125 678.217773438 413.626953125 659.2734375 319.188476562 c 0
 640.081054688 223.522460938 606.51953125 68.806640625 592.71875 34.681640625 c 0
 584.831054688 15.177734375 566.506835938 1.8828125 545.518554688 0.43359375 c 0
 544.248046875 0.345703125 542.98046875 0.302734375 541.71875 0.302734375 c 0
 522.14453125 0.3017578125 503.918945312 10.7392578125 494.060546875 27.8701171875 c 0
 411.451171875 171.418945312 368.299804688 353.086914062 336.791992188 485.735351562 c 0
 328.360351562 521.237304688 321.077148438 551.8984375 314.321289062 576.224609375 c 0
 305.876953125 606.6328125 301.362304688 615.439453125 300.299804688 617.255859375 c 0
 282.756835938 641.716796875 288.138671875 675.802734375 312.470703125 693.650390625 c 0
 336.961914062 711.615234375 371.3828125 706.32421875 389.348632812 681.830078125 c 0
 409.068359375 654.946289062 420.939453125 607.459960938 443.814453125 511.15625 c 0
 463.96875 426.301757812 489.133789062 320.350585938 526.189453125 220.598632812 c 1
 534.122070312 256.696289062 542.80078125 297.810546875 551.663085938 342.028320312 c 0
 581.478515625 490.79296875 600 608.533203125 600 649.30078125 c 0
 600 679.67578125 624.624023438 704.30078125 655 704.30078125 c 0
EndSplineSet
EndChar

StartChar: W
Encoding: 87 87 54
Width: 1000
Flags: H
LayerCount: 2
Fore
SplineSet
703.046875 493.779296875 m 0
 712.634765625 404.571289062 712.353515625 300.111328125 702.299804688 214.3515625 c 0
 696.713867188 166.704101562 688.391601562 127.502929688 677.568359375 97.8369140625 c 0
 660.038085938 49.791015625 633.471679688 22.4130859375 598.611328125 16.4638671875 c 0
 578.772460938 13.076171875 558.420898438 18.015625 541.3046875 30.3701171875 c 0
 531.002929688 37.8056640625 520.110351562 48.6533203125 508.963867188 68.28515625 c 1
 498.241210938 43.1103515625 485.750976562 25.662109375 470.458984375 14.2431640625 c 0
 457.069335938 4.2431640625 441.450195312 -0.951171875 425.676757812 -0.9521484375 c 0
 419.96484375 -0.9521484375 414.235351562 -0.271484375 408.581054688 1.1103515625 c 0
 391.030273438 4.7470703125 366.8515625 15.296875 346.2109375 44.2255859375 c 0
 334.373046875 60.818359375 324.755859375 81.7236328125 316.811523438 108.139648438 c 0
 304.610351562 148.71484375 296.453125 202.744140625 292.569335938 268.723632812 c 0
 285.431640625 389.9609375 294.30859375 524.282226562 305.577148438 597.778320312 c 0
 310.1796875 627.803710938 338.25 648.413085938 368.276367188 643.807617188 c 0
 398.30078125 639.205078125 418.909179688 611.1328125 414.305664062 581.108398438 c 0
 404.790039062 519.038085938 397.012695312 408.610351562 401.091796875 301.828125 c 0
 404.028320312 224.953125 411.963867188 177.3515625 419.686523438 148.358398438 c 1
 423.637695312 163.526367188 427.920898438 183.108398438 432.188476562 208.234375 c 0
 440.813476562 259.029296875 444.981445312 307.107421875 445.139648438 315.59765625 c 0
 445.237304688 344.290039062 467.380859375 368.096679688 496.006835938 370.25390625 c 0
 524.688476562 372.416015625 550.17578125 352.125976562 554.510742188 323.702148438 c 0
 565.319335938 252.840820312 575.948242188 205.782226562 584.83984375 174.794921875 c 1
 586.318359375 181.983398438 587.786132812 190.024414062 589.203125 199.005859375 c 0
 596.34765625 244.298828125 600.180664062 301.713867188 599.994140625 360.674804688 c 0
 599.807617188 419.360351562 595.662109375 476.822265625 588.318359375 522.474609375 c 0
 579.682617188 576.147460938 569.541992188 596.495117188 566.1015625 602.1640625 c 0
 542.92578125 616.064453125 532.963867188 645.27734375 543.849609375 670.844726562 c 0
 555.747070312 698.79296875 588.05078125 711.802734375 615.998046875 699.90625 c 0
 654.12890625 683.672851562 671.081054688 642.159179688 680.515625 612.344726562 c 0
 690.3515625 581.259765625 697.932617188 541.369140625 703.046875 493.779296875 c 0
EndSplineSet
EndChar

StartChar: X
Encoding: 88 88 55
Width: 1000
Flags: H
LayerCount: 2
Fore
SplineSet
699.125 125.935546875 m 0
 717.2578125 101.56640625 712.202148438 67.111328125 687.831054688 48.98046875 c 0
 677.96875 41.6416015625 666.456054688 38.1015625 655.041015625 38.1015625 c 0
 638.248046875 38.1015625 621.66796875 45.763671875 610.873046875 60.2734375 c 0
 572.090820312 112.393554688 534.51171875 167.791992188 499.181640625 223.43359375 c 1
 471.413085938 164.294921875 446.73828125 103.58984375 429.416015625 40.69921875 c 0
 422.696289062 16.302734375 400.555664062 0.291015625 376.421875 0.291015625 c 0
 371.5859375 0.291015625 366.674804688 0.931640625 361.786132812 2.279296875 c 0
 332.500976562 10.345703125 315.299804688 40.625 323.366210938 69.91015625 c 0
 349.3828125 164.368164062 388.958007812 251.421875 431.323242188 335.021484375 c 1
 374.4609375 432.571289062 327.052734375 524.392578125 295.11328125 593.184570312 c 0
 282.322265625 620.736328125 294.286132812 653.440429688 321.836914062 666.232421875 c 0
 349.387695312 679.024414062 382.091796875 667.05859375 394.883789062 639.5078125 c 0
 418.98828125 587.591796875 452.216796875 522.090820312 491.782226562 451.008789062 c 1
 531.301757812 526.356445312 567.424804688 597.815429688 588.266601562 664.438476562 c 0
 597.334960938 693.427734375 628.193359375 709.577148438 657.178710938 700.5078125 c 0
 686.168945312 691.438476562 702.318359375 660.584960938 693.249023438 631.594726562 c 0
 666.947265625 547.517578125 622.251953125 462.647460938 574.93359375 372.79296875 c 0
 568.9765625 361.482421875 563 350.125976562 557.033203125 338.727539062 c 1
 600.66796875 266.801757812 648.859375 193.491210938 699.125 125.935546875 c 0
EndSplineSet
EndChar

StartChar: Y
Encoding: 89 89 56
Width: 1000
Flags: H
LayerCount: 2
Fore
SplineSet
692.6953125 660.764648438 m 0
 704.3046875 624.458007812 709.96484375 593.05859375 709.999023438 564.772460938 c 0
 710.038085938 532.828125 702.680664062 504.5078125 688.130859375 480.600585938 c 0
 663.543945312 440.200195312 622.711914062 418.983398438 583.3671875 406.8984375 c 1
 593.830078125 283.280273438 579.62890625 54.40234375 579.466796875 51.83984375 c 0
 577.62890625 22.703125 553.423828125 0.2998046875 524.62890625 0.2998046875 c 0
 523.463867188 0.2998046875 522.29296875 0.3369140625 521.114257812 0.4111328125 c 0
 490.797851562 2.32421875 467.772460938 28.44921875 469.684570312 58.763671875 c 0
 475.513671875 151.192382812 480.8984375 310.931640625 474.022460938 395.225585938 c 1
 458.41796875 396.57421875 444.024414062 398.962890625 430.631835938 402.42578125 c 0
 398.239257812 410.801757812 370.947265625 425.798828125 349.515625 447.001953125 c 0
 327.125976562 469.154296875 310.90625 498.34375 301.306640625 533.76171875 c 0
 292.551757812 566.068359375 288.938476562 603.961914062 290.260742188 649.608398438 c 0
 291.140625 679.970703125 316.46484375 703.868164062 346.831054688 702.9921875 c 0
 377.194335938 702.112304688 401.094726562 676.78515625 400.21484375 646.421875 c 0
 398.442382812 585.243164062 407.4140625 544.458984375 426.879882812 525.200195312 c 0
 442.624023438 509.625 472.04296875 502.704101562 516.75390625 504.083984375 c 1
 559.100585938 511.618164062 585.134765625 522.951171875 594.1640625 537.788085938 c 0
 603.756835938 553.549804688 601.59765625 584.490234375 587.920898438 627.26171875 c 0
 578.668945312 656.1953125 594.624023438 687.149414062 623.556640625 696.401367188 c 0
 652.490234375 705.653320312 683.444335938 689.696289062 692.6953125 660.764648438 c 0
EndSplineSet
EndChar

StartChar: Z
Encoding: 90 90 57
Width: 1000
Flags: H
LayerCount: 2
Fore
SplineSet
665.620117188 446.181640625 m 0
 695.424804688 440.31640625 714.830078125 411.400390625 708.963867188 381.59765625 c 0
 703.8046875 355.380859375 680.8046875 337.209960938 655.05859375 337.208007812 c 0
 651.53515625 337.20703125 647.965820312 337.546875 644.37890625 338.252929688 c 0
 602.107421875 346.571289062 539.923828125 340.044921875 484.629882812 334.091796875 c 1
 460.571289062 292.862304688 441.947265625 257.581054688 428.241210938 227.404296875 c 0
 412.037109375 191.727539062 395.165039062 146.077148438 401.3359375 121.385742188 c 1
 410.491210938 116.553710938 432 109.03125 469.583984375 106.956054688 c 0
 515.494140625 104.421875 565.490234375 111.135742188 610.356445312 125.865234375 c 0
 639.217773438 135.334960938 670.29296875 119.62109375 679.766601562 90.76171875 c 0
 689.240234375 61.90234375 673.524414062 30.826171875 644.6640625 21.3505859375 c 0
 595.01171875 5.0517578125 540.596679688 -3.5615234375 488.622070312 -3.5634765625 c 0
 478.706054688 -3.5634765625 468.887695312 -3.25 459.19921875 -2.6171875 c 0
 375.249023438 2.87109375 334.79296875 29.0576171875 315.63671875 50.060546875 c 0
 312.880859375 53.0830078125 310.469726562 56.40234375 308.450195312 59.958984375 c 0
 292.8046875 87.501953125 287.185546875 118.586914062 291.2734375 154.98828125 c 0
 294.970703125 187.924804688 307.012695312 226.491210938 328.087890625 272.891601562 c 0
 336.057617188 290.440429688 345.48828125 309.46484375 356.454101562 330.09765625 c 1
 346.655273438 332.131835938 337.76953125 335.224609375 329.674804688 339.698242188 c 0
 303.087890625 354.387695312 293.443359375 387.848632812 308.131835938 414.436523438 c 0
 322.213867188 439.926757812 353.546875 449.844726562 379.540039062 437.677734375 c 0
 382.208007812 437.24609375 390.110351562 436.423828125 408.362304688 437.436523438 c 0
 411.719726562 437.624023438 415.220703125 437.859375 418.84375 438.133789062 c 0
 447.362304688 484.565429688 481.228515625 536.840820312 520.94921875 595.776367188 c 1
 519.15625 595.822265625 517.366210938 595.866210938 515.578125 595.911132812 c 0
 420.713867188 598.284179688 360.80078125 600.911132812 325.908203125 624.014648438 c 0
 300.581054688 640.786132812 293.64453125 674.912109375 310.416015625 700.239257812 c 0
 326.911132812 725.149414062 360.1953125 732.268554688 385.381835938 716.5390625 c 0
 387.720703125 715.607421875 398.438476562 712.034179688 430.3203125 709.4921875 c 0
 456.157226562 707.431640625 487.762695312 706.640625 518.328125 705.876953125 c 0
 556.194335938 704.9296875 595.350585938 703.951171875 627.586914062 700.536132812 c 0
 646.896484375 698.491210938 663.696289062 686.415039062 671.7890625 668.764648438 c 0
 679.880859375 651.114257812 678.068359375 630.502929688 667.015625 614.538085938 c 0
 624.932617188 553.745117188 588.423828125 499.4765625 557.043945312 451.025390625 c 1
 594.77734375 453.15234375 632.243164062 452.75 665.620117188 446.181640625 c 0
EndSplineSet
EndChar

StartChar: bracketleft
Encoding: 91 91 58
Width: 1000
Flags: H
LayerCount: 2
Fore
SplineSet
618.263671875 -115.385742188 m 0
 648.603515625 -116.844726562 672.017578125 -142.623046875 670.557617188 -172.962890625 c 0
 669.098632812 -203.302734375 643.295898438 -226.697265625 612.98046875 -225.2578125 c 0
 553.694335938 -222.408203125 499.622070312 -229.943359375 440.124023438 -239.327148438 c 0
 437.26953125 -239.77734375 434.404296875 -239.999023438 431.553710938 -239.999023438 c 0
 418.627929688 -240 406.008789062 -235.440429688 396.005859375 -226.966796875 c 0
 383.797851562 -216.626953125 376.698242188 -201.482421875 376.556640625 -185.484375 c 0
 373.069335938 210.997070312 357.391601562 506.599609375 329.962890625 693.11328125 c 0
 327.713867188 708.405273438 332.00390625 723.938476562 341.782226562 735.909179688 c 0
 351.559570312 747.879882812 365.923828125 755.182617188 381.358398438 756.032226562 c 0
 406.9140625 757.436523438 429.916992188 757.754882812 452.162109375 758.063476562 c 0
 474.116210938 758.3671875 494.852539062 758.654296875 517.821289062 759.916992188 c 0
 548.180664062 761.581054688 574.090820312 738.349609375 575.758789062 708.01953125 c 0
 577.426757812 677.690429688 554.192382812 651.750976562 523.862304688 650.083007812 c 0
 498.63671875 648.696289062 475.78515625 648.379882812 453.684570312 648.07421875 c 0
 451.421875 648.041992188 449.170898438 648.010742188 446.9296875 647.978515625 c 1
 468.69921875 467.388671875 481.774414062 209.213867188 485.88671875 -121.5390625 c 1
 528.72265625 -116.157226562 571.28515625 -113.125976562 618.263671875 -115.385742188 c 0
EndSplineSet
EndChar

StartChar: backslash
Encoding: 92 92 59
Width: 1000
Flags: H
LayerCount: 2
Fore
SplineSet
691.64453125 41.013671875 m 0
 714.295898438 20.775390625 716.252929688 -13.9931640625 696.013671875 -36.6435546875 c 0
 685.150390625 -48.8037109375 670.09765625 -55 654.982421875 -55 c 0
 641.938476562 -55 628.846679688 -50.3876953125 618.356445312 -41.0126953125 c 0
 545.315429688 24.24609375 494.793945312 170.006835938 436.294921875 338.783203125 c 0
 393.693359375 461.694335938 349.640625 588.790039062 297.615234375 677.077148438 c 0
 282.194335938 703.247070312 290.907226562 736.963867188 317.077148438 752.384765625 c 0
 343.248046875 767.806640625 376.963867188 759.091796875 392.384765625 732.922851562 c 0
 449.982421875 635.181640625 495.861328125 502.81640625 540.228515625 374.806640625 c 0
 567.096679688 297.291015625 592.473632812 224.07421875 618.840820312 163.072265625 c 0
 645.477539062 101.4453125 669.97265625 60.3779296875 691.64453125 41.013671875 c 0
EndSplineSet
EndChar

StartChar: bracketright
Encoding: 93 93 60
Width: 1000
Flags: H
LayerCount: 2
Fore
SplineSet
660.602539062 -175.659179688 m 2
 662.803710938 -203.874023438 643.234375 -229.153320312 615.3671875 -234.092773438 c 0
 591.362304688 -238.346679688 567.704101562 -240.069335938 545.158203125 -240.0703125 c 0
 484.805664062 -240.072265625 432.334960938 -227.743164062 401.866210938 -218.658203125 c 0
 372.755859375 -209.977539062 356.1953125 -179.34375 364.875 -150.235351562 c 0
 373.553710938 -121.125976562 404.185546875 -104.563476562 433.296875 -113.244140625 c 0
 470.833007812 -124.435546875 510.22265625 -130.163085938 546.704101562 -129.989257812 c 1
 523.681640625 165.58203125 504.868164062 425.634765625 529.591796875 638.848632812 c 1
 481.333007812 633.90625 431.7109375 633.797851562 387.83984375 638.928710938 c 0
 357.669921875 642.458007812 336.07421875 669.776367188 339.6015625 699.946289062 c 0
 343.131835938 730.116210938 370.447265625 751.713867188 400.620117188 748.18359375 c 0
 456.086914062 741.696289062 525.8046875 745.697265625 582.565429688 758.625976562 c 0
 600.546875 762.72265625 619.383789062 757.534179688 632.733398438 744.806640625 c 0
 646.080078125 732.08203125 652.162109375 713.512695312 648.928710938 695.357421875 c 0
 609.768554688 475.458984375 632.571289062 183.40625 658.971679688 -154.76171875 c 2
 660.602539062 -175.659179688 l 2
EndSplineSet
EndChar

StartChar: asciicircum
Encoding: 94 94 61
Width: 1000
Flags: H
LayerCount: 2
Fore
SplineSet
686.502929688 545.08984375 m 1
 700.7109375 535.146484375 710 518.659179688 710 500 c 0
 710 469.625 685.375976562 445 655 445 c 0
 641.7265625 445 622.274414062 449.288085938 604.984375 469.716796875 c 0
 599.658203125 476.008789062 594.678710938 483.615234375 589.31640625 493.654296875 c 0
 581.767578125 507.78125 573.954101562 525.905273438 565.682617188 545.092773438 c 0
 555.491210938 568.733398438 543.942382812 595.526367188 531.7578125 617.421875 c 0
 526.010742188 627.749023438 521.188476562 635.053710938 517.356445312 640.180664062 c 1
 504.922851562 627.609375 485.569335938 605.950195312 458.8828125 571.369140625 c 0
 422.75 524.547851562 400.340820312 489.09765625 396.53515625 480.787109375 c 0
 388.317382812 458.720703125 367.356445312 444.985351562 344.999023438 444.985351562 c 0
 338.904296875 444.985351562 332.70703125 446.005859375 326.633789062 448.157226562 c 0
 298.000976562 458.30078125 283.012695312 489.734375 293.15625 518.366210938 c 0
 305.874023438 554.263671875 371.931640625 638.833984375 379.421875 648.359375 c 0
 394.34375 667.334960938 416.5390625 694.456054688 437.533203125 715.896484375 c 0
 463.455078125 742.369140625 486.431640625 760 514.317382812 760 c 0
 530.541015625 760 555.201171875 755.374023438 580.548828125 733.334960938 c 0
 593.60546875 721.984375 605.874023438 707.013671875 618.05859375 687.5703125 c 0
 637.248046875 656.948242188 652.891601562 620.658203125 666.696289062 588.638671875 c 0
 673.002929688 574.008789062 681.225585938 554.934570312 686.502929688 545.08984375 c 1
EndSplineSet
EndChar

StartChar: underscore
Encoding: 95 95 62
Width: 1000
Flags: H
LayerCount: 2
Fore
SplineSet
340.211914062 -41.455078125 m 2
 650.211914062 -68.2412109375 l 2
 651.790039062 -68.3779296875 653.38671875 -68.447265625 655 -68.447265625 c 0
 685.35546875 -68.447265625 710 -43.802734375 710 -13.447265625 c 0
 710 -2.3798828125 706.723632812 7.9287109375 701.08984375 16.560546875 c 0
 691.629882812 31.05078125 681.1796875 36.65625 673.893554688 40.41796875 c 0
 664.348632812 45.3466796875 656.02734375 47.875 647.288085938 50.146484375 c 0
 627.896484375 55.185546875 605.705078125 58.2080078125 579.713867188 60.7294921875 c 0
 521.620117188 66.3662109375 445.603515625 68.4482421875 373.014648438 68.4482421875 c 0
 363.446289062 68.4482421875 353.9453125 68.41015625 344.563476562 68.3369140625 c 0
 314.409179688 68.1025390625 290 43.548828125 290 13.3388671875 c 0
 290 -15.4033203125 312.094726562 -39.025390625 340.211914062 -41.455078125 c 2
EndSplineSet
EndChar

StartChar: grave
Encoding: 96 96 63
Width: 1000
Flags: H
LayerCount: 2
Fore
SplineSet
587.927734375 601.694335938 m 0
 611.875976562 587.79296875 622.012695312 557.793945312 610.541015625 531.889648438 c 0
 601.450195312 511.35546875 581.321289062 499.143554688 560.220703125 499.143554688 c 0
 552.782226562 499.143554688 545.223632812 500.661132812 537.983398438 503.8671875 c 0
 519.744140625 511.944335938 499.000976562 530.434570312 446.953125 601.051757812 c 0
 419.83203125 637.849609375 396.205078125 672.684570312 395.212890625 674.150390625 c 0
 378.174804688 699.296875 384.75 733.495117188 409.897460938 750.533203125 c 0
 435.043945312 767.572265625 469.243164062 760.998046875 486.280273438 735.849609375 c 1
 486.279296875 735.8515625 l 1
 486.482421875 735.551757812 506.859375 705.512695312 530.596679688 673.002929688 c 0
 568.793945312 620.692382812 583.884765625 605.39453125 587.927734375 601.694335938 c 0
EndSplineSet
EndChar

StartChar: a
Encoding: 97 97 64
Width: 1000
Flags: H
LayerCount: 2
Fore
SplineSet
702.46484375 65.0888671875 m 0
 717.810546875 38.875 709.000976562 5.18359375 682.788085938 -10.162109375 c 0
 674.055664062 -15.2744140625 664.4921875 -17.7060546875 655.053710938 -17.7060546875 c 0
 636.161132812 -17.70703125 617.76953125 -7.9638671875 607.537109375 9.5166015625 c 0
 590.563476562 38.509765625 576.64453125 77.345703125 563.686523438 121.055664062 c 1
 552.661132812 92.9541015625 538.235351562 65.0791015625 519.541015625 42.9833984375 c 0
 484.067382812 1.0537109375 446.16796875 -5.5244140625 420.624023438 -3.66796875 c 0
 383.000976562 -0.92578125 351.065429688 16.0947265625 328.268554688 45.556640625 c 0
 276.676757812 112.236328125 289.529296875 220.103515625 297.450195312 263.385742188 c 0
 309.416015625 328.774414062 349.829101562 386.23046875 372.852539062 414.66015625 c 0
 389.078125 434.694335938 406.549804688 452.720703125 423.380859375 466.790039062 c 0
 444.709960938 484.619140625 463.680664062 495.067382812 481.379882812 498.732421875 c 0
 511.125976562 504.888671875 540.231445312 485.76953125 546.388671875 456.025390625 c 0
 547.29296875 451.65625 547.653320312 447.30078125 547.512695312 443.03125 c 1
 566.208007812 440.974609375 583.240234375 429.372070312 591.5390625 411.2421875 c 0
 611.9140625 366.734375 628.037109375 305.3515625 645.106445312 240.366210938 c 0
 662.366210938 174.651367188 681.930664062 100.166015625 702.46484375 65.0888671875 c 0
477.4609375 213.162109375 m 0
 489.93359375 264.2578125 497.591796875 336.366210938 488.092773438 375.321289062 c 0
 487.958984375 375.873046875 487.833984375 376.421875 487.716796875 376.973632812 c 1
 478.053710938 368.142578125 466.002929688 355.538085938 453.297851562 339.0546875 c 0
 428.15234375 306.432617188 410.786132812 271.634765625 405.65234375 243.583007812 c 0
 400.553710938 215.723632812 398.830078125 187.24609375 400.796875 163.391601562 c 0
 402.6640625 140.756835938 407.938476562 122.341796875 415.266601562 112.87109375 c 0
 418.157226562 109.135742188 420.991210938 106.903320312 427.122070312 106.180664062 c 0
 429.51953125 107.646484375 437.706054688 113.745117188 448.623046875 133.682617188 c 0
 459.762695312 154.029296875 469.735351562 181.512695312 477.4609375 213.162109375 c 0
EndSplineSet
EndChar

StartChar: b
Encoding: 98 98 65
Width: 1000
Flags: H
LayerCount: 2
Fore
SplineSet
701.490234375 294.908203125 m 0
 713.336914062 230.885742188 712.73828125 178.379882812 699.653320312 134.436523438 c 0
 683.315429688 79.578125 647.623046875 37.2734375 593.565429688 8.6962890625 c 0
 589.241210938 6.41015625 584.62890625 4.7099609375 579.856445312 3.6435546875 c 0
 562.131835938 -0.3173828125 544.250976562 -2.3037109375 526.16796875 -2.3046875 c 0
 485.868164062 -2.3056640625 444.51953125 7.5693359375 401.421875 27.4580078125 c 0
 400.352539062 27.919921875 399.296875 28.4072265625 398.262695312 28.93359375 c 0
 382.901367188 36.1826171875 367.318359375 44.6904296875 351.4765625 54.484375 c 0
 325.639648438 70.4580078125 317.64453125 104.3515625 333.619140625 130.188476562 c 0
 340.345703125 141.0703125 350.258789062 148.772460938 361.405273438 152.866210938 c 1
 357.990234375 190.76171875 354.41015625 228.73828125 350.526367188 266.989257812 c 1
 329.151367188 278.684570312 317.44140625 303.678710938 323.571289062 328.443359375 c 0
 327.791992188 345.494140625 332.806640625 361.697265625 338.516601562 376.834960938 c 1
 326.524414062 478.514648438 311.513671875 583.381835938 290.9140625 695.01953125 c 0
 285.40234375 724.890625 305.149414062 753.575195312 335.01953125 759.086914062 c 0
 364.891601562 764.596679688 393.575195312 744.852539062 399.086914062 714.981445312 c 0
 413.100585938 639.034179688 424.559570312 566.311523438 434.264648438 495.666015625 c 1
 449.432617188 502.07421875 463.555664062 504.081054688 475.2890625 504.081054688 c 0
 475.381835938 504.081054688 475.47265625 504.081054688 475.567382812 504.081054688 c 0
 476.079101562 504.079101562 476.590820312 504.071289062 477.102539062 504.0546875 c 0
 528.55859375 502.477539062 579.927734375 480.030273438 621.748046875 440.845703125 c 0
 662.951171875 402.240234375 691.26953125 350.412109375 701.490234375 294.908203125 c 0
594.2265625 165.833984375 m 0
 602.228515625 192.701171875 601.930664062 228.390625 593.318359375 274.942382812 c 0
 587.317382812 307.536132812 570.70703125 337.9296875 546.5390625 360.575195312 c 0
 525.432617188 380.349609375 500.0859375 392.41015625 476.544921875 393.969726562 c 0
 474.318359375 392.690429688 467.211914062 387.705078125 457.724609375 372.232421875 c 0
 455.466796875 368.547851562 453.276367188 364.580078125 451.154296875 360.376953125 c 0
 460.506835938 277.713867188 468.02734375 197.032226562 475.072265625 116.369140625 c 1
 501.278320312 107.880859375 525.470703125 105.705078125 548.666992188 109.588867188 c 1
 572.498046875 123.7265625 587.053710938 141.75 594.2265625 165.833984375 c 0
EndSplineSet
EndChar

StartChar: c
Encoding: 99 99 66
Width: 1000
Flags: H
LayerCount: 2
Fore
SplineSet
656.552734375 150.759765625 m 0
 686.916015625 149.90234375 710.834960938 124.592773438 709.9765625 94.228515625 c 0
 709.134765625 64.396484375 684.682617188 40.7841796875 655.029296875 40.7822265625 c 0
 654.501953125 40.78125 653.9765625 40.7880859375 653.447265625 40.802734375 c 0
 637.68359375 41.265625 625.668945312 35.490234375 604.124023438 24.412109375 c 0
 577.794921875 10.8740234375 543.360351562 -6.828125 493.680664062 -6.830078125 c 0
 483.665039062 -6.830078125 473.037109375 -6.111328125 461.721679688 -4.4931640625 c 0
 403.6953125 3.8037109375 357.081054688 34.51171875 326.919921875 84.3134765625 c 0
 302.766601562 124.192382812 290 175.782226562 290 233.502929688 c 0
 290 272.036132812 298.836914062 312.068359375 315.555664062 349.272460938 c 0
 333.52734375 389.2578125 359.963867188 424.12109375 392.009765625 450.092773438 c 0
 420.090820312 472.850585938 451.9296875 488.611328125 486.642578125 496.935546875 c 0
 524.012695312 505.900390625 563.971679688 505.99609375 605.40625 497.22265625 c 0
 635.123046875 490.930664062 654.112304688 461.740234375 647.8203125 432.0234375 c 0
 641.529296875 402.305664062 612.342773438 383.317382812 582.62109375 389.608398438 c 0
 534.990234375 399.69140625 494.161132812 391.291015625 461.268554688 364.633789062 c 0
 442.530273438 349.447265625 426.837890625 328.541992188 415.889648438 304.1796875 c 0
 405.642578125 281.37890625 400 256.279296875 400 233.502929688 c 0
 400 196.413085938 407.461914062 163.666992188 421.009765625 141.296875 c 0
 434.060546875 119.749023438 451.9453125 108.024414062 477.291992188 104.400390625 c 0
 510.032226562 99.71875 527.452148438 108.676757812 553.82421875 122.23828125 c 0
 579.6328125 135.5078125 611.760742188 152.024414062 656.552734375 150.759765625 c 0
EndSplineSet
EndChar

StartChar: d
Encoding: 100 100 67
Width: 1000
Flags: H
LayerCount: 2
Fore
SplineSet
645.889648438 565.732421875 m 0
 675.997070312 471.40625 710.1171875 364.510742188 709.990234375 293.484375 c 0
 710.24609375 248.1484375 704.96875 206.649414062 694.303710938 170.129882812 c 0
 683.79296875 134.137695312 668.01171875 102.708984375 647.401367188 76.716796875 c 0
 608.029296875 27.06640625 551.823242188 -1.4306640625 489.13671875 -3.5244140625 c 0
 488.522460938 -3.5439453125 487.889648438 -3.6005859375 487.282226562 -3.5537109375 c 0
 430.338867188 -3.5556640625 379.484375 19.791015625 344.0703125 62.1884765625 c 0
 308.697265625 104.53515625 290 164.453125 290 235.462890625 c 0
 290 298.53125 306.408203125 356.388671875 337.44921875 402.779296875 c 0
 366.071289062 445.551757812 406.94140625 477.806640625 452.530273438 493.598632812 c 0
 454.444335938 494.26171875 456.392578125 494.819335938 458.368164062 495.266601562 c 0
 490.75 502.612304688 523.212890625 502.424804688 552.705078125 495.758789062 c 1
 548.782226562 508.211914062 544.873046875 520.45703125 541.098632812 532.284179688 c 0
 514.548828125 615.463867188 498.221679688 668.225585938 497.142578125 703.30859375 c 0
 496.209960938 733.670898438 520.06640625 759.040039062 550.426757812 759.973632812 c 0
 580.75390625 760.8828125 606.157226562 737.05078125 607.090820312 706.690429688 c 0
 607.750976562 685.219726562 628.8984375 618.966796875 645.889648438 565.732421875 c 0
561.211914062 145.064453125 m 0
 586.973632812 177.551757812 600.3828125 228.727539062 599.9921875 293.05859375 c 0
 599.991210938 293.223632812 599.991210938 293.388671875 599.991210938 293.553710938 c 0
 600.033203125 307.87890625 597.737304688 325.671875 593.846679688 345.6328125 c 1
 580.201171875 348.997070312 567.834960938 357.559570312 559.975585938 370.530273438 c 0
 553.633789062 380.993164062 525.560546875 396.598632812 485.727539062 388.638671875 c 0
 463.727539062 380.260742188 443.625976562 363.659179688 428.87109375 341.607421875 c 0
 409.983398438 313.379882812 400 276.67578125 400 235.462890625 c 0
 400 190.5546875 409.852539062 155.021484375 428.493164062 132.705078125 c 0
 442.869140625 115.494140625 462.344726562 106.663085938 486.385742188 106.44921875 c 0
 507.471679688 107.334960938 537.244140625 114.838867188 561.211914062 145.064453125 c 0
EndSplineSet
EndChar

StartChar: e
Encoding: 101 101 68
Width: 1000
Flags: H
LayerCount: 2
Fore
SplineSet
699.567382812 127.703125 m 0
 717.3671875 103.088867188 711.84375 68.7060546875 687.228515625 50.9052734375 c 0
 637.578125 14.9990234375 576.719726562 -3.6142578125 517.294921875 -3.6162109375 c 0
 477.8359375 -3.6181640625 439.014648438 4.5859375 404.501953125 21.3818359375 c 0
 334.951171875 55.228515625 293.322265625 119.373046875 290.291015625 197.366210938 c 0
 288.766601562 236.590820312 293.203125 274.477539062 303.475585938 309.974609375 c 0
 313.215820312 343.630859375 327.971679688 374.471679688 347.333007812 401.641601562 c 0
 385.532226562 455.249023438 440.057617188 491.041992188 496.926757812 499.841796875 c 0
 552.625976562 508.461914062 605.368164062 495.14453125 645.428710938 462.34375 c 0
 676.076171875 437.250976562 695.928710938 403.58984375 697.241210938 374.49609375 c 0
 698.03125 356.958007812 691.387695312 340.444335938 677.497070312 325.407226562 c 0
 659.494140625 305.91796875 622.946289062 282.978515625 579.731445312 264.041992188 c 0
 544.6015625 248.649414062 491.32421875 229.909179688 436.998046875 228.051757812 c 0
 423.619140625 227.596679688 411.17578125 231.961914062 401.370117188 239.590820312 c 1
 400.14453125 227.841796875 399.681640625 215.200195312 400.208984375 201.637695312 c 0
 401.676757812 163.875976562 419.31640625 136.506835938 452.637695312 120.291015625 c 0
 476.029296875 108.907226562 505.477539062 104.317382812 535.564453125 107.37109375 c 0
 567.546875 110.614257812 597.703125 121.911132812 622.768554688 140.040039062 c 0
 647.3828125 157.838867188 681.766601562 152.315429688 699.567382812 127.703125 c 0
513.750976562 391.135742188 m 0
 486.12890625 386.861328125 458.240234375 367.565429688 437.178710938 338.172851562 c 1
 465.01171875 339.828125 499.393554688 349.052734375 534.560546875 364.346679688 c 0
 548.34765625 370.342773438 560.081054688 376.336914062 569.553710938 381.708007812 c 1
 569.384765625 381.81640625 569.215820312 381.921875 569.043945312 382.029296875 c 0
 557.908203125 388.962890625 544.846679688 392.447265625 530.073242188 392.447265625 c 0
 524.84375 392.447265625 519.400390625 392.009765625 513.750976562 391.135742188 c 0
EndSplineSet
EndChar

StartChar: f
Encoding: 102 102 69
Width: 1000
Flags: H
LayerCount: 2
Fore
SplineSet
655 440.715820312 m 0
 685.375976562 440.715820312 710 416.091796875 710 385.71484375 c 0
 710 355.338867188 685.375976562 330.71484375 655 330.71484375 c 0
 620.969726562 330.71484375 581.106445312 327.712890625 540.15234375 322.452148438 c 1
 574.8671875 206.16796875 615.6015625 112.677734375 633.796875 87.59375 c 0
 651.630859375 63.0068359375 646.157226562 28.615234375 621.568359375 10.7802734375 c 0
 611.813476562 3.705078125 600.514648438 0.2978515625 589.3203125 0.2978515625 c 0
 572.297851562 0.2978515625 555.513671875 8.1748046875 544.75390625 23.0087890625 c 0
 513.392578125 66.2470703125 466.684570312 181.451171875 431.169921875 303.165039062 c 0
 431.141601562 303.258789062 431.116210938 303.352539062 431.087890625 303.448242188 c 0
 406.219726562 297.907226562 382.625 291.71875 361.524414062 285.072265625 c 0
 356.026367188 283.33984375 350.458007812 282.515625 344.984375 282.515625 c 0
 321.612304688 282.515625 299.934570312 297.532226562 292.540039062 321.005859375 c 0
 283.4140625 349.978515625 299.501953125 380.864257812 328.474609375 389.990234375 c 0
 351.548828125 397.258789062 376.962890625 403.991210938 403.611328125 410.022460938 c 1
 397.66796875 436.836914062 392.799804688 462.420898438 389.1484375 486.182617188 c 0
 378.912109375 552.78125 377.841796875 606.903320312 385.967773438 647.043945312 c 0
 394.400390625 688.69921875 413.056640625 718.513671875 441.419921875 735.662109375 c 0
 490.828125 765.533203125 531.23828125 762.51171875 556.438476562 754.717773438 c 0
 581.42578125 746.989257812 616.092773438 727.052734375 639.334960938 675.973632812 c 0
 651.916015625 648.326171875 639.702148438 615.713867188 612.053710938 603.1328125 c 0
 584.40625 590.552734375 551.794921875 602.767578125 539.213867188 630.415039062 c 0
 533.549804688 642.861328125 527.443359375 648.544921875 523.931640625 649.630859375 c 0
 520.159179688 650.795898438 511.82421875 649.439453125 499.584960938 642.275390625 c 0
 497.576171875 639.083984375 487.26953125 619.35546875 491.586914062 557.4140625 c 0
 494.083984375 521.583984375 501.033203125 478.088867188 511.918945312 429.669921875 c 1
 562.408203125 436.700195312 612.249023438 440.715820312 655 440.715820312 c 0
EndSplineSet
EndChar

StartChar: g
Encoding: 103 103 70
Width: 1000
Flags: H
LayerCount: 2
Fore
SplineSet
692.876953125 286.32421875 m 0
 707.55859375 206.907226562 712.958984375 106.879882812 708.495117188 -2.9453125 c 0
 705.252929688 -82.736328125 679.310546875 -143.586914062 631.389648438 -183.80859375 c 0
 592.200195312 -216.703125 546.326171875 -229.696289062 502.591796875 -238.836914062 c 0
 498.797851562 -239.629882812 495.010742188 -240.010742188 491.283203125 -240.010742188 c 0
 465.791992188 -240.013671875 442.923828125 -222.192382812 437.502929688 -196.251953125 c 0
 431.288085938 -166.517578125 450.353515625 -137.377929688 480.086914062 -131.163085938 c 0
 507.740234375 -125.383789062 539.053710938 -117.698242188 560.669921875 -99.5546875 c 0
 595.671875 -70.17578125 597.865234375 -16.2109375 598.584960938 1.5224609375 c 0
 600.13671875 39.7021484375 600.4140625 76.6484375 599.4453125 111.709960938 c 1
 563.184570312 66.16796875 515.321289062 38.1337890625 463.327148438 33.072265625 c 0
 421.935546875 29.044921875 384.491210938 41.037109375 355.038085938 67.7626953125 c 0
 330.998046875 89.5771484375 313.140625 120.297851562 301.96484375 159.072265625 c 0
 291.5546875 195.190429688 290 227.676757812 290 243.826171875 c 0
 290 289.755859375 307.990234375 332.592773438 323.08203125 360.440429688 c 0
 342.737304688 396.708984375 369.708007812 430.185546875 399.026367188 454.705078125 c 0
 441.857421875 490.524414062 486.47265625 505.506835938 528.055664062 498.03515625 c 0
 551.176757812 493.87890625 568.307617188 475.8359375 572.400390625 454.04296875 c 1
 583.6953125 456.608398438 595.78125 455.606445312 606.8828125 450.678710938 c 0
 648.21484375 432.3359375 675.540039062 380.112304688 692.876953125 286.32421875 c 0
552.883789062 290.284179688 m 0
 554.389648438 321.381835938 548.485351562 350.666015625 535.807617188 374.970703125 c 0
 533.25390625 379.8671875 531.497070312 385.017578125 530.513671875 390.25390625 c 1
 523.524414062 388.662109375 516.10546875 388.419921875 508.599609375 389.768554688 c 0
 508.1640625 389.846679688 507.661132812 389.887695312 507.095703125 389.887695312 c 0
 500.900390625 389.887695312 487.100585938 384.965820312 469.59375 370.32421875 c 0
 431.219726562 338.231445312 400 281.484375 400 243.826171875 c 0
 400 210.703125 410.1484375 166.291992188 428.956054688 149.2265625 c 0
 433.59765625 145.014648438 439.684570312 141.28515625 452.66796875 142.5546875 c 0
 481.561523438 145.3671875 509.44140625 167.852539062 529.157226562 204.245117188 c 0
 543.0078125 229.814453125 551.434570312 260.369140625 552.883789062 290.284179688 c 0
EndSplineSet
EndChar

StartChar: h
Encoding: 104 104 71
Width: 1000
Flags: H
LayerCount: 2
Fore
SplineSet
690.330078125 267.103515625 m 0
 697.67578125 228.548828125 710 147.091796875 710 34.7314453125 c 0
 710 4.35546875 685.375976562 -20.2685546875 655 -20.2685546875 c 0
 624.624023438 -20.2685546875 600 4.35546875 600 34.7314453125 c 0
 600 79.0810546875 597.697265625 165.569335938 582.2734375 246.515625 c 0
 563.952148438 342.674804688 537.862304688 373.80859375 527.495117188 382.731445312 c 0
 522.1796875 387.3046875 517.74609375 389.154296875 513.287109375 389.564453125 c 1
 508.651367188 381.686523438 498.822265625 359.439453125 490.610351562 303.680664062 c 0
 482.918945312 251.466796875 479.049804688 187.327148438 475.63671875 130.736328125 c 0
 473.915039062 102.18359375 472.288085938 75.21484375 470.274414062 50.5146484375 c 0
 467.935546875 21.82421875 443.936523438 -0.015625 415.502929688 -0.017578125 c 0
 414.446289062 -0.017578125 413.385742188 0.01171875 412.318359375 0.07421875 c 0
 382.509765625 1.77734375 359.505859375 26.9501953125 360.486328125 56.7900390625 c 0
 362.774414062 126.436523438 340.737304688 286.0390625 321.294921875 426.8515625 c 0
 304.3984375 549.233398438 289.803710938 654.92578125 290.001953125 705.215820312 c 0
 290.12109375 735.517578125 314.72265625 760 344.997070312 760 c 0
 345.071289062 760 345.143554688 760 345.217773438 760 c 0
 375.592773438 759.879882812 400.12109375 735.159179688 400.000976562 704.78515625 c 0
 399.842773438 664.536132812 413.69921875 561.973632812 427.869140625 459.228515625 c 1
 441.700195312 477.327148438 461.73828125 493.766601562 490.047851562 498.03125 c 0
 530.198242188 504.076171875 567.958007812 493.037109375 599.251953125 466.103515625 c 0
 642.041015625 429.276367188 671.833007812 364.182617188 690.330078125 267.103515625 c 0
EndSplineSet
EndChar

StartChar: i
Encoding: 105 105 72
Width: 1000
Flags: H
LayerCount: 2
Fore
SplineSet
687.58203125 190.873046875 m 0
 712.063476562 172.890625 717.30859375 138.436523438 699.327148438 113.95703125 c 0
 698.278320312 112.528320312 673.251953125 78.6337890625 640.555664062 49.23828125 c 0
 618.739257812 29.6240234375 598.362304688 16.1240234375 578.2578125 7.9658203125 c 0
 562.301757812 1.490234375 547.884765625 -0.9697265625 535.192382812 -0.9697265625 c 0
 510.780273438 -0.9697265625 492.735351562 8.126953125 482.337890625 15.265625 c 0
 450.131835938 37.3798828125 431.45703125 78.05078125 423.567382812 143.26171875 c 0
 418.622070312 184.125976562 417.88671875 235.962890625 421.383789062 297.33203125 c 0
 423.484375 334.19921875 426.830078125 369.971679688 430.276367188 400.810546875 c 1
 401.684570312 394.615234375 373.958007812 392.782226562 347.137695312 391.739257812 c 0
 316.771484375 390.55859375 291.221679688 414.208007812 290.041992188 444.559570312 c 0
 288.862304688 474.912109375 312.509765625 500.474609375 342.86328125 501.65625 c 0
 396.323242188 503.735351562 430.211914062 509.252929688 467.077148438 533.638671875 c 0
 485.318359375 545.70703125 508.975585938 545.818359375 527.331054688 533.923828125 c 0
 545.684570312 522.030273438 555.249023438 500.391601562 551.686523438 478.811523438 c 0
 551.549804688 477.981445312 537.780273438 393.737304688 531.875976562 302.106445312 c 0
 528.497070312 249.663085938 528.318359375 205.321289062 531.34375 170.314453125 c 0
 534.0703125 138.783203125 538.89453125 121.453125 542.374023438 112.565429688 c 1
 549.971679688 116.852539062 562.07421875 125.509765625 578.077148438 141.579101562 c 0
 596.813476562 160.392578125 610.581054688 178.951171875 610.71875 179.13671875 c 0
 628.701171875 203.618164062 663.1015625 208.85546875 687.58203125 190.873046875 c 0
457.641601562 621.603515625 m 2
 414.279296875 667.016601562 l 2
 393.301757812 688.986328125 394.106445312 723.80078125 416.075195312 744.778320312 c 0
 438.043945312 765.754882812 472.858398438 764.952148438 493.8359375 742.982421875 c 2
 537.19921875 697.569335938 l 2
 558.174804688 675.599609375 557.372070312 640.78515625 535.403320312 619.807617188 c 0
 524.750976562 609.635742188 511.078125 604.5859375 497.427734375 604.5859375 c 0
 482.92578125 604.5859375 468.448242188 610.287109375 457.641601562 621.603515625 c 2
EndSplineSet
EndChar

StartChar: j
Encoding: 106 106 73
Width: 1000
Flags: H
LayerCount: 2
Fore
SplineSet
653.6796875 -174.6953125 m 0
 654.865234375 -202.349609375 635.314453125 -226.576171875 608.034179688 -231.258789062 c 0
 574.047851562 -237.090820312 544.033203125 -239.990234375 517.303710938 -239.990234375 c 0
 503.467773438 -239.990234375 490.513671875 -239.213867188 478.340820312 -237.665039062 c 0
 400.298828125 -227.739257812 366.186523438 -187.149414062 351.313476562 -154.845703125 c 0
 338.608398438 -127.254882812 350.67578125 -94.5888671875 378.266601562 -81.8837890625 c 0
 405.856445312 -69.1767578125 438.5234375 -81.24609375 451.228515625 -108.837890625 c 0
 452.767578125 -112.1796875 455.250976562 -116.109375 461.99609375 -119.916015625 c 0
 469.157226562 -123.95703125 479.609375 -126.940429688 492.220703125 -128.543945312 c 0
 506.017578125 -130.298828125 522.016601562 -130.494140625 540.533203125 -129.111328125 c 1
 529.415039062 1.623046875 498.141601562 138.245117188 470.173828125 260.436523438 c 0
 448.90234375 353.373046875 430.532226562 433.634765625 425 495.068359375 c 0
 422.276367188 525.321289062 444.592773438 552.0546875 474.845703125 554.779296875 c 0
 505.102539062 557.508789062 531.83203125 535.185546875 534.556640625 504.932617188 c 0
 539.420898438 450.91796875 557.021484375 374.01953125 577.401367188 284.98046875 c 0
 608.4140625 149.481445312 647.01171875 -19.15234375 653.6796875 -174.6953125 c 0
429.1328125 655.8671875 m 2
 417.80078125 685.1484375 l 2
 406.837890625 713.475585938 420.9140625 745.329101562 449.2421875 756.291992188 c 0
 477.5703125 767.2578125 509.421875 753.178710938 520.384765625 724.850585938 c 2
 531.717773438 695.5703125 l 2
 542.680664062 667.2421875 528.60546875 635.388671875 500.27734375 624.42578125 c 0
 493.750976562 621.901367188 487.0390625 620.704101562 480.438476562 620.704101562 c 0
 458.3828125 620.704101562 437.571289062 634.064453125 429.1328125 655.8671875 c 2
EndSplineSet
EndChar

StartChar: k
Encoding: 107 107 74
Width: 1000
Flags: H
LayerCount: 2
Fore
SplineSet
708.580078125 36.8623046875 m 0
 715.438476562 7.271484375 697.008789062 -22.2763671875 667.416992188 -29.134765625 c 0
 663.241210938 -30.1025390625 659.061523438 -30.5673828125 654.952148438 -30.568359375 c 0
 629.934570312 -30.5703125 607.310546875 -13.3876953125 601.419921875 12.0283203125 c 0
 589.823242188 62.072265625 574.430664062 94.1337890625 551.514648438 115.98828125 c 0
 533.431640625 133.233398438 508.278320312 146.37109375 471.859375 157.310546875 c 1
 476.137695312 125.845703125 480.751953125 94.232421875 485.787109375 62.7548828125 c 0
 490.584960938 32.7607421875 470.159179688 4.5556640625 440.165039062 -0.2421875 c 0
 437.22265625 -0.7119140625 434.296875 -0.9404296875 431.41015625 -0.9404296875 c 0
 404.862304688 -0.9404296875 381.495117188 18.3271484375 377.16796875 45.3798828125 c 0
 357.333007812 169.377929688 343.989257812 294.126953125 332.21484375 404.19140625 c 0
 319.004882812 527.686523438 307.595703125 634.340820312 292.018554688 690.235351562 c 0
 283.864257812 719.49609375 300.974609375 749.827148438 330.235351562 757.981445312 c 0
 359.499023438 766.135742188 389.827148438 749.025390625 397.981445312 719.764648438 c 0
 412.517578125 667.602539062 422.67578125 588.831054688 433.564453125 490.1796875 c 1
 498.577148438 506.4453125 581.819335938 507.390625 638.897460938 473.225585938 c 0
 673.327148438 452.616210938 695.25 420.514648438 700.626953125 382.834960938 c 0
 708.985351562 324.267578125 679.630859375 268.5546875 617.973632812 225.95703125 c 0
 613.116210938 222.600585938 608.033203125 219.317382812 602.762695312 216.123046875 c 1
 611.545898438 209.758789062 619.732421875 202.93359375 627.428710938 195.592773438 c 0
 666.283203125 158.541015625 692.069335938 108.102539062 708.580078125 36.8623046875 c 0
586.4453125 346.424804688 m 0
 592.399414062 356.026367188 592.397460938 362.622070312 591.73046875 367.294921875 c 0
 591.359375 369.890625 590.798828125 373.81640625 582.400390625 378.842773438 c 0
 555.12890625 395.166992188 493.7734375 395.109375 445.51953125 379.24609375 c 1
 449.157226562 345.46875 452.983398438 310.540039062 457.125976562 274.905273438 c 1
 492.834960938 283.166015625 529.640625 298.630859375 555.448242188 316.459960938 c 0
 569.659179688 326.279296875 580.377929688 336.639648438 586.4453125 346.424804688 c 0
EndSplineSet
EndChar

StartChar: l
Encoding: 108 108 75
Width: 1000
Flags: H
LayerCount: 2
Fore
SplineSet
700.961914062 136.38671875 m 0
 717.646484375 111.002929688 710.591796875 76.900390625 685.206054688 60.2177734375 c 0
 684.120117188 59.5048828125 658.251953125 42.5615234375 626.705078125 26.9013671875 c 0
 587.193359375 7.2861328125 555.41015625 -2.2490234375 528.85546875 -2.2490234375 c 0
 520.537109375 -2.2490234375 512.733398438 -1.3134765625 505.36328125 0.541015625 c 0
 483.634765625 6.0078125 465.970703125 19.5380859375 455.627929688 38.6376953125 c 0
 425.4453125 94.3701171875 411.438476562 158.095703125 412.8046875 233.45703125 c 0
 413.955078125 296.793945312 425.69140625 362.674804688 437.041992188 426.38671875 c 0
 449.073242188 493.918945312 461.413085938 563.18359375 461.890625 631.5859375 c 1
 429.08203125 619.467773438 390.38671875 606.326171875 350.803710938 602.125 c 0
 320.598632812 598.91796875 293.51171875 620.807617188 290.306640625 651.013671875 c 0
 287.1015625 681.219726562 308.990234375 708.3046875 339.196289062 711.510742188 c 0
 370.663085938 714.849609375 407.598632812 728.686523438 437.278320312 739.8046875 c 0
 468.575195312 751.529296875 491.186523438 760 512.723632812 760 c 0
 540.430664062 760 563.811523438 739.389648438 567.2890625 711.90234375 c 0
 580.721679688 605.708984375 562.733398438 504.739257812 545.336914062 407.092773438 c 0
 525.142578125 293.745117188 507.50390625 194.703125 542.86328125 110.795898438 c 1
 551.534179688 113.5078125 564.670898438 118.6171875 583.368164062 128.247070312 c 0
 606.15234375 139.982421875 624.612304688 152.024414062 624.79296875 152.141601562 c 0
 650.174804688 168.825195312 684.279296875 161.772460938 700.961914062 136.38671875 c 0
EndSplineSet
EndChar

StartChar: m
Encoding: 109 109 76
Width: 1000
Flags: H
LayerCount: 2
Fore
SplineSet
699.267578125 274.451171875 m 0
 707.137695312 179.12109375 710.408203125 79.662109375 709.956054688 53.076171875 c 0
 709.442382812 23.0263671875 684.919921875 -0.984375 654.982421875 -0.9853515625 c 0
 654.663085938 -0.9853515625 654.344726562 -0.982421875 654.024414062 -0.9765625 c 0
 623.653320312 -0.4580078125 599.452148438 24.5830078125 599.970703125 54.955078125 c 0
 600.296875 73.970703125 598.116210938 145.227539062 592.907226562 221.874023438 c 1
 586.209960938 183.791992188 582.016601562 155.91796875 581.95703125 155.51953125 c 0
 577.51953125 125.912109375 550.211914062 105.297851562 520.526367188 109.123046875 c 0
 490.834960938 112.954101562 469.66015625 139.829101562 472.883789062 169.592773438 c 0
 476.391601562 201.991210938 474.908203125 246.389648438 468.971679688 291.069335938 c 1
 466.287109375 277.864257812 463.547851562 263.321289062 460.793945312 247.331054688 c 0
 447.735351562 171.516601562 439.986328125 93.2470703125 441.94921875 56.9912109375 c 0
 443.572265625 27.029296875 420.880859375 1.296875 390.952148438 -0.84375 c 0
 389.618164062 -0.939453125 388.291015625 -0.986328125 386.974609375 -0.986328125 c 0
 358.741210938 -0.986328125 334.783203125 20.5908203125 332.245117188 49.1474609375 c 0
 328.704101562 88.9853515625 326.013671875 127.390625 323.411132812 164.532226562 c 0
 316.52734375 262.78515625 310.58203125 347.639648438 292.990234375 398.796875 c 0
 283.112304688 427.522460938 298.389648438 458.815429688 327.115234375 468.693359375 c 0
 354.934570312 478.259765625 385.16015625 464.233398438 396.01171875 437.248046875 c 1
 406.856445312 462.686523438 418.55859375 478.42578125 433.4453125 488.51953125 c 0
 452.611328125 501.515625 476.295898438 503.615234375 496.799804688 494.130859375 c 0
 512.485351562 486.876953125 525.426757812 474.286132812 536.466796875 455.293945312 c 1
 547.166992188 480.510742188 558.783203125 495.188476562 574.176757812 504.161132812 c 0
 590.568359375 513.713867188 609.963867188 515.357421875 627.390625 508.66796875 c 0
 657.517578125 497.1015625 668.092773438 466.30859375 671.569335938 456.190429688 c 0
 676.034179688 443.190429688 680.01953125 426.629882812 683.752929688 405.561523438 c 0
 689.580078125 372.682617188 694.798828125 328.572265625 699.267578125 274.451171875 c 0
EndSplineSet
EndChar

StartChar: n
Encoding: 110 110 77
Width: 1000
Flags: H
LayerCount: 2
Fore
SplineSet
703.740234375 80.78515625 m 0
 717.814453125 53.8671875 707.401367188 20.6357421875 680.482421875 6.5634765625 c 0
 672.345703125 2.3095703125 663.631835938 0.29296875 655.044921875 0.2919921875 c 0
 635.223632812 0.2919921875 616.078125 11.0380859375 606.258789062 29.8212890625 c 0
 589.361328125 62.140625 584.668945312 110.783203125 578.73046875 172.366210938 c 0
 573.48828125 226.719726562 567.544921875 288.326171875 552.387695312 334.786132812 c 0
 539.018554688 375.767578125 524.057617188 388.522460938 513.7421875 392.833007812 c 1
 509.014648438 385.774414062 500.872070312 370.48046875 491.865234375 339.790039062 c 0
 482.551757812 308.056640625 474.397460938 267.274414062 467.626953125 218.57421875 c 0
 455.787109375 133.408203125 452.48828125 53.8916015625 452.456054688 53.0986328125 c 0
 451.297851562 24.365234375 428.202148438 1.369140625 399.463867188 0.3427734375 c 0
 370.73046875 -0.7001953125 346.046875 20.5947265625 342.841796875 49.1728515625 c 0
 338.318359375 89.5078125 334.955078125 131.340820312 331.703125 171.795898438 c 0
 327.526367188 223.759765625 323.580078125 272.841796875 317.672851562 313.19140625 c 0
 309.89453125 366.315429688 301.591796875 381.994140625 299.232421875 385.53515625 c 0
 282.385742188 410.810546875 289.219726562 444.958007812 314.49609375 461.8046875 c 0
 339.772460938 478.65234375 373.918945312 471.817382812 390.765625 446.541015625 c 0
 395.852539062 438.908203125 400.334960938 430.313476562 404.318359375 420.70703125 c 1
 419.36328125 454.708007812 434.470703125 471.607421875 446.971679688 482.181640625 c 0
 467.932617188 499.9140625 492.55859375 507.55859375 518.194335938 504.298828125 c 0
 554.708984375 499.651367188 585.946289062 482.877929688 611.036132812 454.443359375 c 0
 630.27734375 432.63671875 645.299804688 404.657226562 656.96484375 368.90234375 c 0
 675.875976562 310.93359375 682.434570312 242.926757812 688.22265625 182.92578125 c 0
 690.698242188 157.25 693.038085938 132.999023438 696.048828125 113.455078125 c 0
 699.784179688 89.21875 703.111328125 81.9892578125 703.740234375 80.78515625 c 0
EndSplineSet
EndChar

StartChar: o
Encoding: 111 111 78
Width: 1000
Flags: H
LayerCount: 2
Fore
SplineSet
662.76171875 388.203125 m 0
 692.782226562 339.302734375 710 281.708007812 710 230.184570312 c 0
 710 172.638671875 686.436523438 113.56640625 645.350585938 68.1162109375 c 0
 603.440429688 21.751953125 548.924804688 -4.83984375 495.783203125 -4.83984375 c 0
 444.16015625 -4.83984375 392.08203125 21.44140625 352.901367188 67.2646484375 c 0
 312.338867188 114.706054688 290 178.765625 290 247.646484375 c 0
 290 306.477539062 312.5 368.385742188 351.733398438 417.495117188 c 0
 392.903320312 469.030273438 445.407226562 498.586914062 495.784179688 498.586914062 c 0
 513.909179688 498.586914062 529.985351562 489.8203125 540.004882812 476.295898438 c 0
 540.692382812 476.322265625 541.37890625 476.334960938 542.067382812 476.334960938 c 0
 566.82421875 476.334960938 591.35546875 466.09375 614.978515625 445.8984375 c 0
 632.000976562 431.345703125 648.524414062 411.39453125 662.76171875 388.203125 c 0
563.749023438 141.879882812 m 0
 586.787109375 167.365234375 600 199.551757812 600 230.184570312 c 0
 600 258.1953125 590.71875 291.333007812 574.537109375 321.098632812 c 0
 565.032226562 338.583007812 555.427734375 350.682617188 548.037109375 358.12109375 c 1
 546.708984375 355.859375 545.208984375 353.171875 543.532226562 349.985351562 c 0
 529.388671875 323.102539062 496.129882812 312.77734375 469.249023438 326.919921875 c 0
 456.986328125 333.373046875 448.166992188 343.803710938 443.545898438 355.791015625 c 1
 441.581054688 353.58984375 439.62109375 351.2734375 437.67578125 348.837890625 c 0
 413.732421875 318.866210938 400 281.983398438 400 247.646484375 c 0
 400 204.958007812 412.96484375 166.284179688 436.506835938 138.750976562 c 0
 450.390625 122.51171875 473.25390625 105.16015625 495.783203125 105.16015625 c 0
 517.232421875 105.16015625 543.275390625 119.231445312 563.749023438 141.879882812 c 0
EndSplineSet
EndChar

StartChar: p
Encoding: 112 112 79
Width: 1000
Flags: H
LayerCount: 2
Fore
SplineSet
657.15625 406.03515625 m 0
 697.90234375 356.875 715.633789062 292.484375 708.435546875 219.82421875 c 0
 704.924804688 184.377929688 692.739257812 147.884765625 673.196289062 114.290039062 c 0
 655.280273438 83.4912109375 632.1328125 56.4580078125 606.259765625 36.111328125 c 0
 575.159179688 11.6552734375 543.055664062 -1.0009765625 512.53515625 -1.001953125 c 0
 507.705078125 -1.0029296875 502.920898438 -0.6865234375 498.178710938 -0.048828125 c 0
 471.123046875 3.2470703125 448.890625 8.107421875 429.713867188 15.056640625 c 1
 429.95703125 -8.3701171875 430.157226562 -32.029296875 430.358398438 -55.8466796875 c 0
 430.711914062 -97.84375 431.079101562 -141.26953125 431.694335938 -184.211914062 c 0
 432.12890625 -214.583984375 407.861328125 -239.557617188 377.48828125 -239.994140625 c 0
 377.220703125 -239.998046875 376.94921875 -240 376.682617188 -240 c 0
 346.671875 -240 322.135742188 -215.893554688 321.704101562 -185.788085938 c 0
 321.083984375 -142.522460938 320.715820312 -98.9296875 320.360351562 -56.775390625 c 0
 318.708007812 139.022460938 317.147460938 323.959960938 291.220703125 444.91796875 c 0
 284.85546875 474.619140625 303.772460938 503.857421875 333.47265625 510.22265625 c 0
 356.129882812 515.08203125 378.504882812 505.213867188 390.67578125 487.080078125 c 1
 415.8203125 498.19140625 443.3359375 502.15625 471.120117188 498.561523438 c 0
 510.848632812 493.420898438 546.721679688 483.05859375 577.7421875 467.762695312 c 0
 609.444335938 452.129882812 636.163085938 431.362304688 657.15625 406.03515625 c 0
598.969726562 230.669921875 m 0
 610.325195312 345.268554688 528.036132812 380.280273438 457.006835938 389.470703125 c 0
 436.447265625 392.137695312 421.883789062 379.567382812 418.654296875 372.249023438 c 0
 417.517578125 369.67578125 416.20703125 367.235351562 414.745117188 364.9296875 c 0
 421.619140625 301.948242188 425.22265625 231.359375 427.282226562 156.213867188 c 0
 427.423828125 155.971679688 427.575195312 155.739257812 427.713867188 155.494140625 c 0
 442.176757812 129.948242188 452.487304688 116.283203125 511.818359375 109.102539062 c 0
 512.03515625 109.077148438 512.252929688 109.048828125 512.470703125 109.01953125 c 0
 518.220703125 109.193359375 537.439453125 117.682617188 558.724609375 142.358398438 c 0
 581.337890625 168.569335938 596.006835938 200.7578125 598.969726562 230.669921875 c 0
EndSplineSet
EndChar

StartChar: q
Encoding: 113 113 80
Width: 1000
Flags: H
LayerCount: 2
Fore
SplineSet
704.1484375 -160.314453125 m 0
 717.782226562 -187.458007812 706.830078125 -220.515625 679.685546875 -234.150390625 c 0
 671.766601562 -238.126953125 663.33984375 -240.01171875 655.04296875 -240.01171875 c 0
 634.903320312 -240.013671875 615.506835938 -228.911132812 605.850585938 -209.685546875 c 0
 580.129882812 -158.475585938 570.471679688 -85.0087890625 566.920898438 2.2041015625 c 1
 550.015625 -3.6728515625 532.046875 -6.7109375 513.399414062 -6.7109375 c 0
 482.879882812 -6.7109375 452.637695312 -2.4765625 425.94140625 5.5361328125 c 0
 390.765625 16.091796875 361.540039062 32.9638671875 339.077148438 55.6845703125 c 0
 306.516601562 88.6171875 289.555664062 133.0234375 290.008789062 184.139648438 c 0
 289.505859375 258.73828125 327.866210938 340.518554688 395.323242188 408.614257812 c 0
 455.12109375 468.9765625 524.040039062 505.014648438 579.68359375 505.014648438 c 0
 585.375976562 505.014648438 590.865234375 504.151367188 596.029296875 502.545898438 c 0
 606.685546875 505.850585938 618.321289062 505.911132812 629.3828125 502.302734375 c 0
 650.244140625 495.497070312 665.064453125 476.942382812 667.088867188 455.090820312 c 0
 670.827148438 414.756835938 672.833984375 372.8515625 673.896484375 330.377929688 c 0
 674.940429688 324.063476562 675.999023438 317.732421875 677.049804688 311.452148438 c 0
 684.513671875 266.852539062 690.959960938 228.336914062 690.959960938 202.803710938 c 0
 690.959960938 171.42578125 685.42578125 141.041015625 674.963867188 113.573242188 c 1
 675.325195312 -1.330078125 678.953125 -110.150390625 704.1484375 -160.314453125 c 0
564.98046875 175.759765625 m 0
 565.073242188 223.704101562 565.16796875 272.508789062 564.099609375 320.23046875 c 0
 559.786132812 346.727539062 556.407226562 369.284179688 554.385742188 388.690429688 c 1
 531.73046875 379.34765625 501.825195312 359.825195312 473.469726562 331.201171875 c 0
 427.046875 284.337890625 399.584960938 229.536132812 400.0078125 184.6015625 c 0
 400.010742188 184.220703125 400.010742188 183.83984375 400.006835938 183.458984375 c 0
 399.674804688 154.262695312 409.715820312 140.692382812 417.297851562 133.024414062 c 0
 435.70703125 114.405273438 471.631835938 103.2890625 513.3984375 103.2890625 c 0
 531.220703125 103.2890625 546.455078125 111.534179688 558.678710938 127.795898438 c 0
 560.9140625 130.768554688 563 133.95703125 564.92578125 137.327148438 c 0
 564.9296875 149.984375 564.955078125 162.8046875 564.98046875 175.759765625 c 0
EndSplineSet
EndChar

StartChar: r
Encoding: 114 114 81
Width: 1000
Flags: H
LayerCount: 2
Fore
SplineSet
669.612304688 483.772460938 m 0
 698.896484375 475.702148438 716.09375 445.419921875 708.022460938 416.134765625 c 0
 699.950195312 386.8515625 669.671875 369.655273438 640.385742188 377.723632812 c 0
 602.182617188 388.252929688 568.845703125 391.153320312 541.301757812 386.342773438 c 0
 518.600585938 382.379882812 500.455078125 373.369140625 485.825195312 358.797851562 c 0
 463.197265625 336.259765625 448.803710938 299.45703125 444.201171875 252.368164062 c 0
 441.200195312 221.668945312 442.405273438 187.08984375 447.658203125 150.03125 c 0
 452.787109375 121.743164062 458.28515625 93.943359375 464.649414062 68.7978515625 c 0
 472.056640625 39.5283203125 454.484375 9.7578125 425.278320312 2.1005859375 c 0
 420.606445312 0.8759765625 415.91015625 0.2900390625 411.294921875 0.2900390625 c 0
 387.05859375 0.287109375 364.889648438 16.423828125 358.249023438 40.90234375 c 0
 349.475585938 73.240234375 342.94140625 104.530273438 338.655273438 134.651367188 c 0
 336.205078125 148.283203125 333.84375 161.930664062 331.506835938 175.44140625 c 0
 320.97265625 236.3359375 310.081054688 299.303710938 293.6484375 342.141601562 c 0
 282.768554688 370.502929688 296.940429688 402.313476562 325.30078125 413.192382812 c 0
 344.875976562 420.69921875 366.095703125 416.274414062 380.94140625 403.487304688 c 1
 389.069335938 415.638671875 398.170898438 426.745117188 408.201171875 436.735351562 c 0
 450.920898438 479.28515625 530.948242188 521.985351562 669.612304688 483.772460938 c 0
EndSplineSet
EndChar

StartChar: s
Encoding: 115 115 82
Width: 1000
Flags: H
LayerCount: 2
Fore
SplineSet
681.11328125 207.330078125 m 0
 700.28125 183.7890625 710 158.823242188 710 133.127929688 c 0
 710 103.38671875 698.419921875 76.1484375 676.51171875 54.359375 c 0
 660.97265625 38.904296875 640.185546875 26.25 614.727539062 16.7490234375 c 0
 564.25 -2.0888671875 509.360351562 -3.552734375 493.739257812 -3.552734375 c 0
 449.984375 -3.552734375 420.975585938 -1.1962890625 396.7421875 4.3251953125 c 0
 364.422851562 11.6904296875 338.907226562 25.541015625 318.737304688 46.6708984375 c 0
 297.763671875 68.642578125 298.573242188 103.45703125 320.544921875 124.431640625 c 0
 342.516601562 145.40625 377.331054688 144.596679688 398.305664062 122.624023438 c 0
 411.165039062 109.153320312 444.356445312 106.447265625 493.740234375 106.447265625 c 0
 517.3671875 106.447265625 543.892578125 110.0234375 564.698242188 116.012695312 c 0
 586.53125 122.298828125 596.432617188 129.529296875 599.424804688 132.8046875 c 1
 596.983398438 137.172851562 587.77734375 149.798828125 555.553710938 170.87109375 c 0
 524.685546875 191.056640625 485.401367188 210.84375 447.41015625 229.978515625 c 0
 412.461914062 247.581054688 379.452148438 264.20703125 353.634765625 280.80859375 c 0
 337.373046875 291.264648438 324.91015625 301.150390625 315.533203125 311.026367188 c 0
 298.58984375 328.87109375 290 348.44921875 290 369.216796875 c 0
 290 383.372070312 294.833007812 404.1484375 317.858398438 422.744140625 c 0
 325.7890625 429.149414062 335.772460938 435.263671875 348.375976562 441.436523438 c 0
 372.344726562 453.17578125 401.852539062 463.131835938 422.38671875 469.41796875 c 0
 470.484375 484.140625 538.380859375 499.873046875 584.698242188 499.873046875 c 0
 615.07421875 499.873046875 639.698242188 475.248046875 639.698242188 444.873046875 c 0
 639.698242188 414.498046875 615.07421875 389.873046875 584.698242188 389.873046875 c 0
 561.358398438 389.873046875 517.884765625 382.022460938 473.946289062 369.87109375 c 0
 460.3515625 366.112304688 448.26953125 362.385742188 437.73828125 358.845703125 c 1
 455.20703125 349.216796875 475.564453125 338.962890625 496.891601562 328.220703125 c 0
 542.110351562 305.4453125 588.869140625 281.893554688 627.083007812 255.296875 c 0
 650.338867188 239.111328125 668.010742188 223.420898438 681.11328125 207.330078125 c 0
EndSplineSet
EndChar

StartChar: t
Encoding: 116 116 83
Width: 1000
Flags: H
LayerCount: 2
Fore
SplineSet
678.056640625 204.771484375 m 0
 705.634765625 192.037109375 717.66796875 159.358398438 704.932617188 131.779296875 c 0
 685.1015625 88.833984375 658.921875 55.7060546875 627.116210938 33.3154296875 c 0
 594.78515625 10.5546875 557.224609375 -0.9853515625 515.48046875 -0.9853515625 c 0
 481.481445312 -0.9853515625 442.571289062 3.4873046875 411.767578125 36.6494140625 c 0
 387.958984375 62.2822265625 373.669921875 100.365234375 363.989257812 163.990234375 c 0
 363.778320312 165.375 363.620117188 166.768554688 363.515625 168.166015625 c 0
 360.79296875 204.623046875 360.524414062 244.319335938 361.704101562 285.717773438 c 1
 356.12109375 285.555664062 350.547851562 285.44921875 345 285.44921875 c 0
 314.625 285.44921875 290 310.07421875 290 340.44921875 c 0
 290 370.82421875 314.625 395.44921875 345 395.44921875 c 0
 352.411132812 395.44921875 359.876953125 395.650390625 367.3828125 396.006835938 c 1
 369.275390625 423.719726562 371.41015625 451.591796875 373.52734375 479.224609375 c 0
 380.0390625 564.198242188 386.189453125 644.45703125 383.6484375 702.59765625 c 0
 382.321289062 732.9453125 405.846679688 758.62109375 436.194335938 759.947265625 c 0
 466.553710938 761.26171875 492.216796875 737.748046875 493.54296875 707.401367188 c 0
 496.373046875 642.650390625 489.9765625 559.184570312 483.206054688 470.8203125 c 0
 481.75 451.819335938 480.28515625 432.700195312 478.901367188 413.6328125 c 1
 483.955078125 414.967773438 489.014648438 416.35546875 494.084960938 417.8359375 c 0
 536.658203125 430.26953125 579.952148438 447.874023438 622.766601562 470.161132812 c 0
 649.711914062 484.185546875 682.923828125 473.712890625 696.948242188 446.768554688 c 0
 710.97265625 419.825195312 700.5 386.61328125 673.555664062 372.587890625 c 0
 624.3828125 346.9921875 574.375976562 326.69140625 524.924804688 312.247070312 c 0
 507.306640625 307.100585938 489.720703125 302.713867188 472.202148438 299.041992188 c 1
 470.581054688 255.801757812 470.459960938 214.8359375 473.057617188 178.458007812 c 0
 481.880859375 121.778320312 491.7265625 112.041015625 492.571289062 111.299804688 c 0
 493.21875 110.9609375 497.717773438 109.015625 515.481445312 109.015625 c 0
 566.694335938 109.015625 590.258789062 145.826171875 605.067382812 177.89453125 c 0
 617.799804688 205.469726562 650.481445312 217.506835938 678.056640625 204.771484375 c 0
EndSplineSet
EndChar

StartChar: u
Encoding: 117 117 84
Width: 1000
Flags: H
LayerCount: 2
Fore
SplineSet
693.717773438 110.497070312 m 0
 715.291992188 89.11328125 715.446289062 54.2900390625 694.06640625 32.716796875 c 0
 672.682617188 11.142578125 637.858398438 10.98828125 616.28515625 32.37109375 c 0
 601.900390625 46.62890625 590.17578125 64.0712890625 580.861328125 85.3349609375 c 1
 564.806640625 54.36328125 547.162109375 31.720703125 527.362304688 16.578125 c 0
 507.771484375 1.595703125 485.90625 -6.1298828125 463.442382812 -6.130859375 c 0
 458.889648438 -6.130859375 454.31640625 -5.8154296875 449.727539062 -5.17578125 c 0
 391.235351562 2.9599609375 346.103515625 37.740234375 319.212890625 95.4033203125 c 0
 287.120117188 164.221679688 287.204101562 253.853515625 292.924804688 316.9296875 c 0
 297.965820312 372.50390625 311.330078125 444.985351562 328.76171875 472.796875 c 0
 344.893554688 498.53515625 378.834960938 506.322265625 404.57421875 490.19140625 c 0
 429.671875 474.459960938 437.702148438 441.791992188 423.125976562 416.311523438 c 0
 418.284179688 404.953125 405.780273438 355.938476562 401.440429688 294.15234375 c 0
 396.584960938 225.03125 403.948242188 168.661132812 422.172851562 135.42578125 c 0
 434.397460938 113.134765625 448.966796875 106.737304688 461.08984375 104.399414062 c 1
 468.137695312 110.159179688 494.919921875 138.521484375 523.807617188 252.646484375 c 0
 542.913085938 328.122070312 552.227539062 400.03515625 552.3203125 400.751953125 c 0
 556.004882812 429.536132812 581.44140625 450.510742188 610.37890625 448.6640625 c 0
 639.338867188 446.81640625 661.880859375 422.793945312 661.876953125 393.775390625 c 0
 661.875 379.618164062 661.741210938 364.796875 661.612304688 350.463867188 c 0
 661.1328125 297.301757812 660.637695312 242.329101562 666.141601562 195.71875 c 0
 672.876953125 138.673828125 686.309570312 117.838867188 693.717773438 110.497070312 c 0
EndSplineSet
EndChar

StartChar: v
Encoding: 118 118 85
Width: 1000
Flags: H
LayerCount: 2
Fore
SplineSet
655 499.873046875 m 0
 685.375976562 499.873046875 710 475.249023438 710 444.873046875 c 0
 710 371.306640625 700.807617188 290.33203125 684.779296875 222.709960938 c 0
 662.03515625 126.759765625 626.299804688 56.6025390625 578.56640625 14.189453125 c 0
 568.171875 4.9521484375 555.111328125 0.302734375 542.029296875 0.302734375 c 0
 529.803710938 0.302734375 517.557617188 4.36328125 507.453125 12.5341796875 c 0
 498.088867188 20.1064453125 473.21484375 40.21875 394.4453125 176.256835938 c 0
 356.1796875 242.341796875 314.403320312 320.48828125 295.109375 362.071289062 c 0
 282.32421875 389.625 294.296875 422.326171875 321.850585938 435.111328125 c 0
 349.405273438 447.897460938 382.10546875 435.922851562 394.890625 408.369140625 c 0
 410.047851562 375.704101562 446.84765625 305.474609375 487.859375 234.454101562 c 0
 510.918945312 194.518554688 528.544921875 165.986328125 541.783203125 145.705078125 c 1
 555.920898438 172.798828125 568.069335938 207.263671875 577.745117188 248.081054688 c 0
 597.831054688 332.82421875 600 413.93359375 600 444.873046875 c 0
 600 475.248046875 624.624023438 499.873046875 655 499.873046875 c 0
EndSplineSet
EndChar

StartChar: w
Encoding: 119 119 86
Width: 1000
Flags: H
LayerCount: 2
Fore
SplineSet
698.345703125 367.733398438 m 0
 709.206054688 317.041992188 712.69140625 254.471679688 707.91015625 196.065429688 c 0
 705.345703125 164.762695312 699.04296875 119.504882812 683.573242188 81.6611328125 c 0
 659.168945312 21.9638671875 622.252929688 5.8134765625 595.581054688 2.775390625 c 0
 579.07421875 0.8974609375 546.94140625 2.671875 517.177734375 35.6923828125 c 0
 514.13671875 39.0654296875 511.17578125 42.6943359375 508.284179688 46.5927734375 c 1
 499.603515625 31.6796875 489.975585938 19.92578125 479.32421875 11.1787109375 c 0
 463.418945312 -1.87890625 444.849609375 -8.7001953125 425.814453125 -8.701171875 c 0
 421.384765625 -8.701171875 416.932617188 -8.33203125 412.481445312 -7.5859375 c 0
 390.73046875 -4.6435546875 360.418945312 6.3740234375 335.700195312 41.390625 c 0
 307.586914062 81.21484375 292.2890625 145.297851562 290.227539062 231.860351562 c 0
 288.7109375 295.556640625 294.883789062 366.09765625 306.3359375 415.952148438 c 0
 313.135742188 445.556640625 342.651367188 464.043945312 372.252929688 457.2421875 c 0
 401.858398438 450.442382812 420.344726562 420.928710938 413.543945312 391.325195312 c 0
 404.9140625 353.755859375 397.2890625 282.622070312 400.94140625 215.21875 c 0
 402.737304688 182.083007812 407.125976562 153.254882812 413.634765625 131.85546875 c 0
 415.733398438 124.956054688 417.833984375 119.510742188 419.782226562 115.239257812 c 1
 423.73046875 124.622070312 428.4296875 138.135742188 433.26953125 157.276367188 c 0
 441.119140625 188.315429688 444.733398438 216.086914062 445.15234375 221.982421875 c 0
 445.758789062 249.447265625 466.592773438 272.334960938 494.010742188 275.409179688 c 0
 521.813476562 278.52734375 547.524414062 260.276367188 553.756835938 233.004882812 c 0
 565.478515625 181.7109375 576.708007812 150.817382812 585.151367188 132.615234375 c 1
 586.846679688 137.760742188 588.569335938 143.81640625 590.211914062 150.875 c 0
 596.25390625 176.833984375 599.723632812 209.892578125 599.984375 243.958984375 c 0
 600.262695312 280.373046875 596.92578125 316.475585938 590.587890625 345.616210938 c 0
 584.51171875 373.551757812 577.23046875 387.725585938 573.67578125 392.658203125 c 0
 548.028320312 403.084960938 533.807617188 431.372070312 541.548828125 458.619140625 c 0
 549.849609375 487.838867188 580.275390625 504.793945312 609.487304688 496.493164062 c 0
 652.780273438 484.192382812 682.676757812 440.87109375 698.345703125 367.733398438 c 0
445.138671875 220.828125 m 1
 445.138671875 221.057617188 445.138671875 221.328125 445.146484375 221.63671875 c 1
 445.141601562 221.3671875 445.138671875 221.09765625 445.138671875 220.828125 c 1
EndSplineSet
EndChar

StartChar: x
Encoding: 120 120 87
Width: 1000
Flags: H
LayerCount: 2
Fore
SplineSet
697.21484375 110.458007812 m 0
 716.685546875 87.1435546875 713.569335938 52.458984375 690.259765625 32.9892578125 c 0
 679.970703125 24.396484375 667.46484375 20.2021484375 655.033203125 20.2021484375 c 0
 639.29296875 20.201171875 623.66796875 26.921875 612.7890625 39.947265625 c 0
 581.5390625 77.365234375 551.231445312 118.970703125 522.504882812 160.515625 c 1
 491.924804688 106.1796875 463.837890625 56.96484375 443.006835938 24.3876953125 c 0
 432.51171875 7.974609375 414.75390625 -0.990234375 396.618164062 -0.990234375 c 0
 386.475585938 -0.990234375 376.217773438 1.810546875 367.040039062 7.6796875 c 0
 341.44921875 24.0439453125 333.967773438 58.0546875 350.33203125 83.646484375 c 0
 374.13671875 120.875976562 409.775390625 184.375976562 447.50390625 251.60546875 c 0
 449.580078125 255.3046875 451.66015625 259.01171875 453.7421875 262.719726562 c 0
 439.15625 284.608398438 424.682617188 306.149414062 411.696289062 324.525390625 c 1
 406.306640625 314.247070312 401.678710938 302.491210938 397.765625 289.188476562 c 0
 389.1953125 260.046875 358.625976562 243.3671875 329.481445312 251.943359375 c 0
 300.338867188 260.513671875 283.6640625 291.0859375 292.235351562 320.2265625 c 0
 309.88671875 380.241210938 340.493164062 425.5234375 383.202148438 454.814453125 c 0
 404.903320312 469.697265625 434.10546875 467.124023438 452.868164062 448.676757812 c 0
 470.3515625 431.48828125 490.635742188 404.169921875 514.344726562 369.63671875 c 1
 537.512695312 409.772460938 559.264648438 446.155273438 577.612304688 473.9140625 c 0
 594.360351562 499.254882812 628.483398438 506.219726562 653.822265625 489.471679688 c 0
 679.163085938 472.72265625 686.12890625 438.602539062 669.379882812 413.26171875 c 0
 645.690429688 377.41796875 614.936523438 324.44921875 582.71875 267.567382812 c 1
 618.752929688 213.890625 657.7734375 157.68359375 697.21484375 110.458007812 c 0
EndSplineSet
EndChar

StartChar: y
Encoding: 121 121 88
Width: 1000
Flags: H
LayerCount: 2
Fore
SplineSet
706.049804688 169.672851562 m 0
 701.865234375 54.0068359375 697.123046875 -77.091796875 708.80859375 -178.715820312 c 0
 712.280273438 -208.892578125 690.629882812 -236.168945312 660.453125 -239.638671875 c 0
 658.3203125 -239.883789062 656.198242188 -240.00390625 654.100585938 -240.00390625 c 0
 626.536132812 -240.005859375 602.754882812 -219.326171875 599.530273438 -191.282226562 c 0
 590.977539062 -116.91796875 590.4609375 -30.81640625 592.360351562 54.1396484375 c 1
 560.71484375 29.2734375 521.892578125 16.75390625 476.19921875 16.751953125 c 0
 471.573242188 16.7509765625 466.885742188 16.8798828125 462.119140625 17.1357421875 c 0
 412.23046875 19.822265625 370.07421875 45.064453125 340.208984375 90.1328125 c 0
 273.302734375 191.1015625 282.55859375 375.024414062 314.534179688 463.556640625 c 0
 324.852539062 492.125 356.377929688 506.921875 384.947265625 496.602539062 c 0
 413.515625 486.284179688 428.310546875 454.758789062 417.993164062 426.190429688 c 0
 405.75 392.291992188 398.76171875 337.110351562 400.19140625 285.607421875 c 0
 401.7890625 227.998046875 413.34765625 178.8984375 431.904296875 150.893554688 c 0
 445.287109375 130.69921875 458.241210938 127.502929688 468.032226562 126.9765625 c 0
 489.579101562 125.817382812 506.223632812 129.034179688 518.912109375 136.811523438 c 0
 530.939453125 144.18359375 541.318359375 156.78515625 550.640625 175.334960938 c 0
 574.587890625 222.982421875 587.392578125 302.090820312 599.450195312 385.828125 c 0
 603.489257812 413.875976562 628.174804688 434.254882812 656.484375 432.928710938 c 0
 684.791015625 431.590820312 707.448242188 408.96484375 708.82421875 380.66015625 c 0
 711.610351562 323.353515625 708.909179688 248.704101562 706.049804688 169.672851562 c 0
EndSplineSet
EndChar

StartChar: z
Encoding: 122 122 89
Width: 1000
Flags: H
LayerCount: 2
Fore
SplineSet
642.2890625 342.801757812 m 0
 611.814453125 301.065429688 573.643554688 255.494140625 536.728515625 211.422851562 c 0
 510.51171875 180.122070312 482.681640625 146.897460938 458.59765625 115.916015625 c 1
 487.124023438 117.856445312 511.712890625 117.268554688 534.291992188 114.314453125 c 0
 593.672851562 106.54296875 641.3828125 80.8916015625 680.1484375 35.8984375 c 0
 699.974609375 12.8857421875 697.391601562 -21.841796875 674.37890625 -41.6689453125 c 0
 663.9921875 -50.6181640625 651.216796875 -55.001953125 638.50390625 -55.001953125 c 0
 623.05078125 -55.0029296875 607.690429688 -48.5263671875 596.811523438 -35.900390625 c 0
 559.950195312 6.884765625 514.817382812 21.6796875 358.041015625 -9.953125 c 0
 338.21875 -13.9541015625 317.802734375 -6.75390625 304.874023438 8.79296875 c 0
 291.9453125 24.33984375 288.58984375 45.7255859375 296.135742188 64.486328125 c 0
 320.133789062 124.141601562 384.381835938 200.846679688 452.403320312 282.0546875 c 0
 482.12109375 317.53515625 512.6796875 354.018554688 538.41015625 387.592773438 c 1
 478.517578125 379.5390625 422.86328125 385.265625 353.375976562 392.41796875 c 0
 348.801757812 392.889648438 344.150390625 393.368164062 339.4140625 393.8515625 c 0
 309.196289062 396.936523438 287.200195312 423.934570312 290.28515625 454.154296875 c 0
 293.37109375 484.373046875 320.365234375 506.376953125 350.586914062 503.283203125 c 0
 355.352539062 502.796875 360.03515625 502.315429688 364.638671875 501.840820312 c 0
 476.00390625 490.377929688 531.903320312 484.624023438 632.48046875 529.764648438 c 0
 651.408203125 538.262695312 673.51171875 535.379882812 689.631835938 522.315429688 c 0
 705.750976562 509.249023438 713.147460938 488.223632812 708.75390625 467.944335938 c 0
 701.487304688 434.3984375 680.989257812 395.801757812 642.2890625 342.801757812 c 0
EndSplineSet
EndChar

StartChar: braceleft
Encoding: 123 123 90
Width: 1000
Flags: H
LayerCount: 2
Fore
SplineSet
663.685546875 -131.79296875 m 0
 678.213867188 -158.46875 668.366210938 -191.87109375 641.693359375 -206.400390625 c 0
 596.662109375 -230.924804688 559.504882812 -239.987304688 529.182617188 -239.98828125 c 0
 492.069335938 -239.98828125 465.196289062 -226.4140625 446.6484375 -211.000976562 c 0
 404.883789062 -176.296875 384.577148438 -115.234375 386.291015625 -29.5068359375 c 0
 387.41015625 26.4765625 398.190429688 91.9423828125 416.959960938 157.841796875 c 1
 403.22265625 164.235351562 384.666992188 171.563476562 367.798828125 176.991210938 c 0
 346.370117188 183.884765625 331.291992188 203.147460938 329.758789062 225.60546875 c 0
 328.225585938 248.063476562 340.518554688 269.194335938 360.810546875 278.936523438 c 0
 387.626953125 291.830078125 415.813476562 307.536132812 434.098632812 319.387695312 c 1
 417.319335938 357.93359375 399.772460938 403.4140625 388.595703125 450.493164062 c 0
 370.290039062 527.611328125 373.626953125 592.7890625 398.513671875 644.21875 c 0
 412.185546875 672.473632812 432.223632812 696.491210938 458.072265625 715.603515625 c 0
 484.225585938 734.9453125 516.64453125 749.366210938 554.42578125 758.46875 c 0
 583.953125 765.5859375 613.663085938 747.413085938 620.779296875 717.881835938 c 0
 627.893554688 688.350585938 609.721679688 658.643554688 580.192382812 651.529296875 c 0
 537.58203125 641.262695312 510.54296875 623.19921875 497.530273438 596.3046875 c 0
 461.392578125 521.625976562 526.994140625 379.711914062 548.551757812 333.078125 c 0
 557.90625 312.840820312 555.602539062 289.79296875 542.237304688 269.838867188 c 0
 536.938476562 261.927734375 529.739257812 254.216796875 520.228515625 246.263671875 c 0
 515.461914062 242.279296875 510.032226562 238.153320312 503.877929688 233.844726562 c 1
 514.756835938 225.26953125 522.30859375 216.264648438 527.502929688 206.115234375 c 0
 535.451171875 190.583984375 536.940429688 173.155273438 531.697265625 157.041015625 c 0
 509.947265625 90.1982421875 497.365234375 23.1669921875 496.267578125 -31.705078125 c 0
 495.142578125 -87.978515625 506.706054688 -117.885742188 516.94921875 -126.3984375 c 0
 526.963867188 -134.720703125 555.279296875 -128.206054688 589.080078125 -109.797851562 c 0
 615.751953125 -95.271484375 649.158203125 -105.115234375 663.685546875 -131.79296875 c 0
EndSplineSet
EndChar

StartChar: bar
Encoding: 124 124 91
Width: 1000
Flags: H
LayerCount: 2
Fore
SplineSet
603.87109375 -176.098632812 m 0
 608.787109375 -206.07421875 588.47265625 -234.359375 558.49609375 -239.276367188 c 0
 555.482421875 -239.76953125 552.485351562 -240.008789062 549.528320312 -240.008789062 c 0
 523.069335938 -240.008789062 499.7421875 -220.864257812 495.3203125 -193.90234375 c 0
 449.071289062 88.1005859375 409.883789062 439.755859375 395.487304688 701.984375 c 0
 393.822265625 732.314453125 417.05859375 758.250976562 447.388671875 759.916992188 c 0
 477.720703125 761.576171875 503.657226562 738.344726562 505.322265625 708.014648438 c 0
 519.521484375 449.383789062 558.204101562 102.348632812 603.87109375 -176.098632812 c 0
EndSplineSet
EndChar

StartChar: braceright
Encoding: 125 125 92
Width: 1000
Flags: H
LayerCount: 2
Fore
SplineSet
657.12109375 237.499023438 m 0
 659.78515625 215.221679688 648.825195312 193.657226562 629.165039062 182.860351562 c 0
 613.3671875 173.880859375 595.629882812 158.720703125 590.018554688 149.807617188 c 1
 634.159179688 27.6162109375 638.583007812 -70.349609375 603.161132812 -141.454101562 c 0
 579.783203125 -188.381835938 539.393554688 -221.647460938 486.360351562 -237.653320312 c 0
 481.064453125 -239.250976562 475.708984375 -240.01171875 470.448242188 -240.012695312 c 0
 446.823242188 -240.014648438 424.9921875 -224.672851562 417.814453125 -200.889648438 c 0
 409.038085938 -171.809570312 425.497070312 -141.120117188 454.577148438 -132.34375 c 0
 478.848632812 -125.018554688 494.77734375 -112.328125 504.702148438 -92.4052734375 c 0
 525.978515625 -49.693359375 518.911132812 24.7685546875 484.798828125 117.266601562 c 0
 477.041992188 138.30078125 471.0703125 177.91015625 507.434570312 222.7734375 c 1
 496.10546875 233.838867188 486.291992188 246.510742188 478.157226562 260.668945312 c 0
 460.360351562 291.641601562 450.79296875 329.038085938 449.721679688 371.818359375 c 0
 448.8046875 408.434570312 454.100585938 448.240234375 465.461914062 490.127929688 c 0
 487.439453125 571.157226562 479.606445312 618.448242188 464.946289062 635.686523438 c 0
 454.705078125 647.73046875 433.98046875 652.22265625 403.344726562 649.041992188 c 0
 373.134765625 645.907226562 346.095703125 667.853515625 342.958984375 698.068359375 c 0
 339.821289062 728.28125 361.771484375 755.317382812 391.984375 758.454101562 c 0
 425.342773438 761.91796875 455.368164062 759.495117188 481.227539062 751.251953125 c 0
 508.390625 742.594726562 531.106445312 727.688476562 548.745117188 706.9453125 c 0
 579.700195312 670.541992188 608.797851562 598.379882812 571.625976562 461.33203125 c 0
 554.93359375 399.79296875 555.629882812 346.627929688 573.533203125 315.469726562 c 0
 582.756835938 299.416992188 596.450195312 289.411132812 616.627929688 283.981445312 c 0
 638.317382812 278.143554688 654.454101562 259.801757812 657.12109375 237.499023438 c 0
EndSplineSet
EndChar

StartChar: asciitilde
Encoding: 126 126 93
Width: 1000
Flags: H
LayerCount: 2
Fore
SplineSet
708.120117188 429.469726562 m 0
 685.129882812 343.447265625 610.815429688 263.891601562 516.779296875 315.560546875 c 0
 486.336914062 330.452148438 460.616210938 369.330078125 429.219726562 376.9296875 c 0
 414.012695312 381.469726562 399.974609375 369.47265625 392.26953125 357.939453125 c 0
 349.092773438 291.170898438 253.33984375 361.439453125 304.051757812 423.750976562 c 1
 339.799804688 475.830078125 409.3046875 503.084960938 470.959960938 479.127929688 c 0
 500.608398438 468.692382812 528.561523438 448.790039062 552.439453125 425.58984375 c 0
 560.631835938 417.94140625 567.27734375 412.358398438 574.869140625 409.650390625 c 1
 588 420.030273438 597.48828125 443.768554688 601.939453125 458.240234375 c 1
 601.94921875 458.240234375 l 1
 621.16015625 527.413085938 726.45703125 498.852539062 708.120117188 429.469726562 c 0
EndSplineSet
EndChar
